<svg width="35" height="24" viewBox="0 0 35 24" fill="none" xmlns="http://www.w3.org/2000/svg">
<path d="M16.421 4.73684L15.5789 5.68421L15.3684 6L15.2632 6.31579L14.9474 6.8421L14.5263 7.05263V7.26315L13.8947 8L13.5789 8.21052L13.4737 8.52631L13.2631 9.05263H12.8421L12.5263 10L12.7368 10.3158L11.8947 11.0526L11.0526 12.3158H10.6316L10.5263 12.7368L9.26315 14.3158L8.52631 14.5263L8.31578 15.1579L7.6842 15.8947L7.05262 16.7368H6.73683L6.42104 17.3684L5.89473 18.3158L5.36841 18.6316L5.15789 19.1579L4.8421 20.1053H4.52631L3.99999 20.6316L3.26315 21.0526H2.52631" stroke="black"/>
<path d="M16.3158 4.73684L17.1579 3.68421V3.26316L17.8947 2.94737L18.6316 3.05263L19.0526 2.31579L19.8947 3.68421L20.1053 4.10526L19.7895 4.8421L20.3158 5.36842L21.2632 5.68421L22.1053 7.57895L23.1579 8.84211V9.36842L24.2105 10.9474L24.7368 12.2105L25.579 13.3684L25.7895 14.2105L26.8421 15.579L27.4737 15.6842L27.7895 16.2105L28.5263 16.4211L28.8421 16.9474L29.7895 18.1053L31.1579 19.1579L32 20.1053V20.5263H32.6316" stroke="black"/>
<path d="M16.4119 4.81453C16.7073 4.70904 16.9817 4.61476 17.2904 4.54085C17.4918 4.49264 17.7551 4.44962 17.9628 4.44962C18.2157 4.44962 18.2973 4.3355 18.2382 4.12864C18.2219 4.07159 18.1641 4.05174 18.1435 3.97997C18.1233 3.90907 18.1148 3.84891 18.1148 3.76541C18.1148 3.68042 18.1453 3.60028 18.1453 3.52214C18.1453 3.37549 17.9293 3.56077 17.8952 3.59141C17.7508 3.72136 17.5518 3.78053 17.385 3.8786C17.2837 3.93818 17.4603 3.90879 17.483 3.90225C17.5817 3.87381 17.6594 3.83862 17.7432 3.78062C17.9128 3.66319 17.8411 3.36518 17.8411 3.17244C17.8411 3.02077 17.8611 3.09023 17.8395 3.18764C17.8323 3.21983 17.7273 3.35013 17.6891 3.35489C17.6229 3.36318 17.5398 3.43799 17.4762 3.46977C17.4199 3.49794 17.651 3.50694 17.6739 3.50694C17.8678 3.50694 17.9738 3.29671 18.1301 3.26198C18.2236 3.24119 18.257 3.12897 18.3699 3.17413C18.396 3.18456 18.2304 3.24536 18.2196 3.25184C18.1496 3.29381 18.0948 3.33 18.0236 3.36165C17.7613 3.47821 17.3242 3.52865 17.3242 3.88705C17.3242 3.9736 17.2266 4.1368 17.1874 4.22325C17.142 4.32301 17.1197 4.42853 17.0657 4.52565C17.0058 4.63356 17.0921 4.61118 17.2043 4.59996C17.3463 4.58577 17.4945 4.51224 17.5979 4.4192C17.6914 4.33508 17.7828 4.21718 17.8783 4.14552C17.9622 4.08262 17.965 3.99712 18.0523 3.94618C18.0547 3.94479 18.1453 3.78916 18.1453 3.7992C18.1453 4.04674 18.1227 4.28666 18.0608 4.52733C17.9777 4.85053 17.5278 5.01253 17.233 5.06455C17.063 5.09455 16.93 5.21415 16.8613 5.36863C16.7792 5.55337 16.5796 5.68074 16.4407 5.81971C16.2631 5.9972 16.1809 6.20577 16.0791 6.43466C16.0233 6.56015 15.794 6.8999 15.8409 6.77082C15.9127 6.57356 16.0906 6.39007 16.1771 6.19137C16.2505 6.02278 16.3485 5.88716 16.444 5.73186C16.5695 5.528 16.803 5.41061 16.9289 5.20308C16.9638 5.14558 17.0549 5.04026 17.0505 4.96657C17.047 4.90695 16.8109 5.14548 16.8005 5.15577C16.6143 5.33956 16.3794 5.47988 16.2058 5.67274C16.1762 5.70569 15.7979 6.10089 15.9727 6.15082C16.0839 6.18259 16.2625 5.84722 16.3072 5.78592C16.5365 5.47114 16.7402 5.16285 16.9373 4.82634C16.9503 4.80415 17.1957 4.40807 17.0404 4.53916C16.7383 4.794 16.4638 5.2015 16.2903 5.55447C16.2015 5.73501 16.1078 5.97796 16.1078 6.18293C16.1078 6.21971 16.1591 6.02628 16.1653 6.01061C16.2696 5.74428 16.4723 5.54051 16.6349 5.3112C16.6752 5.25445 16.8763 5.00398 16.689 5.11186C16.3269 5.32034 16.1144 5.68544 15.8984 6.0292C15.7989 6.18741 15.6806 6.38773 15.6534 6.57823C15.6359 6.7004 15.7743 6.6012 15.8105 6.56304C16.0859 6.2723 16.2625 5.90394 16.5437 5.61192C16.7558 5.39162 16.9687 5.14487 17.211 4.95642C17.5079 4.72554 16.696 5.50556 16.4592 5.79775C16.0898 6.25362 15.6738 6.72845 15.3662 7.23034C15.2324 7.44866 15.5293 7.23516 15.5875 7.18303C16.0407 6.77706 16.4418 6.3103 16.8275 5.84167C17.0179 5.61042 17.6759 4.99718 17.4492 5.19295C16.6406 5.89131 15.8753 6.70476 15.2158 7.54796C15.2039 7.56318 15.0653 7.75337 15.1922 7.6831C15.3415 7.60045 15.4647 7.46331 15.5807 7.34186C15.8511 7.05901 16.1101 6.76426 16.368 6.47013C16.705 6.08575 17.0694 5.67895 17.3512 5.25038C17.5847 4.89529 16.6854 5.78104 16.3815 6.07819C15.9327 6.51714 15.5258 6.98596 15.1314 7.47362C15.0923 7.5219 14.7929 7.83259 15.0097 7.63242C15.3264 7.34011 15.516 6.9988 15.6956 6.61034C15.7725 6.44415 15.8424 6.27442 15.9305 6.11367C15.9397 6.09687 15.971 6.04944 15.9575 6.06297C15.9319 6.08853 15.8866 6.14737 15.8713 6.16773C15.6141 6.51063 15.3758 6.864 15.106 7.19826C15.0835 7.22617 14.781 7.6075 14.7884 7.61047C14.8636 7.64053 15.148 7.26729 15.1854 7.21853C15.3989 6.9407 15.5682 6.61 15.6889 6.28091C15.7261 6.17946 15.5367 6.55415 15.5064 6.59851C15.2875 6.91912 14.9867 7.21842 14.8205 7.5716C14.5789 8.0851 15.4441 6.61605 15.6652 6.09339C15.7975 5.78074 15.6467 6.2047 15.6044 6.30457C15.5505 6.43188 15.5153 6.56013 15.4557 6.68468C15.4252 6.74849 15.4247 6.84647 15.378 6.89586C15.3078 6.97019 15.2225 7.07682 15.128 7.11885C15.0216 7.16615 14.9679 7.29002 14.8678 7.33171C14.8392 7.34365 14.8044 7.366 14.8003 7.39929C14.7911 7.47219 14.8607 7.29783 14.8847 7.26076C15.1201 6.89792 15.5204 6.58906 15.6973 6.19981C15.7389 6.10842 15.7622 6.02133 15.8038 5.92783C15.8811 5.75369 15.8603 6.15792 15.846 6.2184C15.7185 6.75678 15.5763 7.28712 15.3341 7.78615C15.2088 8.04442 15.0367 8.27872 14.8814 8.51935C14.7797 8.6767 14.7161 8.86874 14.5806 9.00421C14.4103 9.17455 14.8061 8.57832 14.9253 8.36899C15.3936 7.54661 15.8141 6.69872 16.2362 5.85181C16.4223 5.47853 16.9609 4.35114 16.8106 4.74019C16.6363 5.19148 16.36 5.64775 16.091 6.04777C15.8105 6.46489 15.5175 6.90375 15.1719 7.27089C15.1249 7.32085 15.175 7.26783 15.1922 7.25061C15.2903 7.15249 15.388 7.05455 15.4794 6.94992C15.6854 6.71402 16.1893 5.91861 16.0267 6.1863C15.9334 6.34011 15.7797 6.46175 15.6585 6.59175C15.3866 6.88322 15.1478 7.19977 14.927 7.53106C14.7658 7.77274 14.5532 8.03028 14.4539 8.30817C14.3953 8.47228 14.6855 8.04487 14.7732 7.89428C14.8578 7.7491 14.9358 7.59221 15.0537 7.47024C15.0837 7.43914 15.1472 7.40398 15.1601 7.35874C15.2443 7.06396 14.7867 7.84548 14.5874 8.07842C14.3003 8.41392 13.971 8.70979 13.6819 9.04476C13.4836 9.27451 13.777 9.03569 13.861 8.97042C14.2378 8.67733 14.4849 8.26935 14.7361 7.87232C14.8184 7.74215 14.9283 7.62101 14.9929 7.48038C15.043 7.3712 14.8854 7.57215 14.878 7.58343C14.6777 7.88777 14.4822 8.18304 14.2326 8.45177C14.1207 8.57236 14.1733 8.56729 14.2749 8.4484C14.4752 8.21388 14.6282 7.94205 14.7361 7.65438C14.8052 7.46992 14.7691 7.57091 14.6516 7.70169C14.3595 8.02678 14.0417 8.32282 13.741 8.63929C13.666 8.71826 13.4782 8.89933 13.6886 8.72546C13.9573 8.50356 14.189 8.23809 14.3779 7.94495C14.5273 7.71308 14.406 7.90838 14.3306 8.02097C14.1919 8.22796 14.0523 8.45895 13.888 8.64605C13.883 8.65177 13.7842 8.81499 13.8339 8.81499C13.8679 8.81499 13.9847 8.68975 13.9049 8.83527C13.7933 9.03866 13.6658 9.23727 13.5467 9.4367C13.5364 9.454 13.3973 9.69116 13.4082 9.7036C13.4474 9.74847 13.465 9.60131 13.469 9.5955C13.4885 9.56769 13.2224 9.7175 13.2224 9.66308C13.2224 9.60411 13.2912 9.6084 13.3051 9.57352C13.3141 9.55112 13.2301 9.58805 13.2207 9.60226C13.2044 9.62663 13.2254 9.54257 13.2173 9.5144C13.2021 9.46133 13.1328 9.52453 13.1126 9.52453C13.0444 9.52453 13.2184 9.32312 13.2325 9.31506C13.3334 9.25739 13.3853 9.25423 13.5062 9.25423C13.95 9.25423 14.1747 9.10268 14.4759 8.80148C14.517 8.76034 14.6239 8.62842 14.6043 8.68322C14.5738 8.76845 14.4739 8.86381 14.4218 8.93325C14.2673 9.13929 14.1165 9.34925 13.937 9.53468C13.8234 9.65196 13.5083 9.8536 13.4707 10.0229C13.4548 10.0945 13.6013 9.95426 13.6582 9.90802C13.8327 9.76623 13.9941 9.60817 14.1414 9.43838C14.2909 9.26611 14.5265 9.03567 14.6127 8.82007C14.6373 8.75855 14.5364 8.92834 14.4979 8.98223C14.3509 9.18794 14.1928 9.38226 14.0299 9.57522C13.9595 9.65863 13.9017 9.78306 14.0535 9.66645C14.1607 9.58411 14.2536 9.48706 14.3306 9.37588C14.3861 9.29575 14.4965 9.0352 14.4928 9.13259C14.4897 9.21226 14.433 9.28051 14.3982 9.35221C14.3149 9.52383 14.2104 9.72613 14.1211 9.89282C13.9759 10.1641 13.8255 10.4338 13.6718 10.7004C13.5114 10.9783 12.9009 11.7124 13.148 11.5079C13.2859 11.3938 13.3833 11.1878 13.469 11.0382C13.712 10.6141 13.943 10.1811 14.1684 9.74754C14.7386 8.6512 15.3106 7.56983 15.9761 6.52756C16.0977 6.33708 16.2167 6.14529 16.341 5.95655C16.3794 5.89817 16.3959 5.86935 16.3613 5.95655C16.0609 6.71148 15.5484 7.39312 15.1635 8.10714C15.1342 8.16152 14.8043 8.6816 14.8661 8.77445C14.8781 8.79234 14.8976 8.74503 14.9118 8.72885C14.9815 8.6488 15.0515 8.56899 15.1213 8.48895C15.409 8.15861 15.6604 7.81114 15.8984 7.4432C16.181 7.00615 16.4584 6.56554 16.7363 6.1255C17.0581 5.6159 16.0818 7.13802 15.7396 7.63411C15.22 8.38708 14.6774 9.15202 14.2512 9.96377C14.1629 10.1319 14.4892 9.6675 14.5992 9.51272C15.0251 8.91356 15.4553 8.31579 15.8494 7.69493C16.0463 7.38459 16.2163 7.05125 16.4407 6.75901C16.4783 6.71002 16.5775 6.56295 16.5674 6.62386C16.5458 6.75337 16.2919 7.03741 16.2346 7.12224C15.7417 7.85152 15.2168 8.55967 14.753 9.3083C14.46 9.78116 14.1891 10.2676 13.9083 10.7476C13.7942 10.9427 13.6711 11.1346 13.5805 11.3423C13.5663 11.3749 13.493 11.5532 13.5873 11.42C13.7421 11.2013 13.8766 10.9677 14.013 10.7375C14.1907 10.4377 14.3618 10.1307 14.5773 9.85567C14.6116 9.81177 14.7096 9.68346 14.6955 9.73739C14.6581 9.88082 14.4762 10.0596 14.4016 10.1766C14.1582 10.5585 13.9319 10.9486 13.6751 11.322C13.6163 11.4076 12.8112 12.5468 12.8541 12.5789C12.8926 12.6079 13.6241 11.4973 13.6684 11.4234C13.7594 11.2715 13.8403 11.1142 13.9218 10.9571C13.9349 10.9318 13.7327 11.1827 13.7157 11.2038C13.3493 11.6593 13.0006 12.1155 12.6885 12.606C12.4916 12.9155 12.9042 11.9041 13.0365 11.5619C13.1594 11.2443 13.285 10.932 13.4386 10.6277C13.4882 10.5295 13.5886 10.3951 13.6092 10.2814C13.6156 10.2463 13.5391 10.2981 13.5079 10.3152C13.3552 10.3988 13.2279 10.5135 13.1109 10.6412C13.061 10.6957 12.8736 11.0083 13.0197 10.7848C13.0458 10.7448 13.3345 10.3773 13.2663 10.3523C13.2083 10.3311 13.1307 10.4487 13.0737 10.403C12.9799 10.3279 12.9757 10.2537 12.9757 10.1209C12.9757 10.0247 12.8237 10.0823 12.8237 9.99924C12.8237 9.92695 12.8055 9.82706 12.8254 9.75767C12.8952 9.51322 13.0538 9.5912 13.2494 9.50426C13.4147 9.43078 13.2632 9.64045 13.1649 9.6732C13.0706 9.70466 12.9685 9.64002 12.898 9.73402C12.8182 9.84038 12.8551 9.98855 12.8777 10.1158C12.9154 10.3275 12.9171 10.4243 12.773 10.5973C12.5085 10.9147 12.2724 11.2282 12.0516 11.5771C11.9098 11.8013 11.8134 12.0215 11.7425 12.2749C11.7412 12.2792 11.6947 12.3764 11.7222 12.3239C11.8083 12.1595 11.8795 11.9883 11.9722 11.8272C12.327 11.2102 12.7744 10.6187 13.1937 10.0432C13.2621 9.94925 13.3576 9.84504 13.4065 9.73739C13.4451 9.65249 13.2748 9.87007 13.2173 9.9435C12.9174 10.3267 12.6436 10.7296 12.3439 11.1126C12.3258 11.1356 11.9657 11.5988 12.1445 11.4707C12.4025 11.2859 12.6236 11.0481 12.8676 10.849C12.9121 10.8127 12.8944 10.9705 12.8676 11.0213C12.7235 11.2949 12.5239 11.5429 12.3608 11.8052C12.1214 12.19 11.8141 12.6046 11.658 13.0351C11.6313 13.1089 11.6228 13.1496 11.685 13.0554C11.8989 12.7313 12.1265 12.4202 12.3658 12.1144C12.555 11.8727 12.7311 11.6266 12.9031 11.3727C12.9073 11.3665 13.0216 11.2045 13.0044 11.2207C12.6135 11.5887 12.2912 12.0681 11.9807 12.5046C11.8201 12.7303 11.5497 13.0266 11.4874 13.3071C11.4533 13.4602 11.6538 13.041 11.729 12.9033" stroke="black" stroke-linecap="round"/>
<path d="M16.9403 6.15545C16.6646 6.74128 17.1645 6.68688 17.5778 7.10025C18.4467 7.96913 17.1901 8.70673 17.3589 9.63505C17.3966 9.84225 18.5075 9.58471 18.6762 9.55825C18.825 9.53492 18.8104 9.59861 18.6878 9.64659C18.3716 9.77031 18.1068 9.93027 17.8044 10.0844C17.5663 10.2058 17.3117 10.2511 17.0939 10.4109C17.0766 10.4236 16.8533 10.5634 16.8865 10.5261C16.951 10.4535 17.0163 10.3919 17.0632 10.3033C17.1033 10.2275 17.2111 10.9088 17.2168 10.9409C17.3325 11.5933 17.5087 12.2202 17.6508 12.865C17.656 12.8884 17.6918 13.4379 17.8044 13.1876C18.0782 12.5793 17.9773 11.7893 17.9773 11.1406C17.9773 10.5402 18.15 11.1588 18.2615 11.4325C18.463 11.9271 18.6746 12.4145 18.9374 12.8804C19.014 13.0161 19.1059 13.2826 19.2485 13.3681C19.3771 13.4453 19.0961 13.1097 19.0142 12.9841C18.6626 12.444 18.3766 11.8654 18.0387 11.3172C17.6163 10.632 16.2965 8.61368 16.6753 9.32395C17.1917 10.2922 17.8062 11.1979 18.4381 12.1007C18.5669 12.2847 18.9013 12.9516 19.1525 12.9994C19.3944 13.0455 19.1213 12.5012 19.0373 12.2697C18.5045 10.8024 17.7116 9.29334 17.3973 7.75699C17.3711 7.62873 17.2783 7.29391 17.4319 7.59185C17.8991 8.49819 18.3646 9.39063 18.7377 10.3417C18.947 10.8754 19.4239 12.5287 19.2792 11.974C19.148 11.4709 18.7974 10.9836 18.5956 10.503C18.3378 9.8893 17.9994 9.35052 17.6815 8.77092C17.3245 8.11983 17.6082 9.4984 17.6623 9.66579C18.1174 11.0724 18.7378 12.45 19.3445 13.7983C19.7073 14.6045 19.0284 12.7713 18.9989 12.6922C18.6477 11.751 18.2557 10.8266 17.8774 9.89621C17.7105 9.48579 17.4185 9.03412 17.3551 8.59042C17.3339 8.44233 17.294 8.88652 17.3013 9.03591C17.3517 10.0696 17.6919 11.1332 18.0771 12.0854C18.2828 12.5937 18.5687 13.0601 18.7915 13.5602C18.8382 13.6652 19.0851 14.0804 18.9835 13.6984C18.8007 13.0106 18.4864 12.3464 18.2538 11.6744C17.907 10.6726 17.6433 9.63711 17.2629 8.64802C17.2113 8.5137 17.0383 7.86842 17.0901 8.39454C17.2056 9.56907 17.5747 10.7114 18.0118 11.8012C18.3145 12.5556 18.6497 13.2964 18.9681 14.0441C19.2155 14.6247 18.9145 13.7321 18.8683 13.6216C18.2609 12.1686 17.8107 10.618 17.1285 9.20107C17.0559 9.05036 17.077 9.85859 17.0786 9.94998C17.0967 11.0008 17.3358 12.0296 17.6162 13.0378C17.7827 13.6363 18.0193 14.2054 18.2 14.7968C18.3038 15.1365 17.9436 14.1343 17.8083 13.806C17.1591 12.2312 16.8313 10.5723 16.3949 8.93606C16.3085 8.61198 16.384 9.6069 16.3873 9.94231C16.3975 11.0017 16.5287 12.0555 16.6484 13.107C16.7245 13.7752 16.988 15.7747 16.9365 15.1041C16.8057 13.4039 16.5629 11.7319 16.5217 10.023C16.5169 9.82513 16.5709 9.27817 16.441 9.10505C16.3976 9.04718 16.394 9.244 16.3911 9.31629C16.3762 9.68766 16.3859 10.0625 16.3873 10.4339C16.3916 11.6317 16.5255 12.8358 16.5255 14.0287C16.5255 15.3066 16.4605 11.4736 16.4564 10.1958C16.454 9.45663 16.4004 8.72158 16.3873 7.9836C16.3827 7.72821 16.438 8.4888 16.441 8.53665C16.481 9.1633 16.5255 11.0465 16.5255 10.4185C16.5255 9.81941 16.5255 9.22027 16.5255 8.62113C16.5255 8.34745 16.6221 7.90063 16.5217 7.64945C16.5059 7.61002 16.2735 8.01181 16.272 8.01431C16.0025 8.4725 15.7246 8.92827 15.4348 9.37389C15.2227 9.69993 14.9818 9.99292 14.7396 10.2956C14.6927 10.3543 14.4593 10.6035 14.4593 10.6797C14.4593 10.7037 14.6359 10.5338 14.6359 10.5338C15.1214 10.0061 15.4153 9.30341 15.7881 8.69795C15.9167 8.48911 16.1365 7.83343 16.4564 7.81461C16.8289 7.79269 16.5924 7.40697 16.9019 7.74547C17.0465 7.9037 17.2674 8.13579 17.3551 8.33309C17.4017 8.43798 17.1173 7.81052 17.044 7.68019C16.9627 7.53566 16.802 7.42814 16.802 7.26155C16.802 6.92128 16.9433 7.35158 17.044 7.49968C17.2888 7.85972 17.5159 8.23254 17.7545 8.59042C17.8873 8.78955 17.4469 8.19113 17.4242 7.95286C17.3948 7.64431 17.0582 7.65562 17.0786 7.33069C17.0833 7.25505 17.4621 7.6525 17.5241 7.70322C17.6477 7.80442 17.0497 7.57469 16.9518 7.50737C16.6138 7.27497 17.2417 7.68187 17.309 7.7301C17.4193 7.80915 17.6862 7.96299 17.7046 8.11033C17.7925 8.81358 18.0598 9.57629 18.3229 10.2342" stroke="black" stroke-linecap="round"/>
<path d="M17.839 12.3773C17.9783 12.6714 18.3442 13.1545 18.1386 13.491C18.0379 13.6558 17.9099 13.8423 17.7391 13.9327C17.5215 14.0479 17.5305 14.1055 17.7699 14.1055C18.3151 14.1055 18.67 14.5178 18.9067 14.9697C19.0351 15.2148 19.04 15.5486 18.9988 15.8184C18.9804 15.9393 18.9425 16.0606 18.876 16.1641C18.8653 16.1807 18.7446 16.2997 18.7799 16.3139C19.1398 16.4578 18.252 17.1382 18.2 17.2856C18.1488 17.4308 18.0546 17.4015 18.1462 17.4277C18.3058 17.4733 17.9477 18.0743 17.9081 18.1535C17.7114 18.547 17.7058 18.7628 18.1808 18.8103C18.5803 18.8502 18.5136 19.2 18.465 19.467C18.4157 19.7385 18.5683 20.0338 18.8222 20.1353C19.0103 20.2106 19.0142 20.244 19.0142 20.4502C19.0142 20.508 19.0476 20.7178 18.9758 20.7383C18.8534 20.7732 18.9943 20.7194 19.0142 20.6346C19.0893 20.3154 19.1626 20.0191 19.1371 19.6821C19.0425 18.4287 18.6397 17.1795 18.2691 15.9874C18.018 15.1795 17.6307 14.3802 17.2514 13.6216C17.1429 13.4047 16.9476 13.0686 17.3935 13.0686C17.4954 13.0686 17.7103 13.0247 17.8006 13.0763C18.0217 13.2026 17.936 14.038 17.9926 14.2515C18.3107 15.4504 18.8369 16.4509 19.8131 17.2318C20.5204 17.7977 19.6698 16.2874 19.5673 16.1103C19.266 15.59 18.9721 15.0613 18.6801 14.5357C18.6607 14.5008 18.4326 14.023 18.4074 14.0518C18.38 14.0831 18.7682 14.7782 18.7838 14.8199C19.1226 15.7235 19.6542 16.5642 20.0896 17.4238C20.1686 17.5798 20.4346 18.2172 20.3623 17.6965C20.2213 16.6814 19.8431 15.846 19.3215 14.9812C19.0915 14.5999 18.6593 14.2612 18.5149 13.8444C18.3233 13.2908 18.8099 13.997 18.9336 14.167C19.1514 14.4665 19.4215 14.7834 19.6018 15.1079C19.7158 15.3131 19.6818 15.655 19.7593 15.8876C19.8804 16.2508 19.9129 16.6197 19.9129 17.0052C19.9129 17.1813 19.9343 17.5888 20.0358 17.7157C20.2412 17.9724 19.8667 18.3119 19.8438 18.5299C19.8146 18.8075 19.429 19.0264 19.429 19.2904C19.429 19.5157 19.2907 19.7191 19.2907 19.9471C19.2907 20.3273 19.441 20.4311 19.621 20.7421C19.7536 20.9712 19.7288 21.1336 19.5673 21.2952" stroke="black" stroke-linecap="round"/>
<path d="M19.7747 21.2952C19.7747 20.6605 19.7747 19.9996 19.7747 19.3941C19.7747 18.9741 19.9427 19.0437 20.105 18.7373C20.2085 18.5418 20.2736 17.9933 20.1741 17.7695C20.0239 17.4315 19.8257 17.1168 19.7708 16.7325C19.7338 16.4736 19.8253 15.6669 19.6018 15.4882C19.5163 15.4197 19.5673 15.1075 19.5673 15.0042C19.5673 14.8099 19.429 14.675 19.429 14.4858C19.429 14.1147 19.3599 13.7025 19.3599 13.3105C19.3599 13.0328 19.3156 12.6055 19.1678 12.3773C19.0733 12.2312 18.8985 12.1764 18.876 11.9625C18.8614 11.824 18.8478 11.5362 18.7915 11.4094C18.6669 11.129 18.8068 10.7848 18.8068 10.4761C18.8068 10.1579 18.7975 9.82508 18.5994 9.57745C18.5163 9.4735 18.4343 9.32063 18.3229 9.25099C18.1507 9.14337 18.2592 8.99055 18.1693 8.86693C17.9047 8.50312 17.9316 8.09926 17.9081 7.67634C17.8988 7.50882 17.2519 7.28318 17.14 7.12331C16.8893 6.7651 16.839 6.40063 16.6638 6.0172C16.6189 5.91897 16.4298 5.59057 16.5409 5.47952C16.5601 5.46025 16.8677 5.60242 16.9403 5.60242" stroke="black" stroke-linecap="round"/>
<path d="M17.4242 5.74067C17.466 6.07517 17.7564 6.38223 17.8928 6.6701C18.0142 6.92642 17.9838 7.2525 18.1693 7.48431C18.2856 7.6297 18.1846 8.24111 18.1846 8.42143C18.1846 8.70501 18.3079 9.01052 18.3229 9.26635C18.333 9.43848 18.7919 10.4345 18.7223 10.4953C18.6281 10.5778 18.0703 9.47471 17.9926 9.38926C17.821 9.20048 17.6627 8.72789 17.5625 8.49054C17.4294 8.17528 17.3463 7.83576 17.1477 7.55345C16.8849 7.18002 16.6638 6.76536 16.6638 6.29372C16.6638 5.90374 17.0269 5.96404 17.0786 5.67153C17.1076 5.50699 17.6151 5.4577 17.6316 5.32589C17.6434 5.23115 18.0072 4.64894 17.7852 4.92646C17.6839 5.05311 17.6406 5.64743 17.6316 5.80981C17.621 6.00054 17.764 7.65334 17.6009 7.7301C17.3039 7.86985 17.0094 7.06749 17.0094 6.84678C17.0094 6.5472 17.0094 6.24764 17.0094 5.94806" stroke="black" stroke-linecap="round"/>
<path d="M16.7496 10.0881C16.4108 10.4269 15.6999 11.6602 15.8419 11.2026C16.1063 10.3508 16.0804 9.43912 16.313 8.57143C16.3651 8.37693 16.7759 6.92745 16.2153 7.69823C15.3526 8.88442 14.7214 10.3057 14.0093 11.5875C13.9251 11.7391 14.068 11.6943 14.1644 11.6392C14.4521 11.4748 14.5742 11.1644 14.6815 10.8694C14.75 10.6809 14.8456 10.3835 14.9917 10.2374C15.29 9.93916 14.6068 10.9905 14.3712 11.3404C13.6358 12.433 12.6643 13.3839 11.9354 14.4771C11.5689 15.0269 11.8915 15.1215 12.3606 14.8218C13.5452 14.0649 16.041 10.5707 15.141 11.6507C14.3811 12.5626 13.6227 13.4827 12.8316 14.368C12.6117 14.6141 12.3945 14.9176 12.1193 15.1091C12.1095 15.1159 12.5764 14.5335 12.6708 14.4197C13.5855 13.3164 14.3599 12.1224 14.9227 10.8004C15.1674 10.2257 15.3712 9.95808 14.8768 10.5649C14.4557 11.0817 14.0789 11.6247 13.7163 12.1849C13.4739 12.5596 14.3927 11.74 14.4746 11.6392C15.039 10.9447 15.6883 10.3106 16.3187 9.68019C16.5371 9.46183 16.28 9.57219 16.1751 9.67444C15.5906 10.2443 15.0307 10.9009 14.5666 11.5702C14.1478 12.1741 13.7417 12.7799 13.3084 13.3741C13.0992 13.6611 12.8098 14.0249 12.7397 14.3852C12.6878 14.6524 13.2013 14.3286 13.2452 14.2875C13.7898 13.7793 14.1453 13.0544 14.5263 12.4262C14.8459 11.8994 15.4835 11.3761 15.6179 10.7717C15.6423 10.6618 15.6598 10.7678 15.6121 10.8579C15.4078 11.2437 15.0596 11.5468 14.8078 11.9034C14.7361 12.005 14.1572 12.9672 14.1644 12.7307C14.1779 12.2855 14.3078 11.7471 14.5551 11.3864C15.0235 10.7032 14.2694 11.7224 14.1529 11.9034C13.4444 13.0044 12.6102 13.9487 11.8435 14.9942C11.5395 15.4088 11.6985 15.2009 11.9182 14.908C12.3097 14.386 12.7224 13.8774 13.1074 13.3511C13.3654 12.9984 13.5192 12.5848 13.8082 12.2596C14.2998 11.7066 12.7799 13.3254 12.3031 13.8912C11.7081 14.5972 11.095 15.4578 10.4016 16.0742C9.63398 16.7565 12.9822 12.878 12.3318 13.6728C11.736 14.4011 11.0143 15.094 10.4992 15.8789C10.416 16.0056 9.8655 16.8438 10.3039 16.4993C11.6439 15.4465 12.6223 14.0259 13.6934 12.7077C13.9551 12.3856 14.2005 12.0461 14.5091 11.7656C14.5981 11.6847 14.1955 12.6706 14.1529 12.7422C13.1379 14.4517 11.2946 15.4531 10.235 17.1427C10.0577 17.4254 9.19927 19.1324 9.98792 18.0676C11.0504 16.6333 12.2547 15.3136 13.3199 13.8797C13.5708 13.5419 13.4682 13.4729 13.1074 13.6728C12.3497 14.0928 11.6422 14.6716 11.022 15.2699C10.411 15.8593 9.72927 16.4793 9.22386 17.1657C9.09874 17.3356 8.70851 17.7663 8.66662 17.9757C8.66287 17.9945 9.17921 17.5453 9.21238 17.4989C9.71782 16.7913 10.1311 16.0211 10.6716 15.3388C10.8596 15.1014 11.5109 14.0944 11.4758 14.1439C11.128 14.635 10.6361 15.0493 10.3096 15.5572C10.0066 16.0285 10.9902 14.6659 11.3035 14.2014C11.3874 14.0769 12.1502 12.888 11.8435 13.2592C11.0968 14.1632 10.3185 15.0038 9.67196 15.9823C9.27939 16.5764 9.51622 16.4188 9.79834 15.9593C10.4446 14.9068 11.0914 13.8801 11.7976 12.8686C12.1351 12.385 12.132 12.3619 11.6769 12.8973C11.2119 13.4444 10.4358 14.2839 10.2464 14.9942C10.1436 15.3799 10.7209 14.374 10.7865 14.2359C11.079 13.6195 10.705 14.0845 10.4992 14.3737C10.3776 14.5447 9.6747 15.3567 9.79262 15.2297C10.3559 14.623 10.6918 13.8062 11.1484 13.1213C11.2416 12.9815 11.6197 12.7401 11.4529 12.7192C11.304 12.7006 11.1322 12.904 11.0565 12.995C10.8305 13.2661 10.6463 13.8126 10.3901 14.0175C10.2584 14.1229 10.5799 13.4974 10.6256 13.3741C10.7373 13.0725 10.6337 13.238 10.5682 13.4201C10.4169 13.8401 11.1316 12.5507 11.2633 12.3803C11.3262 12.2989 12.0442 11.473 11.832 11.6851C11.6941 11.8231 11.5661 11.8722 11.4758 12.0528" stroke="black" stroke-linecap="round"/>
<path d="M17.2661 6.12107C17.2661 6.44284 17.1366 6.73905 17.1047 7.05768C17.0666 7.43949 16.9952 7.81016 16.986 8.19593C16.9687 8.92349 16.9848 9.64669 16.9412 10.3739C16.8571 11.7754 16.4838 13.1494 16.1099 14.4968C15.9193 15.1837 15.7252 15.8602 15.4466 16.5178C15.3942 16.6418 15.3524 16.8769 15.2584 16.9794C15.1837 17.0609 15.1693 16.8045 15.1688 16.7912C15.149 16.3057 15.0778 15.8243 15.0478 15.3392C14.9766 14.1892 14.9563 13.0362 14.9671 11.8841C14.9707 11.5072 15.1623 11.316 15.2965 11.0058C15.5143 10.5022 15.6271 9.87037 15.655 9.32524C15.6569 9.28924 15.6924 9.024 15.6685 9.05861C15.4877 9.31968 15.5064 9.80056 15.4959 10.1005C15.4707 10.8265 15.5661 11.5837 15.7962 12.274C15.8563 12.4544 15.8144 12.1321 15.8141 12.0902C15.8102 11.4819 15.7434 10.8882 15.6797 10.2843C15.6468 9.97261 15.6931 9.64652 15.6438 9.33869C15.6068 9.10728 15.6427 9.82029 15.6438 9.84509C15.7235 11.6476 15.8393 13.4716 16.0158 15.2676C16.0178 15.288 16.065 15.7062 16.0516 15.5521C15.9971 14.9251 15.9601 14.2975 15.9127 13.6699C15.8493 12.8312 15.7665 11.9967 15.6797 11.1604C15.6681 11.0491 15.7038 10.3788 15.543 10.7929C15.2266 11.6078 15.2033 12.5624 15.0949 13.4212C15.0276 13.9544 14.9733 14.4919 14.9313 15.0278C14.9288 15.0596 14.9205 15.3715 14.929 15.1577C14.9524 14.5731 15.0658 13.9909 15.2136 13.4257C15.3383 12.9489 15.5114 12.4804 15.7155 12.032C15.7612 11.9316 15.8571 11.6215 15.8545 11.7317C15.8217 13.1068 15.3202 14.4592 14.8461 15.7336C14.7706 15.9366 14.7054 16.1432 14.6109 16.3386C14.5787 16.4051 14.5341 16.5974 14.5011 16.5313C14.4614 16.4519 14.5678 16.3667 14.6019 16.2848C14.7487 15.9326 14.907 15.5855 15.0702 15.2406C15.5988 14.1237 16.1621 13.0226 16.7283 11.9244C16.7668 11.8498 16.9531 11.3253 17.0644 11.2926C17.0857 11.2863 17.0885 11.3332 17.0868 11.3553C17.0708 11.5689 16.9789 11.7882 16.9009 11.9827C16.5503 12.856 16.0779 13.6759 15.552 14.4542C15.3045 14.8203 15.0686 15.2239 14.7789 15.5588C14.7614 15.579 14.6561 15.7545 14.6938 15.6462C14.7381 15.5189 14.8303 15.4024 14.8999 15.29C15.1165 14.9399 15.3196 14.5822 15.5251 14.2256C15.9488 13.4904 16.3352 12.7056 16.8291 12.0141C16.9776 11.8062 17.0461 11.6001 17.0353 12.0073C17.0085 13.0178 16.6766 14.0375 16.2197 14.9314C15.7022 15.9438 15.0656 17.0784 14.2053 17.8398C13.9378 18.0766 13.6316 18.2664 13.3046 18.409C13.2014 18.454 12.981 18.5622 12.8587 18.4964C12.3906 18.2443 12.7847 17.0638 12.89 16.7464C13.2089 15.7852 13.7078 14.8384 14.286 14.0083C14.3332 13.9405 14.8482 13.1329 14.9828 13.4235C15.2103 13.9144 14.6616 14.5802 14.3622 14.8978C13.5323 15.7782 12.3952 16.4247 11.3103 16.9346C11.0286 17.067 10.7406 17.1825 10.4499 17.2931C10.3437 17.3336 10.202 17.4126 10.0847 17.4163C10.0111 17.4187 10.0207 17.3739 10.0399 17.311C10.1371 16.9925 10.405 16.6753 10.5978 16.4193C11.4262 15.3191 12.355 14.2794 13.3628 13.3406C13.8351 12.9005 14.3994 12.2588 15.0164 12.0096C15.4613 11.83 14.3453 12.6984 13.9723 13C12.888 13.8766 11.7522 14.6907 10.6113 15.4916C10.3261 15.6918 9.91085 16.1019 9.54917 16.1773C9.50469 16.1865 9.58039 16.0905 9.60742 16.054C9.77923 15.8218 9.96713 15.6 10.1586 15.3841C10.6973 14.7768 11.2647 14.1672 11.8884 13.6453C12.009 13.5444 12.145 13.4165 12.2783 13.3316C12.5788 13.1404 11.8634 13.9143 11.6128 14.1674C11.3375 14.4456 11.0465 14.7054 10.7502 14.9606C10.6326 15.0618 10.6322 15.0769 10.7591 14.9673C11.2399 14.5521 11.6379 14.0238 12.0229 13.5221C12.2471 13.2298 12.489 12.9084 12.6503 12.5742C12.708 12.4546 12.2871 12.8449 12.2649 12.8633C11.9054 13.1605 11.4812 13.3544 11.0952 13.6117C10.6439 13.9125 11.003 13.5395 11.1669 13.3585C11.2414 13.2763 11.5947 12.9072 11.2879 13.1568C11.2122 13.2184 10.8451 13.7931 10.7412 13.4929C10.6377 13.1937 10.5554 12.8367 10.8331 12.6146C10.9275 12.539 10.9992 12.4416 11.0952 12.3815C11.2361 12.2935 11.3527 12.254 11.4672 12.1396C11.6061 12.0007 11.1792 12.4074 11.0235 12.5272C10.84 12.6683 10.6319 12.8593 10.5328 13.0739C10.4921 13.1623 10.4903 13.2256 10.4903 13.3226C10.4903 13.4482 10.4071 13.4892 10.3513 13.5848C10.1628 13.908 9.86799 14.188 9.67464 14.5102C9.56913 14.686 9.33357 14.8144 9.32062 15.0345C9.31744 15.0886 9.23045 15.1412 9.20858 15.1958C9.13681 15.3753 9.08808 15.5834 8.98003 15.7515C8.89485 15.884 8.77521 15.9896 8.6753 16.1145C8.63946 16.1593 8.56157 16.1525 8.55431 16.2131C8.54584 16.2837 8.53833 16.3036 8.47363 16.3252" stroke="black" stroke-linecap="round"/>
<path d="M10.1272 14.0666C9.94506 14.0868 9.8091 14.2972 9.66567 14.3802C9.4783 14.4887 9.23986 14.6089 9.08759 14.7612C9.01428 14.8345 9.02706 14.8335 8.93521 14.8822C8.88925 14.9065 8.86954 15.0597 8.82767 15.1062C8.77607 15.1635 8.71563 15.196 8.71563 15.2765C8.71563 15.3235 8.68664 15.4933 8.65512 15.5185C8.53672 15.6132 8.46194 15.9242 8.37504 16.0608C8.21996 16.3044 8.0171 16.4841 7.86641 16.7352C7.77994 16.8793 7.58632 17.2148 7.58632 17.394C7.58632 17.5646 7.35142 17.7155 7.30399 17.8578" stroke="black" stroke-linecap="round"/>
<path d="M8.87696 14.8329C8.7618 14.9352 8.57201 15.0292 8.43329 15.1062C8.23165 15.2182 8.25795 15.3699 8.18235 15.5588C8.06944 15.8411 8.01538 16.1381 7.78799 16.3655C7.61696 16.5365 7.41306 16.6554 7.23228 16.8181C7.09515 16.9415 7.01011 17.0947 6.86929 17.2214C6.74744 17.3311 6.71312 17.4731 6.64971 17.6158C6.5723 17.79 6.5047 17.9752 6.40771 18.1401C6.23011 18.442 5.81538 18.5811 5.69967 18.9154C5.63218 19.1104 5.64935 19.3061 5.57866 19.5024C5.50493 19.7073 5.45426 19.8509 5.28738 20.0178C5.04837 20.2568 4.82308 20.5 4.59277 20.7303C4.50655 20.8165 4.51508 20.9436 4.40007 20.9947C4.31586 21.0322 4.21493 21.0616 4.1267 21.0933C3.97951 21.1463 3.82831 21.1863 3.68304 21.2457C3.5593 21.2963 3.46222 21.3864 3.37383 21.4384C3.20109 21.54 3.08232 21.5684 2.86744 21.5684C2.71182 21.5684 2.58697 21.4671 2.49548 21.3757C2.38083 21.261 2.96823 21.171 3.0691 21.165C3.13293 21.1613 3.22423 21.088 3.27076 21.044C3.32904 20.989 3.44306 20.973 3.51275 20.932C3.68118 20.8329 3.88633 20.8771 4.04604 20.7707C4.1343 20.7118 4.23714 20.685 4.3194 20.6004C4.44725 20.4688 4.5278 20.268 4.6331 20.1164C4.79342 19.8855 4.92514 19.6313 5.08571 19.3994C5.32458 19.0543 5.49346 18.678 5.68173 18.3014C5.99415 17.6766 6.5935 17.2914 7.06201 16.8091C7.27544 16.5894 7.50119 16.3879 7.71628 16.1728C7.80832 16.0807 7.98239 16.03 8.03894 15.9129C8.11298 15.7595 8.26216 15.646 8.35264 15.5006C8.48016 15.2956 8.59719 15.0863 8.73355 14.8866C8.92967 14.5994 9.20887 14.3994 9.40127 14.1158C9.50205 13.9673 9.59576 13.8213 9.68361 13.6632C9.85089 13.3621 10.2874 13.0721 10.6023 12.9462C10.9276 12.8161 10.9871 12.246 11.1759 11.9961C11.316 11.8108 11.5481 11.6648 11.7316 11.5256C11.9408 11.3669 12.1029 11.1231 12.2649 10.9206" stroke="black" stroke-linecap="round"/>
<path d="M11.0952 13.4212C10.7536 13.8849 10.4127 14.3059 9.9973 14.7029C9.98911 14.7107 9.79608 14.8604 9.88079 14.8553C10.0708 14.8437 10.2631 14.5385 10.3737 14.4161C10.8377 13.9026 11.1845 13.2871 11.6195 12.749C11.7934 12.5341 11.3884 13.1064 11.3641 13.1434C10.8775 13.8857 10.317 14.5484 9.72841 15.2115C8.76639 16.2954 7.76448 17.3578 6.85586 18.4874C6.83923 18.5081 6.63064 18.7265 6.73039 18.698C7.07814 18.5987 7.41172 18.2047 7.65578 17.9631C8.08528 17.538 8.46578 17.0688 8.86799 16.6187C9.11532 16.3419 9.35311 16.0211 9.64999 15.7941C9.66618 15.7817 9.3142 16.154 9.26235 16.2041C8.64801 16.7985 8.05587 17.4099 7.42949 17.9922C7.1125 18.2869 6.81456 18.6027 6.51079 18.9109C6.48376 18.9383 6.31058 19.1088 6.46151 19.0409C6.82336 18.878 7.11504 18.5536 7.38467 18.2745C7.90271 17.7383 8.38919 17.1716 8.88144 16.612C9.07744 16.3891 9.27982 16.172 9.47523 15.9487C9.5373 15.8778 9.73052 15.6795 9.64776 15.7247C9.52218 15.7931 9.37319 15.975 9.27803 16.0652C9.0354 16.2954 8.79584 16.5284 8.55879 16.7643C8.00839 17.312 7.45092 17.8484 6.88275 18.3776C6.7605 18.4915 6.52759 18.8734 6.34275 18.9042C6.2158 18.9253 6.57963 18.7974 6.68109 18.7182C7.12306 18.3732 7.48713 17.953 7.86193 17.5396C8.21403 17.1512 8.53483 16.7377 8.94867 16.4125C9.1893 16.2235 9.26936 16.188 8.989 16.4372C8.10005 17.2273 7.15601 17.9416 6.28224 18.7496C6.25942 18.7707 5.98138 19.0212 6.18814 18.9109C7.46123 18.2319 8.64073 17.2513 9.7441 16.3341C11.3663 14.9857 12.9225 13.5613 14.5683 12.2404C14.9661 11.9211 15.3664 11.5996 15.7872 11.3105C15.9277 11.214 16.1452 11.0446 16.3295 11.0192C16.4005 11.0094 16.2686 11.1526 16.2174 11.2029C16.0118 11.4054 15.7928 11.5835 15.552 11.7429C14.5465 12.4084 13.5511 13.079 12.5629 13.7708C11.9321 14.2123 11.2769 14.6241 10.6561 15.0793C10.3585 15.2976 10.7766 15.1102 10.8869 15.0614C11.5675 14.7605 12.1453 14.2265 12.7601 13.8156C13.2867 13.4635 13.8206 13.087 14.389 12.8028C14.7065 12.6441 14.1867 13.1058 14.1515 13.1389C13.2273 14.0106 12.1993 14.7575 11.1983 15.5364C10.6835 15.937 10.1465 16.3463 9.72841 16.854C9.6293 16.9743 9.76744 16.9013 9.83374 16.8674C10.3041 16.6269 10.7538 16.3379 11.1938 16.0473C12.8024 14.9853 14.3688 13.8592 15.9754 12.7938C16.2983 12.5797 16.6251 12.3765 16.9614 12.1844C17.0775 12.118 17.3606 11.863 17.3109 11.9872C17.304 12.0045 17.2809 12.0095 17.2661 12.0208C17.1072 12.1421 17.0635 12.1789 16.8695 12.3188C16.3713 12.6779 15.8557 13.0069 15.3346 13.3316C13.6412 14.3867 11.9914 15.5286 10.4208 16.7598C10.4176 16.7623 9.40582 17.5604 9.51107 17.6248C9.61892 17.6906 9.98067 17.5584 10.0511 17.5351C10.5858 17.3585 11.0865 17.0959 11.5815 16.8315C12.6475 16.2621 15.7794 14.4341 14.7229 15.0211C14.0229 15.41 13.3757 15.923 12.722 16.3834C12.473 16.5588 12.2267 16.7383 11.9736 16.9077C11.9168 16.9457 11.8018 16.9964 11.7719 17.0691C11.7377 17.1521 12.9929 16.776 13.0558 16.7531C14.0207 16.4023 14.9727 16.0215 15.9665 15.756C16.0313 15.7387 16.1548 15.7069 16.0382 15.8008C15.8225 15.9744 15.5615 16.1073 15.3212 16.24C14.6195 16.6275 13.9057 16.9749 13.2418 17.4276C13.025 17.5754 12.8423 17.7182 13.2284 17.5799C14.7265 17.0433 16.1587 16.3087 17.6246 15.691C17.6348 15.6867 18.0624 15.4722 18.14 15.4961C18.1558 15.501 18.1139 15.5167 18.0996 15.5252C17.9491 15.6148 17.7932 15.6952 17.6403 15.7807C16.4334 16.4551 15.2434 17.1624 14.0686 17.8914C13.9925 17.9386 12.7031 18.8082 12.7533 18.8459C12.8649 18.9296 13.4417 18.6113 13.4614 18.6017C14.3491 18.1681 15.213 17.6739 16.074 17.1901C16.654 16.8642 17.2652 16.5576 17.8263 16.1997C17.9185 16.1408 17.6109 16.2406 17.5058 16.2714C16.9027 16.4483 16.306 16.6472 15.7155 16.8629C14.4083 17.3404 13.115 17.8747 11.8929 18.5434C11.6663 18.6674 11.0545 18.9737 11.6733 18.6106C13.1458 17.7468 14.6665 16.9666 16.1726 16.1638C16.5823 15.9455 16.9921 15.7287 17.3938 15.4961C17.5055 15.4314 17.847 15.2712 17.7187 15.2855C17.4208 15.3186 17.0774 15.4466 16.8 15.5297C16.021 15.7631 15.2502 16.0239 14.4831 16.2938C13.7711 16.5443 13.0602 16.8015 12.3612 17.087C12.1044 17.1919 11.7578 17.4234 11.4762 17.4746C11.2497 17.5158 11.8691 17.2348 12.0677 17.1184C12.6995 16.7478 13.3287 16.3735 13.9521 15.9891C14.3979 15.7141 14.8442 15.4397 15.2898 15.1645C15.3843 15.1061 15.4789 15.0478 15.5721 14.9875C15.6399 14.9436 15.8249 14.8835 15.7604 14.8351C15.676 14.7718 15.0444 15.0414 15.0389 15.0435C14.5037 15.2414 13.9802 15.4681 13.4592 15.7C12.6613 16.055 11.8583 16.4029 11.0683 16.7755C11.0397 16.7891 11.0096 16.8005 10.9832 16.8181C10.9369 16.849 10.9962 16.8562 11.0191 16.854C11.3694 16.8189 11.739 16.6671 12.0632 16.5492C13.372 16.0733 14.6476 15.4918 15.9396 14.9718C16.0587 14.9238 17.3092 14.362 16.5065 14.8687C15.8147 15.3054 15.0756 15.6663 14.3577 16.0563C13.1252 16.7258 11.911 17.4269 10.7278 18.1804C10.3701 18.4082 10.0149 18.6434 9.67016 18.8907C9.57858 18.9564 9.33418 19.1306 9.4461 19.1439C9.68254 19.1721 10.0275 19.0107 10.2214 18.9266C11.0843 18.5521 11.9113 18.0869 12.7533 17.6696C14.3759 16.8653 16.0179 16.0887 17.6829 15.3751C17.7551 15.3441 17.9742 15.2565 17.9002 15.2832C17.5234 15.4195 17.1483 15.5615 16.7731 15.7022C15.643 16.126 14.5138 16.547 13.4479 17.1184C13.2865 17.2049 12.4442 17.6821 13.1567 17.4455C14.305 17.064 15.3979 16.5298 16.5267 16.0966C16.9008 15.9531 17.278 15.8133 17.6582 15.6865C17.7137 15.6681 17.8064 15.6281 17.7187 15.6888C17.5945 15.7748 17.3776 15.899 17.2706 15.9599C16.2723 16.5287 15.2365 17.0278 14.2389 17.5978C14.0088 17.7293 13.767 17.8607 13.5465 18.0101C13.5087 18.0358 13.636 18.0449 13.681 18.037C14.7635 17.8467 15.8174 17.3429 16.856 16.9951C17.1374 16.9009 17.4293 16.7874 17.7187 16.715C17.9014 16.6693 17.4534 16.9859 17.2975 17.0915C16.7649 17.4517 16.1967 17.759 15.6752 18.1356C15.6347 18.1649 15.4653 18.2649 15.6259 18.2678C15.9113 18.2729 16.2137 18.193 16.4908 18.1401C16.8724 18.0673 17.2519 17.9765 17.6358 17.916C17.8652 17.8799 18.0117 17.8721 17.768 18.0684C17.078 18.6241 16.3297 19.1099 15.6349 19.6615C15.5301 19.7447 15.4241 19.829 15.3212 19.9147C15.3001 19.9323 15.3755 19.9379 15.4018 19.9304C16.2644 19.684 17.06 19.0896 17.8218 18.6353C17.9815 18.54 18.3239 18.402 18.4581 18.2477C18.5536 18.1379 18.165 18.2643 18.0257 18.3059C17.3221 18.516 16.6547 18.8311 16.0068 19.173C15.9634 19.196 15.9206 19.2201 15.8769 19.2425C15.8103 19.2767 15.8459 19.2501 15.8993 19.2112C16.2188 18.9778 16.5537 18.7663 16.8919 18.5613C17.4387 18.2299 17.9942 17.9109 18.5567 17.6068C18.728 17.5142 18.9519 17.4898 19.0766 17.3402C19.1386 17.2657 18.8836 17.3632 18.7898 17.3872C18.3997 17.4869 18.0184 17.6157 17.6425 17.7592C17.3126 17.8851 16.9894 18.0265 16.6656 18.167C16.5557 18.2146 16.3702 18.2965 16.5939 18.1491C17.0823 17.827 17.5882 17.5436 18.0593 17.1945C18.406 16.9376 17.7414 17.101 17.6111 17.1273C17.1779 17.2146 16.7648 17.4112 16.325 17.4634C16.2559 17.4716 16.4286 17.3699 16.4863 17.3312C16.604 17.2524 17.8549 16.4145 17.4834 16.2624C17.08 16.0972 16.3838 16.3516 15.9844 16.4327C15.7166 16.4871 15.4494 16.5475 15.1822 16.6052C15.0856 16.6261 14.9025 16.7595 14.891 16.6612C14.8888 16.6429 14.9149 16.6328 14.929 16.6209C15.0297 16.5371 15.2125 16.415 15.3033 16.3543C16.0172 15.8766 16.751 15.4285 17.47 14.9583C17.5237 14.9232 17.6574 14.8092 17.5932 14.8104C17.1225 14.8195 16.6262 15.0086 16.1771 15.1241C15.7184 15.2422 15.2594 15.3583 14.7969 15.4603C14.7079 15.4799 14.446 15.5493 14.528 15.5095C15.1259 15.2191 15.7151 14.9063 16.3205 14.6312C16.8153 14.4064 17.3171 14.1974 17.824 14.0016C17.9173 13.9655 18.1986 13.8681 18.0996 13.8828C17.8446 13.9208 17.5277 14.0765 17.3042 14.1584C16.3413 14.5111 15.3743 14.8505 14.4025 15.1779C13.4041 15.5143 12.4103 15.8684 11.4089 16.1952C11.363 16.2102 11.2629 16.2538 11.4246 16.2064C11.7566 16.1091 12.0828 15.9837 12.4083 15.868C12.9217 15.6855 13.4335 15.4979 13.9499 15.3236C14.1099 15.2695 14.6005 15.2012 14.4339 15.1734C14.31 15.1528 13.9755 15.2619 13.8782 15.281C13.3589 15.3827 12.8425 15.4982 12.3231 15.5992C11.8601 15.6892 11.3954 15.76 10.9294 15.8322C10.7457 15.8607 10.5287 15.877 10.3558 15.9577C9.90633 16.1674 11.329 15.7576 11.8033 15.6126C12.6136 15.3649 13.4219 15.0962 14.2187 14.8082C14.2665 14.7909 14.3137 14.772 14.3622 14.7567C14.3753 14.7525 14.3478 14.7822 14.3353 14.788C13.8609 15.0086 13.3473 15.1535 12.8519 15.3168C12.0003 15.5978 11.1553 15.898 10.3469 16.2893C9.79936 16.5543 10.9693 16.3888 11.0683 16.3744C11.8876 16.256 12.6724 15.9693 13.4569 15.7157C14.0512 15.5235 12.2234 15.9264 11.6218 16.0944C10.9281 16.2881 10.2361 16.5348 9.56709 16.8024C8.84561 17.091 11.0477 16.3283 11.7764 16.0585C12.4165 15.8215 13.0519 15.5706 13.6855 15.3168C13.7853 15.2769 13.8888 15.2445 13.9835 15.1936C14.167 15.095 13.5758 15.2815 13.3763 15.3415C12.0646 15.7358 10.6836 16.1447 9.45955 16.7733C9.05203 16.9825 10.3519 16.5585 10.7838 16.4058C11.5621 16.1307 12.3245 15.8211 13.0939 15.523C13.1394 15.5054 13.2726 15.4529 13.2239 15.4558C12.9564 15.4713 12.6713 15.5444 12.415 15.6059C10.9462 15.9581 9.54469 16.5241 8.17787 17.1587C8.07132 17.2081 7.2637 17.6004 7.85521 17.3828C8.44397 17.1662 9.01561 16.8877 9.58951 16.6344C10.0904 16.4133 9.29351 16.6946 9.2041 16.7329C8.60603 16.9893 8.01168 17.2721 7.43843 17.5799C7.3937 17.604 6.95241 17.7861 7.24574 17.7502C7.50949 17.7179 8.2529 17.4184 8.01205 17.5306C7.75995 17.6481 7.50338 17.7586 7.24351 17.8578C7.15843 17.8902 6.99765 17.9176 6.91412 17.9698C6.5946 18.1695 7.6561 17.8218 8.00982 17.692C9.07772 17.3001 10.0087 16.5999 11.0011 16.0563C11.4108 15.8318 11.8504 15.6158 12.2313 15.3437C12.3858 15.2333 12.1544 15.3743 12.117 15.4042C12.0778 15.4356 11.6719 15.693 11.6801 15.7381C11.7062 15.8821 12.5853 15.6783 12.6637 15.6641C12.7339 15.6515 12.804 15.6379 12.8743 15.6261C12.9306 15.6165 13.0241 15.5549 13.0446 15.6081C13.0504 15.6231 13.0205 15.6294 13.0065 15.6373C12.9174 15.6878 12.7097 15.7807 12.6413 15.812C12.1842 16.0212 11.718 16.2101 11.261 16.4193C11.1769 16.4578 11.2566 16.4459 11.3103 16.4417C11.5342 16.4241 11.7562 16.39 11.9781 16.3565C12.5556 16.2693 13.1332 16.1766 13.7123 16.1011C13.8424 16.0841 13.9655 16.0731 14.0933 16.1011C14.6302 16.2189 15.1697 16.2445 15.7178 16.2445C15.9439 16.2445 16.7783 16.1356 16.5222 16.5425C16.3973 16.7409 16.5422 16.7634 16.7462 16.7845C17.1017 16.8213 17.4574 16.7909 17.8128 16.8091C17.9774 16.8176 17.6419 17.2666 17.8173 17.3738C18.0578 17.5208 18.4865 17.417 18.7405 17.3559C18.9329 17.3095 19.2189 17.1748 19.3858 17.3514C19.5146 17.4877 19.5247 17.7346 19.5247 17.9116C19.5247 18.0232 19.4853 17.9482 19.4844 17.8757C19.4816 17.6547 19.4844 17.4335 19.4844 17.2125C19.4844 17.0281 19.5015 17.1837 19.5292 17.2887C19.618 17.625 19.8963 18.3495 19.4261 18.5188C18.9634 18.6853 18.7325 16.9634 18.7203 16.6881C18.7092 16.4392 18.7921 16.5528 18.8413 16.7374C18.9871 17.2843 19.0503 17.8628 19.0766 18.4269C19.084 18.5876 19.1256 18.8887 18.9959 19.0185C18.7867 19.2277 18.4705 18.8719 18.3954 18.7092C18.2182 18.3252 18.1713 17.8686 18.1713 17.45C18.1713 17.2846 18.1722 17.005 18.3058 16.8764C18.4206 16.7657 18.5415 17.2933 18.5478 17.32C18.6572 17.7911 18.7016 18.3114 18.6687 18.7944C18.6517 19.0453 18.2543 19.5058 17.9921 19.2022C17.875 19.0667 17.6974 18.2281 18.0212 18.4381C18.2921 18.6138 18.475 18.9758 18.5478 19.2806C18.5797 19.4146 18.6374 19.8217 18.6374 19.6839C18.6374 19.5958 18.6374 19.5077 18.6374 19.4195C18.6374 19.3478 18.6839 19.5623 18.6687 19.6324C18.6153 19.8795 18.5352 19.9102 18.597 19.601C18.6157 19.508 18.7249 19.3677 18.7181 19.2784C18.7087 19.1568 18.0816 19.0548 17.9966 19.0297C17.1388 18.7762 16.3892 18.4732 15.7178 17.8667C15.4497 17.6246 15.1488 18.4248 15.0702 18.5658C14.7698 19.105 14.515 19.6646 14.2748 20.2329C14.243 20.3081 14.092 20.6803 14.0933 20.6766C14.2684 20.173 14.6542 19.7243 14.9694 19.3075C15.3008 18.8692 15.7386 18.3925 15.9553 17.8779C16.0186 17.7276 15.7981 17.8485 15.7604 17.8667C15.3696 18.0555 15.0235 18.3187 14.6758 18.5748C14.3317 18.8284 13.9122 19.0304 13.6003 19.3232C13.4475 19.4667 13.9428 19.1636 13.9454 19.1618C14.2735 18.9411 14.6334 18.7489 14.9492 18.5121C15.0035 18.4713 14.546 18.6144 14.4966 18.633C14.2071 18.7425 13.9364 18.8681 13.6855 19.0498C13.4884 19.1925 14.1521 18.9106 14.3801 18.8257C14.9468 18.6148 15.51 18.3917 16.083 18.1984C16.1223 18.1851 16.3212 18.0923 16.3788 18.1132C16.5217 18.1652 16.1814 18.3478 16.0606 18.4404C15.6469 18.7572 15.1939 18.994 14.7498 19.2604C14.7347 19.2695 14.7125 19.275 14.7072 19.2918C14.6942 19.3336 14.7953 19.2864 14.8372 19.2739C15.07 19.2044 15.2962 19.1067 15.5183 19.0095C15.753 18.9068 16.4405 18.5667 16.2219 18.7003C15.8149 18.949 15.3378 19.1053 14.9111 19.3187C14.9073 19.3206 14.2067 19.5995 14.4966 19.536C15.1497 19.3932 15.7681 19.1325 16.3922 18.8997C16.4227 18.8883 16.9843 18.6955 16.8964 18.7182C16.4107 18.8435 15.8961 19.0915 15.4466 19.3097C15.2518 19.4044 14.6626 19.5961 14.8775 19.6234C15.2583 19.6719 15.7155 19.5058 16.0696 19.3904C16.3868 19.287 16.7455 19.1513 17.0151 18.9468C17.0362 18.9308 16.9698 18.9118 16.9434 18.9131C16.7548 18.9228 16.5691 18.9834 16.3922 19.0453C16.3662 19.0544 16.0908 19.1508 16.139 19.1462C16.4937 19.1124 16.8373 19.0138 17.1877 18.9535C17.2401 18.9445 17.6032 18.9078 17.5888 18.9109C17.4029 18.95 16.8667 19.053 17.051 19.0991C17.2696 19.1538 17.5475 19.0708 17.7725 19.0677C17.8724 19.0664 18.01 19.0613 17.8083 19.0677C17.5489 19.076 17.2932 19.1422 17.0465 19.2201C16.8566 19.2801 17.4439 19.2745 17.6425 19.2604C17.8316 19.2471 17.9369 19.2233 17.6739 19.3187C17.4607 19.3961 17.237 19.4529 17.0286 19.5428C16.825 19.6305 17.2894 19.5773 17.3154 19.5741C17.4412 19.5588 17.5599 19.5281 17.6829 19.5002C17.7231 19.491 17.4082 19.6267 17.3916 19.6324C17.2336 19.687 16.7272 19.7281 16.6208 19.8699C16.5739 19.9323 16.777 19.8615 16.8538 19.8475C17.0763 19.807 17.2927 19.745 17.5081 19.6772C17.5162 19.6746 17.8316 19.5983 17.8487 19.5607C17.9016 19.4442 17.5925 19.5672 17.4655 19.5831C17.1239 19.6258 16.7868 19.6927 16.455 19.7848C16.2822 19.8327 16.2034 19.8635 16.0471 19.9192C16.0164 19.9302 15.9413 19.9765 15.953 19.9461C15.9785 19.88 16.2972 19.7166 16.3071 19.7108C16.6515 19.5094 17.0083 19.3314 17.3602 19.1439C17.4939 19.0727 18.2491 18.8012 17.7814 18.7048C17.2725 18.5998 16.7386 18.6241 16.2219 18.6241C16.0295 18.6241 15.9279 18.6615 16.0471 18.4516C16.1481 18.274 16.4356 18.0336 16.083 17.9855C15.4725 17.9022 14.8342 18.0026 14.2255 18.0594C14.0725 18.0737 12.9163 18.2776 12.8855 17.9945C12.8637 17.7934 13.1475 17.487 13.2418 17.3559C13.4848 17.0182 13.7599 16.693 13.9543 16.3229C14.283 15.6973 13.3781 15.6596 12.9595 15.6821C11.8293 15.7426 10.6644 16.0875 9.59174 16.4282C9.40344 16.488 9.20955 16.5487 9.02485 16.6209C8.90254 16.6688 9.26841 16.5225 9.39008 16.473C10.744 15.9221 12.1575 15.355 13.5914 15.0524C14.0734 14.9507 13.7208 15.1833 13.4973 15.3437C12.7359 15.89 11.9057 16.3243 11.1087 16.8136C10.9067 16.9376 10.7263 17.0762 11.1132 16.966C11.947 16.7284 12.7543 16.1771 13.3897 15.5969C13.5546 15.4464 13.7786 15.2362 13.3875 15.3124C12.9547 15.3967 12.5526 15.6166 12.1618 15.812C11.9664 15.9097 11.9124 15.9413 11.9736 15.6843C12.0547 15.3436 12.2405 15.0411 12.4262 14.7522" stroke="black" stroke-linecap="round"/>
<path d="M11.5389 15.6395C11.3319 15.8568 11.1657 16.1144 11.0101 16.37C11.0006 16.3855 10.8079 16.6939 10.9025 16.6299C11.3251 16.344 11.6883 15.9418 12.0632 15.5992C12.3168 15.3674 12.7862 15.074 12.946 14.7544C12.9832 14.6801 12.7677 14.7153 12.7309 14.732C12.5602 14.8096 12.8338 14.5615 12.8654 14.5147C13.0057 14.3063 13.1522 14.086 13.1522 13.8245C13.1522 13.5891 12.3403 14.2715 12.2693 14.3309C11.8042 14.7205 11.478 15.2312 11.205 15.7672C11.0837 16.0054 11.043 16.1654 11.3507 15.9935C11.9738 15.6455 12.591 15.1335 13.0424 14.5819C13.2147 14.3712 12.6066 14.9081 12.3881 15.0704C11.793 15.5123 11.3144 16.0243 10.8443 16.594C10.7549 16.7023 10.6779 16.8287 10.5709 16.9212C10.5632 16.9278 10.4758 16.9784 10.4992 17.0018C10.6247 17.1274 11.1336 16.8897 11.2476 16.8517C11.456 16.7822 11.6552 16.7043 11.8795 16.7307C12.0569 16.7516 11.6816 17.0545 11.6464 17.0847C11.5124 17.1996 11.3847 17.3109 11.2991 17.4679C11.2468 17.5638 11.3005 17.5175 11.3462 17.4455C11.3611 17.422 11.5158 17.2509 11.4896 17.2214C11.4016 17.1225 11.0134 17.3608 10.9428 17.4096C10.5275 17.6972 11.2531 17.343 11.3999 17.2931C11.4747 17.2678 11.5738 17.1843 11.4672 17.2528C11.3403 17.3343 11.2316 17.4421 11.1154 17.5351C11.0598 17.5796 11.1146 17.6069 11.1535 17.618C11.2162 17.636 11.0268 17.8624 11.0056 17.8802C10.9772 17.904 10.5502 18.2634 10.5955 18.0729C10.6698 17.7609 10.9056 17.5655 11.0146 17.2931" stroke="black" stroke-linecap="round"/>
<path d="M18.5567 16.4865C18.3672 16.1286 18.1242 16.5399 18.0324 16.7912C18.0186 16.829 17.9313 17.0962 17.8867 17.0467C17.7735 16.9209 17.7667 16.7776 17.6694 16.6478" stroke="black" stroke-linecap="round"/>
<path d="M18.4271 3.26681C18.543 3.13642 18.635 2.97629 18.7104 2.82542C18.7592 2.72794 18.723 2.51676 18.7813 2.44398C19.0038 2.16582 19.3589 2.49557 19.3589 2.75186C19.3589 3.04584 19.648 3.35433 19.6995 3.63736C19.7295 3.80268 19.7512 3.95086 19.7512 4.12505C19.7512 4.31383 19.8984 4.38007 19.8984 4.59097C19.8984 4.79388 20.2142 5.20659 20.3888 5.31573C20.5135 5.39366 20.6588 5.53152 20.7702 5.63177C20.8814 5.73181 21.082 5.72983 21.1272 5.88788C21.1426 5.94175 21.2478 5.89878 21.2825 5.96417C21.3257 6.04588 21.3291 6.07623 21.3914 6.13855C21.5243 6.27143 21.462 6.49788 21.604 6.63988C21.873 6.90889 22.1112 7.27926 22.4704 7.48451C22.6179 7.56878 22.7119 7.74966 22.7456 7.90137C22.7567 7.95147 22.8917 8.25099 22.9145 8.2692C22.9887 8.32857 23.0165 8.68219 23.0617 8.78141C23.1013 8.86842 23.0813 8.96038 23.0861 9.05388C23.0914 9.15272 23.1762 9.23347 23.1842 9.33724C23.2 9.54122 23.404 9.73985 23.4676 9.93665C23.5457 10.1778 23.8291 10.316 23.9091 10.5252C24.0023 10.7693 24.2895 11.0679 24.492 11.2336C24.7133 11.4146 25.1198 11.668 25.2196 11.9474C25.4449 12.5785 25.5013 13.2617 26.0396 13.7511C26.1838 13.8822 26.3057 14.1013 26.4701 14.2143C26.5884 14.2957 26.5832 14.5096 26.6907 14.5957C26.7954 14.6794 26.7783 14.9616 26.819 15.0835C26.8503 15.1776 26.9956 15.1559 27.0097 15.2823C27.0227 15.4012 27.1625 15.3919 27.2057 15.4785" stroke="black" stroke-linecap="round"/>
<path d="M24.6556 11.8493C24.8878 12.1106 25.0699 12.3769 25.2059 12.6831C25.2916 12.8759 25.3836 13.1348 25.4429 13.3424C25.4463 13.3542 25.6722 13.5583 25.7099 13.5876C25.8063 13.6626 25.9078 13.7495 25.9796 13.8492C26.2318 14.1992 26.4861 14.5261 26.7371 14.7919C26.8924 14.9564 27.0859 15.2683 27.2821 15.3804C27.372 15.4318 27.424 15.5403 27.4619 15.6256C27.4851 15.6778 27.6109 15.8464 27.6472 15.8681C27.7423 15.9252 27.7674 15.9851 27.7971 16.0888C27.8118 16.1405 27.9213 16.1101 27.9604 16.1188C27.9983 16.1272 28.0206 16.1816 28.0503 16.2033C28.132 16.2626 28.1975 16.2873 28.2739 16.3722C28.3455 16.4517 28.4282 16.6207 28.5326 16.6555C28.7947 16.7429 29.0131 17.0024 29.2764 17.1078C29.3834 17.1506 29.4065 17.348 29.4891 17.4402C29.6131 17.579 29.6756 17.7546 29.7804 17.9061C29.9505 18.1518 30.2272 18.3488 30.4916 18.481C30.6091 18.5397 30.6811 18.5852 30.7695 18.6772C30.8611 18.7723 30.9434 18.9718 31.0556 19.0341C31.1701 19.0977 31.2678 19.3716 31.3853 19.4891C31.4798 19.5837 31.6945 19.7453 31.8158 19.7453" stroke="black" stroke-linecap="round"/>
<path d="M31.5705 19.8924C31.8899 20.2118 32.1234 20.5299 32.6004 20.5299" stroke="black" stroke-linecap="round"/>
</svg>
