<?xml version="1.0" encoding="UTF-8" standalone="no"?>
<!-- Created with Inkscape (http://www.inkscape.org/) -->

<svg
   width="210mm"
   height="297mm"
   viewBox="0 0 210 297"
   version="1.1"
   id="svg531"
   sodipodi:docname="mountain1.svg"
   inkscape:version="1.1.2 (0a00cf5339, 2022-02-04)"
   xmlns:inkscape="http://www.inkscape.org/namespaces/inkscape"
   xmlns:sodipodi="http://sodipodi.sourceforge.net/DTD/sodipodi-0.dtd"
   xmlns="http://www.w3.org/2000/svg"
   xmlns:svg="http://www.w3.org/2000/svg">
  <sodipodi:namedview
     id="namedview533"
     pagecolor="#ffffff"
     bordercolor="#666666"
     borderopacity="1.0"
     inkscape:pageshadow="2"
     inkscape:pageopacity="0.0"
     inkscape:pagecheckerboard="0"
     inkscape:document-units="mm"
     showgrid="false"
     inkscape:zoom="2.9576319"
     inkscape:cx="34.487051"
     inkscape:cy="-11.833792"
     inkscape:window-width="1920"
     inkscape:window-height="1012"
     inkscape:window-x="0"
     inkscape:window-y="0"
     inkscape:window-maximized="1"
     inkscape:current-layer="layer1" />
  <defs
     id="defs528" />
  <g
     inkscape:label="Layer 1"
     inkscape:groupmode="layer"
     id="layer1">
    <path
       d="m 20.553857,6.0818588 c -13.4189587,0 -26.837917,0 -40.256876,0 0.849671,-1.1532053 1.482219,-2.5192997 2.797199,-3.232219 1.00114,-0.8636151 2.287703,-1.5400308 2.794831,-2.83669143 1.020913,-1.84381507 2.224258,1.12398353 3.25775,0.17300915 0.654631,-0.83908163 1.2453914,-1.74996272 1.9388966,-2.54534252 1.092471,-0.6699044 2.2828314,-1.2394004 3.314559,-1.9716113 0.6927446,-1.4124709 1.9191677,-2.3588647 3.0221349,-3.3917719 1.3126462,-1.0716635 2.8323457,1.2347014 3.8331026,2.0795827 1.0709146,1.1513215 1.9820453,0.5105668 3.0212035,-0.2202136 1.6980681,0.1844267 2.4726984,2.0408044 4.0500519,2.5906198 0.9755217,0.8024216 2.0486805,2.9771727 3.5630765,1.7547751 1.051034,-1.0856834 1.754739,-0.2675419 2.469726,0.69431797 1.233003,0.73384447 1.198479,2.74030083 3.096441,2.59550093 0.46526,1.3349978 1.766933,2.1036066 2.418358,3.334739 0.222696,0.3277581 0.448736,0.653268 0.679617,0.9753172"
       style="fill:#2d2929;fill-opacity:1;fill-rule:nonzero;stroke:none;stroke-width:0.0129082"
       id="path35" />
    <path
       d="M 7.0461756,3.556236 C 7.3623892,3.1733933 8.8851716,1.959111 8.3308552,1.9323466 7.7905915,2.3408116 7.0359145,2.7972635 7.0461791,3.556236 Z"
       style="fill:#ffffff;fill-opacity:1;fill-rule:nonzero;stroke:none;stroke-width:0.0129082"
       id="path37" />
    <path
       d="M 9.8704946,-0.73084332 C 9.3272474,-0.90031365 8.8195854,-1.9474956 9.5965984,-1.0986795 c -0.041611,0.13253592 0.3277457,0.20057986 0.2738962,0.36783618 z M 8.5067415,-1.5800753 C 7.8439561,-1.3677147 7.1387884,-3.1464421 8.127685,-1.9382106 c 0.6898584,-0.1466289 1.5047436,1.8342867 0.4988767,0.477153 z M 7.7238568,-0.48468322 C 7.3304277,-0.34335046 7.2444986,-1.328158 6.9714417,-1.6276568 c 0.1256763,0.2847795 0.751123,0.76456496 1.0148318,0.92370876 0.1714997,0.67405298 0.3540953,1.43913997 -0.1864595,0.34623529 z M 5.7791051,-1.7726659 C 5.8793003,-2.5929837 5.9579375,-3.0608128 6.0306852,-1.9552425 6.2519869,-1.4382317 6.8527313,0.30333156 6.1869869,-1.02514 6.0507641,-1.2737023 5.8623887,-1.4974681 5.7791051,-1.7726659 Z M 5.2298599,2.7227521 C 5.2791238,3.6509859 5.0242348,3.6375708 4.9828206,2.6945494 5.779879,2.1213476 4.7740822,0.17907438 5.0760401,0.32862866 5.5330027,1.4727113 6.3226078,1.7611124 5.2298599,2.7227521 Z m 0.077575,-4.2008524 C 4.869775,-2.5467318 5.2553069,-2.2276872 5.5059487,-1.3877511 4.8356361,-0.82597255 6.253691,0.88312397 5.160901,-0.38271715 4.6433144,-0.81772797 5.1916623,-1.0553431 5.3074349,-1.4781003 Z m 5.5588001,0.3481349 C 9.3177003,-1.5486419 8.8426329,-3.3889103 7.308728,-3.8884527 7.4814288,-3.4852482 8.3476321,-2.1351278 7.4865494,-3.1561777 7.0420403,-3.7861316 5.8174557,-4.652346 6.3573887,-3.2908051 6.6505591,-2.7242775 7.0032498,-1.3593195 6.454201,-2.6247406 5.5616316,-3.6113792 6.2967212,-5.6533513 4.301106,-5.598796 2.8530242,-5.1213767 2.3281982,-3.4778214 0.90333872,-3.0328027 -0.40584547,-2.4626066 -1.199631,-1.2432038 -1.7886913,0.01142041 -2.5132795,0.24441343 -3.6511187,1.7257934 -2.2920916,0.85692907 -1.4316598,0.80424286 -0.94642628,-2.2039094 -0.4762279,-0.99643043 -0.33771788,-0.42472199 -0.21013047,-2.9061771 0.75857747,-2.758409 1.3774899,-3.0827298 2.2940649,-3.4336216 1.4179177,-2.5913837 0.86522498,-2.1269802 0.42821617,-1.9241604 1.3718461,-2.2770866 2.4384505,-3.095772 2.6017986,-4.8030721 4.12039,-5.1908962 4.0358219,-4.4309308 5.4064274,-3.6001916 5.1124958,-2.9248746 4.8825473,-3.526006 4.5803981,-3.7955584 4.344475,-3.6841445 3.6235861,-5.4167499 5.0810757,-1.5467341 4.1029587,-2.746546 3.7423866,-2.406564 3.3247498,-4.7067622 3.569747,-3.1911503 3.6358087,-2.0243776 4.4131755,-0.91440811 4.6238138,0.36738456 4.4879779,-0.35816943 3.4320192,-1.2127305 3.6547283,-0.11457625 3.640522,0.35660557 3.9277307,1.7783065 3.9918355,1.7791807 3.3496421,0.74361435 3.0368211,-0.4296061 2.5894818,-1.5365784 2.5615839,-0.15670834 2.971906,0.94999502 2.9335775,2.38793 3.1528466,2.8484042 4.2240772,4.6093259 3.1781009,3.2781888 2.3504178,3.1874695 2.0684941,0.82860582 2.2959528,2.6042711 2.4746381,3.8226127 3.3166641,4.4405095 3.48918,5.8456344 3.6397503,4.8077608 5.0219429,4.0152156 4.0167776,3.0006015 3.7374332,2.5096509 4.8241694,3.5869272 4.7683777,3.8637991 4.7062965,4.5812335 4.4656439,5.7241946 5.1052848,4.339245 5.4469842,3.1583398 6.2411901,4.1913626 6.7588248,3.7596691 6.2343578,3.0291131 6.8702076,2.0347697 6.1998989,1.384556 7.0234516,1.708674 6.7637419,3.7628415 7.6275487,2.4533571 7.0748428,1.9014565 6.4785425,-0.20958461 7.3312843,1.4200336 8.203823,2.4830858 8.586592,1.6858052 7.9520689,0.69997682 7.8989813,0.14189165 8.9586577,1.9356705 8.9092235,0.58820975 9.3376567,-0.14506895 10.548128,-0.40563587 10.866228,-1.1299661 Z"
       style="fill:#ffffff;fill-opacity:1;fill-rule:nonzero;stroke:none;stroke-width:0.0129082"
       id="path39" />
    <path
       d="m -6.3054446,2.5080882 c 1.8955829,-0.1568988 2.5518546,-2.12883489 4.3028269,-2.58500096 0.029239,-0.77280516 -2.2250825,0.90205524 -2.5896529,1.61275346 -0.5385227,0.3761562 -1.1368202,0.659698 -1.7131782,0.9722475 z"
       style="fill:#ffffff;fill-opacity:1;fill-rule:nonzero;stroke:none;stroke-width:0.0129082"
       id="path41" />
    <path
       d="M 0.46711232,-4.1087961 C -0.07371051,-4.8241109 -1.0773495,-4.8040434 -1.140865,-5.9061376 c 0.38274673,0.995945 1.28191268,0.7563545 1.60797732,1.7973415 z M 1.2520613,-5.6456492 c 0.1173258,0.8333845 0.3393484,1.34108 -0.2112062,0.3181258 -0.1393407,-0.7983791 -0.78931396,-1.2573502 -1.31673932,-1.8055401 -0.1080326,0.6297418 0.58939636,2.3895031 -0.10340439,1.0231313 0.17253445,-0.6746365 -1.02905549,-1.9581924 -0.36374466,-0.6444045 -0.18287024,-0.8392241 -2.18570983,-1.6587532 -1.12391943,-0.290435 0.5419406,1.3742343 -0.5918594,-1.3437543 -1.2268814,0.1013182 -1.503551,0.5538748 -1.8748545,2.1475632 -2.6062819,3.3776905 -0.7059485,0.8130173 -1.6442386,3.20325045 -1.7806701,3.35815313 1.0401446,-1.25583633 0.4376559,1.36174417 -0.5002558,1.41671387 -0.6722782,0.4416406 -2.3295301,1.282645 -0.7006032,0.6026402 1.2626223,-0.2267603 2.6096088,-1.71980323 1.9124391,-2.8673418 0.4397908,-0.7284247 0.8056378,-2.3483899 1.4151411,-2.4241985 0.031858,0.759065 -0.042722,1.5435014 0.2224055,0.3096381 0.00311,-1.5029001 0.9661564,-2.6693483 2.2293479,-3.4010104 1.1350217,-1.2472697 1.6351401,2.6582271 0.8817314,0.7974598 -0.493814,1.0737733 -1.166547,-0.8539787 -0.9085486,0.386228 0.3936857,0.5889764 0.7183011,2.435356 0.058317,0.8283172 -0.3615681,0.8599399 -0.8132805,-1.2562178 -0.6495983,0.086155 0.1626378,0.6760022 0.6020792,2.5090624 0.6622464,0.8930735 1.0447486,-0.5353589 1.4589949,1.4095049 1.1767947,1.8605005 -0.4285687,-1.1137142 -1.1959161,0.2290711 -0.6379991,0.86441554 -0.5821002,-0.24003374 -1.5172597,-2.34709874 -0.9736251,-0.78045924 0.1201823,0.93790634 -0.3440656,1.67915397 0.7896236,1.01704988 1.0088119,-0.24315669 1.54989841,-1.21417428 2.16391747,-1.96864658 0.67875986,-0.2509682 0.32067286,-0.6906342 0.0499603,-1.1791919 -0.52263316,-0.8779526 0.17080875,0.00395 0.4606225,0.3017431 0.0423518,-0.1561367 -0.18990354,-0.8195633 0.31934595,-0.055273 0.41855361,0.569291 0.98595758,-0.2068918 0.35984509,-0.5896027 C 0.55864025,-4.5782903 0.02491273,-5.3356778 0.83431996,-4.469726 1.1858896,-3.3202676 2.8900042,-4.5314842 2.3628195,-5.0299165 1.9925723,-5.2351605 1.622325,-5.4404047 1.2520778,-5.6456489"
       style="fill:#ffffff;fill-opacity:1;fill-rule:nonzero;stroke:none;stroke-width:0.0129082"
       id="path43" />
    <path
       d="m -12.429946,2.697581 c 1.697942,-1.1737116 2.5620197,-3.14561606 3.8721654,-4.6691124 0.7620408,-0.500041 1.9740907,-1.5369854 1.1762969,0.00905 -0.3363142,1.03030062 -0.1048722,0.7894863 0.2276965,0.089014 0.3849214,-0.7260026 0.8022423,-1.4336279 1.2207439,-2.1405837 -0.8150688,0.5189808 -1.8298689,0.7793939 -2.4167988,1.5912251 -0.8614331,0.7406056 -1.6673539,1.61622082 -2.3536329,2.53522107 -0.57549,0.86172822 -1.150981,1.72345633 -1.726471,2.58518593 z"
       style="fill:#ffffff;fill-opacity:1;fill-rule:nonzero;stroke:none;stroke-width:0.0129082"
       id="path45" />
    <path
       d="m -16.057712,2.2506981 c -0.692012,1.3325212 -2.078886,1.9542817 -2.91863,3.1643172 -0.784137,0.4938824 0.665069,-1.3370528 0.883778,-1.6328977 0.649562,-0.5095696 1.35236,-1.1588236 2.034859,-1.5314197 z"
       style="fill:#ffffff;fill-opacity:1;fill-rule:nonzero;stroke:none;stroke-width:0.0129082"
       id="path47" />
    <path
       d="m -11.40298,0.4629093 c -0.705752,1.4145404 -1.883583,2.4367965 -3.355823,2.9784113 -1.079662,0.5639852 0.719601,-0.7929073 1.006474,-1.064122 0.241753,-0.8064413 1.337758,-1.38702148 0.229286,-1.84087356 0.611778,-1.48985013 -0.556956,0.49037476 -0.89658,0.80410146 -1.079712,0.8544655 -1.334689,2.5458377 -2.608082,3.1250834 -0.136837,0.1110482 0.906371,-1.1139065 1.202501,-1.6107068 0.503797,-1.1856623 1.262164,-2.34711217 2.170864,-3.17084146 0.939169,-0.54934845 1.720714,2.21909586 1.214097,0.59856596 -0.280122,-0.65059627 0.81268,0.18302647 1.037337,0.18039239"
       style="fill:#ffffff;fill-opacity:1;fill-rule:nonzero;stroke:none;stroke-width:0.0129082"
       id="path49" />
    <path
       d="m -14.711268,5.3325364 c 1.199707,-0.4523729 2.690449,-0.780926 3.277919,-2.0549408 0.415975,-0.6158793 1.345503,-1.6533189 0.210055,-0.6753096 -0.837152,1.1984455 -1.952238,2.0071788 -3.291903,2.6055414 z"
       style="fill:#ffffff;fill-opacity:1;fill-rule:nonzero;stroke:none;stroke-width:0.0129082"
       id="path51" />
    <path
       d="m -8.1648881,-1.4475079 c -0.3097576,0.57250216 -2.0593929,2.6024655 -0.9524813,0.90103573 0.1868892,-0.42574725 0.4749819,-0.79383303 0.9524813,-0.90103573 z"
       style="fill:#ffffff;fill-opacity:1;fill-rule:nonzero;stroke:none;stroke-width:0.0129082"
       id="path53" />
    <path
       d="m -4.4576333,-2.844952 c 0.09444,1.2590872 -0.2867735,2.24223353 -1.2204849,3.01449365 -0.2776057,0.85744355 -0.4694637,1.35067675 -0.2244909,0.15989559 0.4715762,-1.11786555 1.471812,-1.74761154 1.4449758,-3.17438924 z"
       style="fill:#ffffff;fill-opacity:1;fill-rule:nonzero;stroke:none;stroke-width:0.0129082"
       id="path55" />
    <path
       d="M 1.0943234,-1.229617 C -0.47989943,-0.77979235 -0.17499053,1.0757128 -1.5577293,1.815287 -1.9264076,2.3176822 -0.5517588,1.0110106 -0.17317813,0.80760735 0.00612909,-0.08594814 0.32783884,-0.67285619 1.0943234,-1.229617 Z"
       style="fill:#ffffff;fill-opacity:1;fill-rule:nonzero;stroke:none;stroke-width:0.0129082"
       id="path57" />
    <path
       d="m 19.477311,4.5109283 c -0.213075,1.0518296 -2.660756,-2.4526333 -1.520594,-0.59636 0.794414,0.9788038 -0.226703,1.1291758 -0.563282,0.2181491 -0.354963,-0.4430173 -1.639658,-1.844323 -0.726897,-0.6042662 0.28892,0.5507839 0.09931,1.1038532 0.937623,1.7090482 0.611233,0.2644418 0.904978,0.914583 0.142151,0.2002387 C 16.612751,5.033612 15.946914,3.4078382 15.119166,2.9382225 15.225068,3.4908314 16.158301,4.9182624 15.230504,3.9266701 14.609375,3.238508 14.746717,1.4871099 14.194363,1.3229393 14.557043,1.8761077 14.515748,3.6852446 13.819807,2.5992199 13.216644,2.4493092 12.418876,1.4524017 13.255912,2.4772732 14.217425,2.9775433 14.327386,4.2689498 15.11741,4.9662658 15.062588,5.5838109 15.97912,6.1463701 14.946737,5.5588745 14.14974,5.0266979 13.376254,3.3735924 13.095013,3.1268441 13.90024,4.2120049 12.277832,5.051914 11.506021,4.5772435 12.490204,5.2093883 10.706784,6.455926 11.119201,4.9959551 10.725691,4.3203706 10.40102,3.3083782 11.13215,4.0820018 12.402686,3.6164185 9.8265625,3.2018454 10.430202,2.6779584 10.990692,3.1576223 12.199285,3.9888918 12.570907,4.0547829 12.067277,3.3743932 11.54306,2.7545365 12.357745,3.2394683 12.700451,2.1819293 10.21993,2.6146826 11.497832,1.883837 11.237401,1.1523988 11.192157,1.0667528 11.8395,1.7395305 12.542404,2.5130658 12.430163,2.2504761 12.017637,1.6027033 12.880251,1.2752951 11.793382,0.10951662 12.85909,1.0649143 14.075326,2.2962148 12.433674,0.1548374 12.351476,-0.50843664 11.973703,-1.3030954 13.724146,1.2733933 12.859836,-0.34648379 12.714622,-1.031933 13.142345,-2.0375982 12.172533,-1.1415851 11.087633,-1.05323 10.590056,0.7140845 10.147166,0.82853326 10.709362,0.23488959 10.75735,-0.59381452 9.9023126,0.24262023 8.8213784,0.98466826 9.208862,2.4756555 8.3891273,3.4305077 8.7889477,2.0659317 8.7857205,0.2977351 10.423403,-0.23427801 c 1.152201,-0.88146689 2.92284,-2.54475589 3.62727,-0.30965601 0.649325,0.67254519 0.359514,1.70814682 1.101078,2.24215792 -0.31574,-0.484996 -0.55715,-1.80689685 -0.516332,-1.91816189 C 15.45149,0.9332605 15.9051,2.3508775 17.12477,3.2109065 17.799465,4.1250429 16.603522,1.9818074 16.225747,1.7046764 c 1.194534,-0.76912698 1.808695,1.5859166 2.844807,2.260734 0.149362,0.1710605 0.284842,0.3540471 0.406771,0.5455141"
       style="fill:#ffffff;fill-opacity:1;fill-rule:nonzero;stroke:none;stroke-width:0.0129082"
       id="path59" />
    <path
       d="M 9.6600917,2.6343307 C 10.174979,3.5168119 8.3482183,4.7275408 8.4127753,4.4428857 8.882228,3.8552078 9.7504981,3.7214164 9.6600933,2.6343307 Z"
       style="fill:#ffffff;fill-opacity:1;fill-rule:nonzero;stroke:none;stroke-width:0.0129082"
       id="path61" />
    <path
       d="m -19.327974,5.8882357 c 13.1689919,0 26.3379836,0 39.506976,0 C 19.502211,4.6853995 18.49832,3.751059 17.695824,2.6502077 17.086556,1.4187835 15.017432,1.7060546 14.994348,-0.12520496 13.796965,-0.56295036 13.309734,-2.8429837 11.95325,-1.3319835 10.53994,-0.19300129 9.2413814,-1.945001 8.4524982,-2.9541361 6.7684329,-3.459913 5.8552684,-5.7247249 4.0620444,-5.5739953 2.9203949,-3.9818511 1.263095,-5.1391004 0.30458063,-6.3053891 -0.53712601,-7.4339557 -2.2816192,-8.6248311 -3.0939941,-6.9046414 c -1.2290255,0.6095486 -1.7204075,2.0031915 -2.6137755,2.9179283 -1.0590188,0.6383989 -2.1814859,1.205471 -3.201674,1.8875222 -0.7024453,0.9069834 -1.3436104,1.87536932 -2.0842104,2.74412115 -1.224493,0.12051751 -2.071336,-1.99111445 -3.028494,-0.41432197 -0.649737,1.48303422 -2.21331,2.22543732 -3.392078,3.22989342 -0.893697,0.5843971 -1.267685,1.621932 -1.913748,2.427734 z m 39.881831,0.3872464 c -13.4189587,0 -26.837917,0 -40.256876,0 -0.191724,-0.8661851 1.206062,-2.2068877 1.868744,-2.9810355 1.138211,-0.9471882 2.528471,-1.6752336 3.342596,-2.94590381 0.457386,-1.35743079 1.908287,-1.33410385 2.69086,-0.33454827 0.774005,0.63079467 1.047815,-0.41971051 1.488844,-0.87877245 0.5996474,-0.70475157 0.9842586,-1.65461157 1.8989838,-2.00760357 0.8727282,-0.5037434 1.7454564,-1.0074865 2.6181843,-1.5112298 0.7131092,-1.3219251 1.749167,-2.3936059 2.9330437,-3.2787132 1.0666437,-1.6186602 3.07714647,0.6228779 3.9133297,1.5891054 0.9166499,1.0021164 1.9983631,1.1587399 2.9245622,0.1093481 1.8604535,-0.3802218 2.6520275,1.910061 4.2656187,2.4110422 1.1601246,0.5568368 1.8270436,2.94026611 3.4034936,1.9470716 0.908204,-0.7195357 1.845734,-1.0731997 2.430959,0.1791695 0.991243,0.69746998 1.414072,1.67323361 2.064834,2.5951735 1.783518,0.052575 1.999352,1.9549741 3.251824,2.88434 0.248141,0.6709817 1.627872,1.6677962 1.160986,2.2225559 z"
       style="fill:#2d2929;fill-opacity:1;fill-rule:nonzero;stroke:none;stroke-width:0.0129082"
       id="path63" />
    <path
       d="M 4.9355517,6.21391 C 4.4066966,5.3557725 6.5199093,4.541758 6.6713346,3.4896296 7.2932174,2.2058038 8.6590254,1.5409559 9.0475951,0.07914792 9.8204254,0.01368312 10.853614,-1.8534069 11.285633,-0.99378319 10.047464,-0.20057096 8.9403273,0.62491745 8.4489355,2.0353087 7.0675917,2.808239 6.8386813,4.486154 5.6382871,5.4539873 5.4052396,5.7083955 5.1709562,5.9616712 4.9355629,6.2139106 Z"
       style="fill:#2d2929;fill-opacity:1;fill-rule:nonzero;stroke:none;stroke-width:0.0129082"
       id="path65" />
    <path
       d="m -7.3292728,6.203325 c -0.6566294,-0.3082699 0.2934334,-0.7878886 0.4580555,-1.1837424 1.24754,-1.46134 2.3232447,-3.0832246 3.7327796,-4.39374682 1.2192069,-0.81288124 1.6888373,-2.28982568 2.62944869,-3.36433768 1.1901416,-0.5492281 2.37128441,-1.3788112 3.16865721,-2.1889913 0.1443164,0.9315847 -1.4239361,1.7430753 -2.30510441,2.1150625 -1.39790039,0.7544743 -1.69482699,2.58899131 -2.94166229,3.5122051 -1.4540428,1.1256137 -2.4170371,2.7393393 -3.6190299,4.112222 -0.37438,0.4637761 -0.7487605,0.9275521 -1.1231403,1.391328 z"
       style="fill:#2d2929;fill-opacity:1;fill-rule:nonzero;stroke:none;stroke-width:0.0129082"
       id="path67" />
    <path
       d="m -13.259853,6.2082306 c -0.646225,-0.329657 0.318958,-0.777919 0.496501,-1.1682081 1.479229,-1.7658386 3.047737,-3.4528865 4.5485402,-5.19782122 0.8702745,-1.38531578 1.4998862,-2.92621468 2.4485434,-4.27202488 0.5685724,0.7849736 -1.1430744,2.0910828 -1.3584652,3.1199095 -0.8976228,2.048298 -2.7491066,3.4254914 -4.1007534,5.1601079 -0.678123,0.7860123 -1.356245,1.5720245 -2.034366,2.3580368 z"
       style="fill:#2d2929;fill-opacity:1;fill-rule:nonzero;stroke:none;stroke-width:0.0129082"
       id="path69" />
    <path
       d="m -16.319902,6.2291417 c -0.484816,-0.8367919 1.553325,-1.4753962 2.011703,-2.2470396 1.261364,-0.9895004 2.302639,-2.2202331 3.082942,-3.62026336 0.743937,0.62735877 -1.036396,1.88005476 -1.38276,2.59681886 -1.190666,1.1406694 -2.466302,2.1908509 -3.711887,3.2704841 z"
       style="fill:#2d2929;fill-opacity:1;fill-rule:nonzero;stroke:none;stroke-width:0.0129082"
       id="path71" />
  </g>
</svg>
