<?xml version="1.0" encoding="UTF-8" standalone="no"?>
<!-- Created with Inkscape (http://www.inkscape.org/) -->

<svg
   width="210mm"
   height="297mm"
   viewBox="0 0 210 297"
   version="1.1"
   id="svg531"
   sodipodi:docname="mountain2.svg"
   inkscape:version="1.2.1 (9c6d41e, 2022-07-14)"
   xmlns:inkscape="http://www.inkscape.org/namespaces/inkscape"
   xmlns:sodipodi="http://sodipodi.sourceforge.net/DTD/sodipodi-0.dtd"
   xmlns="http://www.w3.org/2000/svg"
   xmlns:svg="http://www.w3.org/2000/svg">
  <sodipodi:namedview
     id="namedview533"
     pagecolor="#ffffff"
     bordercolor="#666666"
     borderopacity="1.0"
     inkscape:pageshadow="2"
     inkscape:pageopacity="0.0"
     inkscape:pagecheckerboard="0"
     inkscape:document-units="mm"
     showgrid="false"
     inkscape:zoom="5.5279801"
     inkscape:cx="23.878523"
     inkscape:cy="41.063823"
     inkscape:window-width="1539"
     inkscape:window-height="796"
     inkscape:window-x="0"
     inkscape:window-y="44"
     inkscape:window-maximized="0"
     inkscape:current-layer="layer1"
     inkscape:showpageshadow="2"
     inkscape:deskcolor="#d1d1d1" />
  <defs
     id="defs528" />
  <g
     inkscape:label="Layer 1"
     inkscape:groupmode="layer"
     id="layer1">
    <path
       d="m 41.075927,20.016323 c -13.656053,0 -27.312104,0 -40.96815645,0 1.15499695,-1.342889 2.48858195,-2.552306 3.26935795,-4.169545 1.200191,-0.904812 2.500988,-1.817449 3.816838,-2.618079 1.49207,-0.731098 2.160652,-2.636204 4.0830915,-2.507325 1.248834,-0.304508 1.477466,-2.1023867 3.050392,-2.047369 1.480214,-1.0083308 -0.02243,-3.576813 2.207577,-3.542686 1.53758,-0.656908 2.011342,-2.444437 3.23246,-3.4873531 0.631444,-1.04351504 2.868834,-2.15999604 2.804257,-0.08727 0.407558,1.4735451 2.365584,1.7583601 2.427266,3.5092431 0.736691,0.9684167 2.555132,1.0392741 2.62773,2.6994687 0.393083,1.4613731 2.101054,1.8872242 2.569265,3.2951073 0.793125,1.000953 1.857791,1.105393 2.808909,0.238613 1.630109,0.152291 2.21651,2.171526 3.048322,3.342597 0.85784,1.554673 3.186825,1.483269 3.924482,3.148632 0.40657,0.721111 0.759276,1.471221 1.098209,2.225966 z"
       style="fill:#2d2929;fill-opacity:1;fill-rule:nonzero;stroke:none;stroke-width:0.0150568"
       id="path101" />
    <path
       d="m 29.729092,16.148221 c -0.578863,-0.648902 -3.18952,-1.293628 -1.086915,-0.943123 0.840939,-0.120273 2.394097,2.320001 1.086915,0.943123 z m -1.87292,-4.169239 c -0.610597,-0.899001 -0.85091,-1.185198 -0.803047,-0.02916 -0.154936,0.377526 -0.731951,-1.423694 -1.071497,-1.806689 -0.289141,-0.6454048 -1.702488,-2.2656143 -0.432315,-1.0294686 0.589607,0.47749 1.318416,2.2267246 1.085709,0.6373512 -0.14669,-1.0580845 0.177487,-0.2691527 0.433527,0.2525084 0.327407,1.143627 2.14219,2.863886 2.235883,3.123424 -0.486383,-0.377463 -1.022724,-0.696823 -1.44826,-1.147966 z M 23.760561,3.89647 C 23.017382,3.183804 23.300591,3.025075 23.950277,3.774509 24.34379,4.531548 24.556714,5.265412 23.760561,3.89647 Z m 15.105172,14.419936 c -0.75192,-0.410289 -2.819533,-1.704084 -0.905066,-0.82361 -0.372183,-0.731252 -1.903071,-1.338666 -2.012173,-1.529845 1.403557,-0.06611 3.436895,1.762023 3.6772,2.150681 -0.694703,-1.365896 -0.09655,-1.08187 0.432214,-0.03057 0.354846,0.540622 0.810114,1.423898 0.270046,0.358997 -0.509392,-1.76912 -2.381942,-2.161468 -3.705821,-3.110141 -1.187209,-1.205149 -1.57482,-3.184717 -3.170026,-4.018615 -0.82516,-0.445446 -2.514979,1.570956 -1.043198,0.891155 1.523868,-0.808075 2.343187,1.360713 2.61957,2.489083 0.139383,0.791516 0.143566,1.235903 -0.169898,0.206091 -0.678384,-0.625929 0.170189,2.53853 -0.005,2.084314 -0.62905,-0.546938 -0.551511,-2.926836 -0.946361,-1.067366 -0.367196,1.622365 1.946289,2.879161 1.943979,3.913038 -0.32941,-0.663868 -2.076547,-1.872212 -1.982297,-1.603578 0.41764,0.588303 1.352093,1.395926 0.200516,0.592922 -1.431657,-0.969578 -1.881212,-2.630615 -2.553083,-4.110176 -0.350345,-0.746647 -1.815368,-3.026662 -0.428152,-1.341906 1.113792,1.466585 -0.08212,-1.083871 -0.801936,-1.321084 -0.424731,-0.555501 -1.13507,-1.395716 -0.151661,-0.439283 1.57298,1.103901 -0.604185,-0.457261 -0.435611,-1.365091 C 28.510906,9.1915434 27.528963,8.0718836 27.063569,6.4796108 25.888358,5.7248823 24.611074,5.313593 24.433829,3.653053 23.368125,2.803979 22.364094,1.9277989 22.221898,0.43490386 20.532268,0.06406986 19.511334,2.1319529 18.440975,3.175249 18.003684,4.73688 16.164398,5.088091 15.24177,5.779847 15.450599,7.4834698 14.510675,8.9694716 12.775086,9.3018769 12.130644,9.8255706 11.682139,11.383151 12.736656,10.079634 14.10875,9.4462735 15.783971,8.6838705 15.841901,6.8450388 15.422301,5.8018451 17.769724,5.299331 17.601828,5.320351 17.529808,7.1196966 18.110484,4.134388 18.754372,3.728494 19.567298,2.987237 20.85693,1.0404699 21.528762,1.2617129 20.982917,2.1814149 20.356744,4.144931 21.186264,2.840681 20.688011,4.047805 22.062616,5.26027 20.592603,5.9637757 20.294553,6.5133308 19.509777,8.1041157 20.343601,6.7649875 20.808145,6.1100001 22.553892,5.27628 22.498203,5.054651 22.310108,5.8725643 21.052775,7.910601 21.274018,7.8661139 22.223257,6.845912 22.927737,5.6047815 23.281905,4.254824 c 0.0374,2.0109163 -1.140715,3.7138088 -2.399318,5.1659628 -0.575722,0.7994152 -1.974646,2.5634992 -1.989371,2.8313242 1.555297,-1.408636 3.128904,-2.9033004 4.075507,-4.8052366 0.08129,1.164937 -1.310873,3.3806326 -1.203712,3.6762696 0.692011,-0.385925 1.715916,-2.3341226 1.06852,-0.599686 -0.303093,0.450051 -1.005433,2.994583 -0.2583,1.698032 0.839669,-1.918894 -0.58671,1.347499 0.606549,1.495062 1.580446,-0.141926 3.236017,-0.0082 4.747237,0.711547 1.23184,0.462852 -1.283609,-0.197909 -1.792616,-0.18005 -0.748106,-0.303407 -2.823909,1.177871 -2.396166,1.082494 0.65731,-0.05662 2.801982,-0.940318 1.264326,-0.02811 -1.619068,1.093605 -3.650312,0.916152 -5.404204,1.645311 0.304907,0.0047 1.993073,-0.145049 1.111592,-0.0089 -0.826683,0.05424 -3.066336,0.954613 -2.707537,1.064546 2.210993,-0.807889 4.627232,-0.66476 6.870225,-1.240053 0.419421,-0.721339 3.311091,-0.948247 1.441467,-0.486265 -1.047962,1.190372 -2.56667,1.135611 -3.957996,1.608987 -0.977239,0.473489 -0.651058,0.634154 0.256013,0.270828 0.730836,-0.295599 3.103227,-0.404334 2.747958,-0.179631 -1.383208,0.239625 -2.836908,0.577372 -3.906719,1.548258 1.053085,-0.452044 3.996539,-1.156189 4.116914,-0.820757 -0.902998,0.02537 -2.525974,1.585649 -0.82704,1.31161 2.389586,0 4.779173,0 7.168758,0 -0.671213,-1.507506 -2.359349,-1.814715 -3.56881,-2.699315 -1.470353,-1.178205 1.112645,0.548221 1.777228,0.546749 1.241366,0.370898 2.189097,1.310547 3.13149,2.152566 -0.357889,-0.911765 -2.113325,-2.37557 -2.137349,-2.367448 1.615037,0.202957 2.499096,2.054998 3.894541,2.367448 1.687852,0 3.375704,0 5.063556,0 -0.365479,-0.589814 -0.717543,-1.203787 -1.208913,-1.699917 z"
       style="fill:#ffffff;fill-opacity:1;fill-rule:nonzero;stroke:none;stroke-width:0.0150568"
       id="path103" />
    <path
       d="m 18.291916,12.978756 c -0.810719,1.309876 -2.137103,1.951323 -3.420771,2.629782 -1.957603,0.656584 -2.885491,2.771066 -4.821821,3.433008 0.296833,-0.343739 2.842997,-2.821754 2.683554,-3.046309 -1.134009,0.982006 -2.472067,1.6948 -3.7034585,2.532011 -0.655897,0.135009 -2.733536,0.840411 -2.492166,0.657984 1.503481,-0.7909 3.082242,-1.435926 4.3308735,-2.627697 0.6756,-0.634102 1.288312,-1.83409 0.178296,-0.679538 -1.3824285,0.204648 -0.398122,-1.856066 -0.321674,-1.939556 -0.291209,0.588244 -1.2205105,1.396929 -0.475444,0.345767 0.25405,-0.525597 1.26077,-2.471416 0.356095,-1.132298 -0.501272,-0.765115 0.316142,-1.687223 0.363647,-1.701941 -2.0360335,0.01663 -2.6573225,2.401918 -4.5876675,2.842949 -1.29792,1.169346 -2.841788,1.894003 -3.84964,3.354708 -0.788326,0.270011 0.761084,-1.309472 0.845389,-1.800848 1.200191,-0.904812 2.500988,-1.817449 3.816838,-2.618079 1.517788,-0.665301 2.209789,-2.928993 4.2060955,-2.289124 1.091475,0.997055 0.924667,3.361867 2.495257,3.949894 -0.823038,-0.590856 -1.217527,-2.25384 0.156591,-1.148837 0.692103,0.438345 -0.0459,1.771261 1.092431,1.009561 1.19099,-0.316995 2.226351,-0.96792 3.147575,-1.771437 z"
       style="fill:#ffffff;fill-opacity:1;fill-rule:nonzero;stroke:none;stroke-width:0.0150568"
       id="path105" />
    <path
       d="m 0.60946455,19.79047 c 13.37243145,0 26.74486245,0 40.11729345,0 C 40.085633,18.46684 39.559494,16.859989 37.984553,16.400977 36.363889,15.856774 35.589785,14.390899 34.804916,13.001659 34.233965,11.653195 32.90012,11.12213 31.826962,12.200618 30.005903,12.250004 29.772988,9.9701686 28.353688,9.3170315 27.131635,8.3403515 27.404509,5.8611224 25.34183,5.8830693 24.429664,4.687627 24.144055,3.109401 22.646204,2.386871 22.320431,1.3575139 22.076486,-0.28520014 20.768767,1.0415239 19.525951,1.9688789 18.640276,3.357078 17.7389,4.63054 c -0.83232,0.9718304 -2.996433,0.653929 -2.269991,2.4113034 -0.06423,2.0979555 -2.532439,1.7245835 -3.131032,3.3390246 -1.237021,0.995488 -3.2993475,0.574613 -4.0440065,2.401602 -1.395814,0.785499 -2.630742,1.850216 -4.029358,2.638054 -1.284892,0.876065 -1.687185,2.658479 -2.988093,3.621112 -0.22281,0.249173 -0.44504695,0.498858 -0.66695495,0.748834 z M 41.075927,20.242176 c -13.656053,0 -27.312104,0 -40.96815645,0 -0.349609,-0.953121 1.61858195,-1.990738 2.13805195,-2.953032 0.56531,-1.717459 2.123004,-2.332716 3.408975,-3.364058 1.574496,-0.769885 2.766642,-2.009853 4.05472,-3.095242 1.5338545,0.02413 2.4025465,-0.800091 3.2304695,-1.8889445 1.528394,-0.1852126 2.242757,-1.633917 2.041674,-3.0367493 0.378948,-1.3432792 2.803657,-0.8207392 3.104918,-2.5939182 1.030964,-1.2264691 1.914685,-2.70285514 3.531524,-3.21388314 1.611987,-0.04987 0.815965,2.72893514 2.606736,2.95258914 0.823684,1.156105 0.958486,2.7516634 2.670344,2.9533106 1.057381,1.135108 1.063309,3.0086668 2.691366,3.6584342 0.538061,1.0787022 1.815221,2.9363462 3.057528,1.5284922 1.872607,-0.530949 2.665949,2.014146 3.530698,3.208086 0.840143,1.673458 3.356031,1.556165 4.054036,3.378824 0.127941,0.656171 1.43713,1.956707 0.847116,2.466091 z"
       style="fill:#2d2929;fill-opacity:1;fill-rule:nonzero;stroke:none;stroke-width:0.0150568"
       id="path107" />
    <path
       d="m 25.390163,5.299466 c 0.301409,0.7176453 1.798538,2.7134472 0.50765,1.3946261 C 25.711819,6.3045418 24.438531,5.4587192 25.390163,5.299466 Z"
       style="fill:#2d2929;fill-opacity:1;fill-rule:nonzero;stroke:none;stroke-width:0.0150568"
       id="path109" />
    <path
       d="M 23.299972,2.974238 C 22.331519,2.829995 21.463912,0.55202386 22.636417,2.1077169 22.962354,2.455541 23.693177,2.37419 23.299972,2.974238 Z"
       style="fill:#2d2929;fill-opacity:1;fill-rule:nonzero;stroke:none;stroke-width:0.0150568"
       id="path111" />
    <path
       d="m 36.889222,15.780984 c -0.746884,-0.177371 -2.741414,-2.27824 -1.142739,-1.091733 0.301834,0.415339 1.74995,0.386366 1.142739,1.091733 z"
       style="fill:#2d2929;fill-opacity:1;fill-rule:nonzero;stroke:none;stroke-width:0.0150568"
       id="path113" />
    <path
       d="m 27.890953,7.8226913 c 0.349604,1.4541158 0.624092,2.8774697 1.327562,4.2342847 -1.125765,-1.127774 -1.54918,-2.5134565 -1.734548,-4.0385458 0.135662,-0.065246 0.271324,-0.1304932 0.406986,-0.1957389 z"
       style="fill:#2d2929;fill-opacity:1;fill-rule:nonzero;stroke:none;stroke-width:0.0150568"
       id="path115" />
    <path
       d="m 13.340023,18.037101 c 1.048986,-0.675718 2.575115,-1.766742 3.208007,-2.403222 -1.299804,0.37698 -2.607417,1.139677 -3.208007,2.403222 z"
       style="fill:#ffffff;fill-opacity:1;fill-rule:nonzero;stroke:none;stroke-width:0.0150568"
       id="path117" />
  </g>
</svg>
