<?xml version="1.0" encoding="UTF-8" standalone="no"?>
<!-- Created with Inkscape (http://www.inkscape.org/) -->

<svg
   width="210mm"
   height="297mm"
   viewBox="0 0 210 297"
   version="1.1"
   id="svg531"
   sodipodi:docname="mountain3.svg"
   inkscape:version="1.1.2 (0a00cf5339, 2022-02-04)"
   xmlns:inkscape="http://www.inkscape.org/namespaces/inkscape"
   xmlns:sodipodi="http://sodipodi.sourceforge.net/DTD/sodipodi-0.dtd"
   xmlns="http://www.w3.org/2000/svg"
   xmlns:svg="http://www.w3.org/2000/svg">
  <sodipodi:namedview
     id="namedview533"
     pagecolor="#ffffff"
     bordercolor="#666666"
     borderopacity="1.0"
     inkscape:pageshadow="2"
     inkscape:pageopacity="0.0"
     inkscape:pagecheckerboard="0"
     inkscape:document-units="mm"
     showgrid="false"
     inkscape:zoom="2.9576319"
     inkscape:cx="34.487051"
     inkscape:cy="-11.833792"
     inkscape:window-width="1920"
     inkscape:window-height="1012"
     inkscape:window-x="0"
     inkscape:window-y="0"
     inkscape:window-maximized="1"
     inkscape:current-layer="layer1" />
  <defs
     id="defs528" />
  <g
     inkscape:label="Layer 1"
     inkscape:groupmode="layer"
     id="layer1">
    <path
       d="m 19.394533,6.3306628 c -13.0872597,0 -26.1745187,0 -39.261779,0 1.064006,-1.045551 2.117442,-2.07434 3.044455,-3.30776 1.29337,-0.756105 1.897846,-2.020243 3.180914,-2.77018395 1.201728,-0.239711 1.66091,-1.93081905 2.60886,-2.72517105 0.993422,-0.85355 2.04484,-1.351789 2.8373003,-2.521834 1.493029,-0.93584 1.144253,1.940944 1.906327,2.648489 0.812248,0.474521 1.500561,1.803103 2.037068,2.02387505 0.833155,-1.01734705 1.865212,-1.96327805 2.349649,-3.20306105 0.08474,-1.482973 1.79155495,-1.852139 2.39623491,-3.080389 1.35308499,-0.567103 1.87444809,-1.778953 2.65013009,-2.9652297 0.990157,-0.6373151 2.166521,-1.5577381 2.395064,0.2645337 1.166131,0.864336 1.833907,2.231323 2.831823,3.252888 0.975149,1.839579 1.6915087,4.176424 3.8351007,4.979255 1.377626,0.61634905 1.446208,2.403487 2.746571,3.08315 1.641808,1.081167 3.528953,2.118464 4.370773,3.997024 l 0.07159,0.324424"
       style="fill:#2d2929;fill-opacity:1;fill-rule:nonzero;stroke:none;stroke-width:0.013886"
       id="path137" />
    <path
       d="m -2.8245567,1.5629128 c -0.473629,0.488893 -2.572687,1.201695 -1.105664,0.261219 0.548125,-0.392463 2.096367,-1.67346695 2.115316,-1.48738795 -0.330798,0.413357 -0.6608,0.82777295 -1.009652,1.22616895 z M 14.40183,3.1763238 c -0.389078,-0.521838 -1.020284,-1.89099 -0.06592,-0.785929 1.25114,0.860726 2.786463,1.228162 3.949795,2.26226 0.828446,0.590879 -0.854438,-1.032037 -1.254691,-1.281081 -1.18941,-0.903988 -2.860717,-1.440247 -3.409753,-2.95638695 -0.656974,-1.53707305 -2.564554,-1.67618005 -3.408247,-3.05170205 -1.1858507,-1.379741 -1.3364867,-3.503375 -2.8925087,-4.570764 -0.47615,-0.925253 -1.965938,-2.7010957 -1.476487,-1.172469 -0.643104,-0.660797 -0.761266,-3.0881858 -1.569808,-1.1756327 -0.747928,1.1420207 -0.728487,0.8629387 -0.265427,-0.107109 -1.328996,0.3377937 -1.77675,1.9747397 -2.3141441,3.1430097 -0.01113,0.774846 -1.44646999,2.054914 -1.39801499,1.853423 0.407921,-0.640675 1.36208899,-2.098131 1.03828099,-2.490118 -1.21463895,0.262643 -1.57624595,2.328384 -1.86211195,2.657292 0.146127,-0.703778 0.468379,-1.576721 -0.407119,-0.581805 -1.08310695,0.468888 -0.91458195,2.092541 -1.53530295,2.731927 0.633885,-0.24769 2.60870395,-2.202281 1.274312,-0.759885 -1.494759,1.710211 -3.217818,3.20180405 -5.032086,4.558527 -1.105645,1.352122 1.536669,-1.02661795 2.306359,-1.24027195 0.670207,-0.460585 1.090988,-0.70655305 0.303406,0.074 -1.228123,1.45121795 -2.815643,2.53298695 -4.511201,3.35669595 -0.9815223,0.597956 -2.6008843,2.060211 -3.0955883,2.163208 2.203777,-0.796436 4.1343973,-2.147213 6.2840663,-3.059593 -1.213556,1.000088 -2.467809,1.96011 -3.819185,2.76817 1.838759,-0.584935 3.505411,-1.60574 5.152655,-2.591957 -0.681585,0.897968 -2.602309,2.063788 -2.795275,2.468523 0.773053,-0.101161 2.575826,-1.54243 2.438826,-1.147686 -1.579616,1.382703 0.907638,-0.05112 1.59408,-0.474393 0.602527,-0.466998 2.10890995,-1.331617 2.22026095,-1.311291 -0.722163,0.447112 -1.78765195,1.438424 -2.00492195,1.871066 1.54790795,-0.643213 3.1822749,-0.908204 4.831337,-1.107531 1.049231,-0.163825 1.44384,-0.287766 0.246756,-0.24301 -0.609433,-0.0035 -1.2188661,-0.0071 -1.8282991,-0.01069 0.05884,-0.38897 0.970024,-1.331482 0.330058,-1.267012 -1.70157295,-0.04505 -3.0851199,1.093182 -4.5404249,1.811898 1.237789,-0.830652 2.30921995,-2.030071 3.72968291,-2.52078795 1.87216909,-0.169369 3.99982909,-0.706401 5.65709809,0.49246495 0.123161,0.605139 1.065156,2.052221 1.285356,1.83276 -0.695531,-0.664054 -1.300514,-2.51972395 0.233505,-1.464088 0.679103,0.25272 1.75522,1.398016 1.896326,1.546407 -0.824779,-1.276848 -2.060973,-2.146633 -3.453481,-2.71034195 -1.068241,-0.928203 -3.238022,-1.096361 -3.982503,-1.001743 0.947549,-0.64420105 2.682971,-0.61968505 3.391496,-0.48942905 -0.581151,-0.833925 -2.811236,-0.352982 -2.657004,-0.615096 1.441957,-0.297687 -0.811611,-2.061334 -1.4415681,-0.794186 -0.67039399,0.454578 -2.6352709,1.79583605 -1.06375199,0.528473 0.90414499,-0.717733 2.57586509,-2.242943 3.45264309,-0.712021 0.504168,0.110967 -1.088994,-2.165466 0.157548,-1.366525 0.796269,0.07083 2.037637,1.554298 2.071204,1.426434 -0.372457,-1.376445 -1.853673,-2.490333 -3.233033,-2.440542 -1.1121471,0.696108 -2.37977409,1.095597 -3.36533005,2.029535 0.92976096,-1.054594 2.23955895,-1.605813 3.26056605,-2.543217 0.980185,-1.15281 2.316514,-0.305384 3.256817,0.413663 -0.955122,-0.789581 -1.948199,-1.910119 -2.743077,-2.499046 -0.446025,0.353829 -1.5060731,1.642023 -0.721509,0.506027 0.659165,-1.173855 1.896387,-1.32694 1.899251,-2.6844957 0.653451,-0.6709231 0.648333,2.5399577 1.721985,1.5297037 0.198336,1.27867 2.560138,2.659739 2.041639,3.415568 -1.366403,-0.231326 1.473408,0.95578 1.030565,1.403768 -0.04148,0.467035 0.8931207,3.13558305 1.4092947,3.22510505 -0.300502,-0.72974805 -0.8100907,-1.83291905 0.18336,-0.85060005 1.651903,0.74008105 2.007211,2.500716 2.93679,3.859723 0.662095,0.741416 1.83609,2.030601 1.9078,2.580505 0.21932,-1.101191 -0.772953,-1.659223 -1.345344,-2.431697"
       style="fill:#ffffff;fill-opacity:1;fill-rule:nonzero;stroke:none;stroke-width:0.013886"
       id="path139" />
    <path
       d="m -6.8424637,-2.3862592 c -0.683825,-0.517868 -0.476324,-3.319903 -1.562131,-1.884605 0.996453,-0.452425 -1.2568563,1.545755 -0.7766603,1.503864 0.178128,-0.62709 1.2107183,-0.783502 0.8939573,-0.370976 -0.447375,0.600768 -1.6916013,1.364313 -2.6142733,1.966462 1.222676,-0.800543 3.5104203,-1.581923 4.1533063,0.293689 0.404965,0.89699205 -0.628999,-1.033437 -1.296357,-0.800282 -0.9227183,-0.324507 -0.707841,0.03416 -0.8691543,0.303994 -0.782362,0.134194 -2.3824,1.12379005 -2.350715,1.24822505 1.133662,-0.59630005 3.0407533,-1.75123405 3.5578503,0.204564 0.245179,0.526669 -1.1935663,-1.40919805 -1.3801563,0.07141 -0.212867,0.594275 -1.976452,0.70893 -1.698501,1.12052595 0.645011,-0.31644395 2.3878383,-0.96196395 1.460572,0.193729 -0.170956,0.727063 -1.095857,-0.13551 -0.271791,0.716874 1.0325113,1.63125 -0.776315,-1.113231 -1.600501,0.08048 -0.646911,0.304369 -2.240814,1.249775 -0.758055,0.517035 0.944549,-0.59702 1.94909,-0.219155 2.420673,0.753768 -1.139392,-1.36855 -2.424366,-0.138077 -3.461788,0.613621 -1.07945,-0.326342 -2.893914,0.873022 -3.056975,1.131188 0.688785,-0.400683 2.266767,-0.773771 0.764284,-0.05327 -0.526554,0.402037 -2.323412,1.443114 -2.370105,0.969135 0.628148,-0.483152 1.690292,-1.624659 0.457369,-0.676375 -0.704295,0.423283 -1.599891,0.829705 -0.443709,0.06277 0.635117,-0.457716 1.921837,-1.640239 2.05186,-1.783376 -1.045128,0.876089 -3.001664,2.016946 -3.847642,2.072886 1.271442,-0.802123 2.693001,-1.358525 3.814776,-2.425068 1.449917,-0.459437 2.864124,-1.133753 3.803674,-2.402241 -1.113075,1.126805 -2.678497,1.225406 -3.997818,1.894426 -0.699661,0.377218 -2.78847,2.023448 -1.3922,0.514464 0.926249,-1.033138 2.09343,-1.604835 2.859299,-2.74381895 0.694979,-0.772059 -0.840943,1.68471395 0.118622,0.39698695 0.425886,-0.59755995 1.265679,-1.30374595 0.519393,-0.20640195 -0.759688,1.11332895 1.331543,-1.204522 1.478353,-1.87761205 0.771425,-0.75816 1.224153,-2.049453 2.358918,-2.305886 -0.27322,0.574867 -0.88718,1.320314 -0.02437,0.496768 0.711313,-0.641914 1.5903203,-2.788544 2.6136783,-2.228746 0.412896,1.350895 0.729485,2.773353 1.8782,3.678447 0.387047,0.721652 0.575307,1.37014405 -0.06081,0.40882 -0.726359,-0.511206 -2.137036,-1.493212 -2.038381,-2.127522 0.187598,0.252714 0.376138,0.526552 0.667301,0.672046 z"
       style="fill:#ffffff;fill-opacity:1;fill-rule:nonzero;stroke:none;stroke-width:0.013886"
       id="path141" />
    <path
       d="m -7.5600917,-5.1079112 1.39e-4,4.18e-4 z m -5.7476553,5.45718905 4.33e-4,2.78e-4 z m 4.33e-4,2.78e-4 0.002,0.0021 z m -6.25033,5.79378495 c 12.9091213,0 25.8182423,0 38.727363,0 -0.853224,-2.027877 -2.953256,-2.998224 -4.63795,-4.212049 -1.148669,-0.825114 -1.289996,-2.648176 -2.848883,-3.034241 -2.1006677,-1.083518 -2.6181247,-3.531306 -3.7890897,-5.375477 -1.11565,-0.65883 -1.372125,-2.117308 -2.520906,-2.740149 -0.252906,-0.9170438 -0.609973,-1.4256488 -1.389569,-0.5825167 -1.443135,0.3592017 -1.331701,2.4493187 -2.6822441,2.8546567 -1.09582499,0.716085 -1.85238995,1.884664 -2.8250209,2.703174 -0.248001,1.657657 -1.583001,2.812329 -2.591695,4.04976705 -0.865532,0.382297 -1.209514,-1.62596005 -2.206674,-1.88615605 -0.817285,-0.681857 -0.542817,-2.88962 -1.578157,-2.870633 -0.9643233,0.944143 -1.7477293,1.886258 -2.9035803,2.497265 -0.997603,0.843396 -1.484776,2.60491605 -2.759791,2.87627805 -1.232447,0.57788795 -1.569626,1.92091095 -2.833831,2.45804595 -1.101042,0.891838 -1.576787,2.354155 -2.886691,2.982002 l -0.149143,0.138601 -0.124125,0.141434 z m 38.952163,0.374783 c -13.0872547,0 -26.1745097,0 -39.261765,0 -0.259095,-1.122315 1.86915,-1.609518 2.217906,-2.833994 1.005859,-1.247993 2.324588,-2.012919 3.317889,-3.23166295 1.37852,-0.413866 2.00562,-1.70740805 2.92395,-2.76688505 0.849079,-1.151184 2.218264,-1.362259 2.9242343,-2.694953 1.236212,-1.251675 1.666309,0.594119 1.924634,1.548198 0.282935,1.177829 1.809653,2.329333 2.359108,2.80506 0.928404,-1.153897 2.132414,-2.231756 2.344315,-3.774371 1.00495895,-0.89603 1.83446195,-2.080443 2.9818029,-2.84775 1.2979261,-0.555289 1.2885311,-2.6843137 2.8980141,-2.9637828 1.328959,-1.411157 1.447279,1.1584038 2.533176,1.5753718 0.739327,1.35974 2.123679,2.179182 2.59015,3.725205 0.638861,1.526373 1.5712647,3.121979 3.2029127,3.732585 1.344186,0.619546 1.421321,2.365215 2.683877,3.046605 1.689948,1.119048 3.647454,2.188874 4.479438,4.149661 0.07262,0.118327 0.150029,0.529666 -0.119624,0.530711"
       style="fill:#2d2929;fill-opacity:1;fill-rule:nonzero;stroke:none;stroke-width:0.013886"
       id="path143" />
    <path
       d="m -7.4290077,-0.7028622 c 0.436349,0.58263605 0.332525,2.559248 0.05548,0.89720905 -0.05402,-0.295222 -0.08175,-0.597277 -0.05548,-0.89720905 z"
       style="fill:#ffffff;fill-opacity:1;fill-rule:nonzero;stroke:none;stroke-width:0.013886"
       id="path145" />
    <path
       d="m 1.3327662,4.4320328 c 1.0477601,-0.863603 3.0157391,-0.787451 3.8365541,-0.509829 -1.286777,0.0662 -2.596805,0.132055 -3.8365541,0.509829 z"
       style="fill:#ffffff;fill-opacity:1;fill-rule:nonzero;stroke:none;stroke-width:0.013886"
       id="path147" />
    <path
       d="m 12.1891,2.7122548 c 0.83461,0.325567 1.664457,2.378927 0.522738,0.830572 -0.198314,-0.260533 -0.379364,-0.535695 -0.522738,-0.830572 z"
       style="fill:#ffffff;fill-opacity:1;fill-rule:nonzero;stroke:none;stroke-width:0.013886"
       id="path149" />
  </g>
</svg>
