<?xml version="1.0" encoding="UTF-8" standalone="no"?>
<!-- Created with Inkscape (http://www.inkscape.org/) -->

<svg
   width="210mm"
   height="297mm"
   viewBox="0 0 210 297"
   version="1.1"
   id="svg531"
   sodipodi:docname="mountain3.svg"
   inkscape:version="1.2.1 (9c6d41e, 2022-07-14)"
   xmlns:inkscape="http://www.inkscape.org/namespaces/inkscape"
   xmlns:sodipodi="http://sodipodi.sourceforge.net/DTD/sodipodi-0.dtd"
   xmlns="http://www.w3.org/2000/svg"
   xmlns:svg="http://www.w3.org/2000/svg">
  <sodipodi:namedview
     id="namedview533"
     pagecolor="#ffffff"
     bordercolor="#666666"
     borderopacity="1.0"
     inkscape:pageshadow="2"
     inkscape:pageopacity="0.0"
     inkscape:pagecheckerboard="0"
     inkscape:document-units="mm"
     showgrid="false"
     inkscape:zoom="3.905335"
     inkscape:cx="20.612828"
     inkscape:cy="-10.114369"
     inkscape:window-width="1800"
     inkscape:window-height="1097"
     inkscape:window-x="0"
     inkscape:window-y="44"
     inkscape:window-maximized="1"
     inkscape:current-layer="layer1"
     inkscape:showpageshadow="2"
     inkscape:deskcolor="#d1d1d1" />
  <defs
     id="defs528" />
  <g
     inkscape:label="Layer 1"
     inkscape:groupmode="layer"
     id="layer1">
    <path
       d="m 39.448297,17.170535 c -13.08726,0 -26.174519,0 -39.26177919,0 1.06400599,-1.045551 2.11744199,-2.07434 3.04445499,-3.30776 1.29337,-0.756105 1.897846,-2.020243 3.180914,-2.770184 1.201728,-0.239711 1.66091,-1.9308189 2.60886,-2.7251709 0.9934222,-0.85355 2.0448402,-1.351789 2.8373002,-2.521834 1.493029,-0.93584 1.144253,1.940944 1.906327,2.648489 0.812248,0.474521 1.500561,1.8031029 2.037068,2.0238749 0.833155,-1.0173469 1.865212,-1.9632779 2.349649,-3.2030609 0.08474,-1.482973 1.791555,-1.852139 2.396235,-3.080389 1.353085,-0.567103 1.874448,-1.778953 2.65013,-2.9652297 0.990157,-0.63731507 2.166521,-1.55773807 2.395064,0.2645337 1.166131,0.864336 1.833907,2.231323 2.831823,3.252888 0.975149,1.839579 1.691509,4.176424 3.835101,4.979255 1.377626,0.6163489 1.446208,2.4034869 2.746571,3.0831499 1.641808,1.081167 3.528953,2.118464 4.370773,3.997024 l 0.07159,0.324424"
       style="fill:#2d2929;fill-opacity:1;fill-rule:nonzero;stroke:none;stroke-width:0.013886"
       id="path137" />
    <path
       d="m 17.229207,12.402785 c -0.473629,0.488893 -2.572687,1.201695 -1.105664,0.261219 0.548125,-0.392463 2.096367,-1.673467 2.115316,-1.487388 -0.330798,0.413357 -0.6608,0.827773 -1.009652,1.226169 z m 17.226387,1.613411 c -0.389078,-0.521838 -1.020284,-1.89099 -0.06592,-0.785929 1.25114,0.860726 2.786463,1.228162 3.949795,2.26226 0.828446,0.590879 -0.854438,-1.032037 -1.254691,-1.281081 -1.18941,-0.903988 -2.860717,-1.440247 -3.409753,-2.956387 -0.656974,-1.5370729 -2.564554,-1.6761799 -3.408247,-3.0517019 -1.185851,-1.379741 -1.336487,-3.503375 -2.892509,-4.570764 -0.47615,-0.925253 -1.965938,-2.70109567 -1.476487,-1.172469 -0.643104,-0.660797 -0.761266,-3.08818577 -1.569808,-1.1756327 -0.747928,1.1420207 -0.728487,0.8629387 -0.265427,-0.107109 -1.328996,0.3377937 -1.77675,1.9747397 -2.314144,3.1430097 -0.01113,0.774846 -1.44647,2.054914 -1.398015,1.853423 0.407921,-0.640675 1.362089,-2.098131 1.038281,-2.490118 -1.214639,0.262643 -1.576246,2.328384 -1.862112,2.657292 0.146127,-0.703778 0.468379,-1.576721 -0.407119,-0.581805 -1.083107,0.468888 -0.914582,2.092541 -1.535303,2.731927 0.633885,-0.24769 2.608704,-2.202281 1.274312,-0.759885 -1.494759,1.710211 -3.217818,3.2018039 -5.032086,4.5585269 -1.105645,1.352122 1.536669,-1.026618 2.306359,-1.240272 0.670207,-0.460585 1.090988,-0.706553 0.303406,0.074 -1.228123,1.451218 -2.815643,2.532987 -4.511201,3.356696 -0.981522,0.597956 -2.6008842,2.060211 -3.0955882,2.163208 2.2037772,-0.796436 4.1343972,-2.147213 6.2840662,-3.059593 -1.213556,1.000088 -2.467809,1.96011 -3.819185,2.76817 1.838759,-0.584935 3.505411,-1.60574 5.152655,-2.591957 -0.681585,0.897968 -2.602309,2.063788 -2.795275,2.468523 0.773053,-0.101161 2.575826,-1.54243 2.438826,-1.147686 -1.579616,1.382703 0.907638,-0.05112 1.59408,-0.474393 0.602527,-0.466998 2.10891,-1.331617 2.220261,-1.311291 -0.722163,0.447112 -1.787652,1.438424 -2.004922,1.871066 1.547908,-0.643213 3.182275,-0.908204 4.831337,-1.107531 1.049231,-0.163825 1.44384,-0.287766 0.246756,-0.24301 -0.609433,-0.0035 -1.218866,-0.0071 -1.828299,-0.01069 0.05884,-0.38897 0.970024,-1.331482 0.330058,-1.267012 -1.701573,-0.04505 -3.08512,1.093182 -4.540425,1.811898 1.237789,-0.830652 2.30922,-2.030071 3.729683,-2.520788 1.872169,-0.169369 3.999829,-0.706401 5.657098,0.492465 0.123161,0.605139 1.065156,2.052221 1.285356,1.83276 -0.695531,-0.664054 -1.300514,-2.519724 0.233505,-1.464088 0.679103,0.25272 1.75522,1.398016 1.896326,1.546407 C 28.916459,12.959787 27.680265,12.090002 26.287757,11.526293 25.219516,10.59809 23.049735,10.429932 22.305254,10.52455 23.252803,9.8803491 24.988225,9.9048651 25.69675,10.035121 25.115599,9.2011961 22.885514,9.6821391 23.039746,9.4200251 c 1.441957,-0.297687 -0.811611,-2.061334 -1.441568,-0.794186 -0.670394,0.454578 -2.635271,1.7958359 -1.063752,0.528473 0.904145,-0.717733 2.575865,-2.242943 3.452643,-0.712021 0.504168,0.110967 -1.088994,-2.165466 0.157548,-1.366525 0.796269,0.07083 2.037637,1.554298 2.071204,1.426434 -0.372457,-1.376445 -1.853673,-2.490333 -3.233033,-2.440542 -1.112147,0.696108 -2.379774,1.095597 -3.36533,2.029535 0.929761,-1.054594 2.239559,-1.605813 3.260566,-2.543217 0.980185,-1.15281 2.316514,-0.305384 3.256817,0.413663 -0.955122,-0.789581 -1.948199,-1.910119 -2.743077,-2.499046 -0.446025,0.353829 -1.506073,1.642023 -0.721509,0.506027 0.659165,-1.173855 1.896387,-1.32694 1.899251,-2.6844957 0.653451,-0.67092307 0.648333,2.5399577 1.721985,1.5297037 0.198336,1.27867 2.560138,2.659739 2.041639,3.415568 -1.366403,-0.231326 1.473408,0.95578 1.030565,1.403768 -0.04148,0.467035 0.893121,3.1355829 1.409295,3.2251049 -0.300502,-0.729748 -0.810091,-1.8329189 0.18336,-0.8506 1.651903,0.740081 2.007211,2.500716 2.93679,3.859723 0.662095,0.741416 1.83609,2.030601 1.9078,2.580505 0.21932,-1.101191 -0.772953,-1.659223 -1.345344,-2.431697"
       style="fill:#ffffff;fill-opacity:1;fill-rule:nonzero;stroke:none;stroke-width:0.013886"
       id="path139" />
    <path
       d="m 13.2113,8.4536131 c -0.683825,-0.517868 -0.476324,-3.319903 -1.562131,-1.884605 0.996453,-0.452425 -1.256856,1.545755 -0.77666,1.503864 0.178128,-0.62709 1.210718,-0.783502 0.893957,-0.370976 -0.447375,0.600768 -1.691601,1.364313 -2.6142732,1.966462 1.2226762,-0.800543 3.5104202,-1.581923 4.1533062,0.293689 0.404965,0.8969919 -0.628999,-1.033437 -1.296357,-0.800282 -0.922718,-0.324507 -0.707841,0.03416 -0.869154,0.303994 -0.782362,0.134194 -2.3824002,1.1237899 -2.3507152,1.2482249 1.133662,-0.5963 3.0407532,-1.7512339 3.5578502,0.204564 0.245179,0.526669 -1.193566,-1.4091979 -1.380156,0.07141 -0.212867,0.594275 -1.9764522,0.70893 -1.6985012,1.120526 0.645011,-0.316444 2.3878382,-0.961964 1.4605722,0.193729 -0.170956,0.727063 -1.0958572,-0.13551 -0.271791,0.716874 1.032511,1.63125 -0.7763152,-1.113231 -1.6005012,0.08048 -0.646911,0.304369 -2.240814,1.249775 -0.758055,0.517035 0.944549,-0.59702 1.9490902,-0.219155 2.4206732,0.753768 -1.1393922,-1.36855 -2.4243662,-0.138077 -3.4617882,0.613621 -1.07945,-0.326342 -2.893914,0.873022 -3.056975,1.131188 0.688785,-0.400683 2.266767,-0.773771 0.764284,-0.05327 -0.526554,0.402037 -2.323412,1.443114 -2.370105,0.969135 0.628148,-0.483152 1.690292,-1.624659 0.457369,-0.676375 -0.704295,0.423283 -1.599891,0.829705 -0.443709,0.06277 0.635117,-0.457716 1.921837,-1.640239 2.05186,-1.783376 -1.045128,0.876089 -3.001664,2.016946 -3.84764199,2.072886 1.27144199,-0.802123 2.69300099,-1.358525 3.81477599,-2.425068 1.449917,-0.459437 2.864124,-1.133753 3.803674,-2.402241 -1.113075,1.126805 -2.678497,1.225406 -3.997818,1.894426 -0.699661,0.377218 -2.78847,2.023448 -1.3922,0.514464 0.926249,-1.033138 2.09343,-1.604835 2.859299,-2.743819 0.694979,-0.772059 -0.840943,1.684714 0.118622,0.396987 0.425886,-0.59756 1.265679,-1.303746 0.519393,-0.206402 -0.759688,1.113329 1.331543,-1.204522 1.478353,-1.8776119 0.771425,-0.75816 1.224153,-2.049453 2.3589182,-2.305886 -0.2732202,0.574867 -0.8871802,1.320314 -0.02437,0.496768 0.711313,-0.641914 1.59032,-2.788544 2.613678,-2.228746 0.412896,1.350895 0.729485,2.773353 1.8782,3.678447 0.387047,0.7216519 0.575307,1.3701439 -0.06081,0.40882 -0.726359,-0.511206 -2.137036,-1.493212 -2.038381,-2.127522 0.187598,0.252714 0.376138,0.526552 0.667301,0.672046 z"
       style="fill:#ffffff;fill-opacity:1;fill-rule:nonzero;stroke:none;stroke-width:0.013886"
       id="path141" />
    <path
       d="m 12.493672,5.7319611 1.39e-4,4.18e-4 z m -5.7476552,5.4571889 4.33e-4,2.78e-4 z m 4.33e-4,2.78e-4 0.002,0.0021 z m -6.25032999,5.793785 c 12.90912119,0 25.81824219,0 38.72736319,0 -0.853224,-2.027877 -2.953256,-2.998224 -4.63795,-4.212049 C 33.436864,11.94605 33.295537,10.122988 31.73665,9.7369231 29.635982,8.6534051 29.118525,6.2056171 27.94756,4.3614461 26.83191,3.7026161 26.575435,2.2441381 25.426654,1.6212971 25.173748,0.70425333 24.816681,0.19564833 24.037085,1.0387804 22.59395,1.3979821 22.705384,3.4880991 21.354841,3.8934371 c -1.095825,0.716085 -1.85239,1.884664 -2.825021,2.703174 -0.248001,1.657657 -1.583001,2.812329 -2.591695,4.0497669 -0.865532,0.382297 -1.209514,-1.6259599 -2.206674,-1.8861559 -0.817285,-0.681857 -0.542817,-2.88962 -1.578157,-2.870633 -0.964323,0.944143 -1.747729,1.886258 -2.9035802,2.497265 -0.997603,0.843396 -1.484776,2.6049159 -2.759791,2.8762779 -1.232447,0.577888 -1.569626,1.920911 -2.833831,2.458046 -1.101042,0.891838 -1.576787,2.354155 -2.88669099,2.982002 l -0.149143,0.138601 -0.124125,0.141434 z M 39.448283,17.357996 c -13.087255,0 -26.17451,0 -39.26176519,0 -0.259095,-1.122315 1.86914999,-1.609518 2.21790599,-2.833994 1.005859,-1.247993 2.324588,-2.012919 3.317889,-3.231663 1.37852,-0.413866 2.00562,-1.7074079 2.92395,-2.7668849 0.849079,-1.151184 2.2182642,-1.362259 2.9242342,-2.694953 1.236212,-1.251675 1.666309,0.594119 1.924634,1.548198 0.282935,1.177829 1.809653,2.329333 2.359108,2.8050599 0.928404,-1.1538969 2.132414,-2.2317559 2.344315,-3.7743709 1.004959,-0.89603 1.834462,-2.080443 2.981803,-2.84775 1.297926,-0.555289 1.288531,-2.68431367 2.898014,-2.96378277 1.328959,-1.411157 1.447279,1.15840377 2.533176,1.57537177 0.739327,1.35974 2.123679,2.179182 2.59015,3.725205 0.638861,1.526373 1.571265,3.121979 3.202913,3.732585 1.344186,0.6195459 1.421321,2.3652149 2.683877,3.0466049 1.689948,1.119048 3.647454,2.188874 4.479438,4.149661 0.07262,0.118327 0.150029,0.529666 -0.119624,0.530711"
       style="fill:#2d2929;fill-opacity:1;fill-rule:nonzero;stroke:none;stroke-width:0.013886"
       id="path143" />
    <path
       d="m 12.624756,10.13701 c 0.436349,0.582636 0.332525,2.559248 0.05548,0.897209 -0.05402,-0.295222 -0.08175,-0.597277 -0.05548,-0.897209 z"
       style="fill:#ffffff;fill-opacity:1;fill-rule:nonzero;stroke:none;stroke-width:0.013886"
       id="path145" />
    <path
       d="m 21.38653,15.271905 c 1.04776,-0.863603 3.015739,-0.787451 3.836554,-0.509829 -1.286777,0.0662 -2.596805,0.132055 -3.836554,0.509829 z"
       style="fill:#ffffff;fill-opacity:1;fill-rule:nonzero;stroke:none;stroke-width:0.013886"
       id="path147" />
    <path
       d="m 32.242864,13.552127 c 0.83461,0.325567 1.664457,2.378927 0.522738,0.830572 -0.198314,-0.260533 -0.379364,-0.535695 -0.522738,-0.830572 z"
       style="fill:#ffffff;fill-opacity:1;fill-rule:nonzero;stroke:none;stroke-width:0.013886"
       id="path149" />
  </g>
</svg>
