<?xml version="1.0" encoding="UTF-8" standalone="no"?>
<!-- Created with Inkscape (http://www.inkscape.org/) -->

<svg
   width="210mm"
   height="297mm"
   viewBox="0 0 210 297"
   version="1.1"
   id="svg531"
   sodipodi:docname="mountain1.svg"
   inkscape:version="1.2.1 (9c6d41e, 2022-07-14)"
   xmlns:inkscape="http://www.inkscape.org/namespaces/inkscape"
   xmlns:sodipodi="http://sodipodi.sourceforge.net/DTD/sodipodi-0.dtd"
   xmlns="http://www.w3.org/2000/svg"
   xmlns:svg="http://www.w3.org/2000/svg">
  <sodipodi:namedview
     id="namedview533"
     pagecolor="#ffffff"
     bordercolor="#666666"
     borderopacity="1.0"
     inkscape:pageshadow="2"
     inkscape:pageopacity="0.0"
     inkscape:pagecheckerboard="0"
     inkscape:document-units="mm"
     showgrid="false"
     inkscape:zoom="7.0688198"
     inkscape:cx="61.042721"
     inkscape:cy="36.42758"
     inkscape:window-width="1800"
     inkscape:window-height="1097"
     inkscape:window-x="0"
     inkscape:window-y="44"
     inkscape:window-maximized="1"
     inkscape:current-layer="layer1"
     inkscape:showpageshadow="2"
     inkscape:deskcolor="#d1d1d1" />
  <defs
     id="defs528" />
  <g
     inkscape:label="Layer 1"
     inkscape:groupmode="layer"
     id="layer1">
    <path
       d="m 40.375207,14.410495 c -13.418959,0 -26.837917,0 -40.25687588,0 0.84967097,-1.153205 1.48221898,-2.5193 2.79719898,-3.232219 1.00114,-0.863615 2.287703,-1.5400312 2.794831,-2.8366918 1.020913,-1.8438151 2.224258,1.1239835 3.25775,0.1730091 0.654631,-0.8390816 1.2453909,-1.7499627 1.9388959,-2.5453425 1.092471,-0.6699044 2.282832,-1.2394004 3.314559,-1.9716113 0.692745,-1.4124709 1.919168,-2.3588647 3.022135,-3.39177185 1.312646,-1.0716635 2.832346,1.23470135 3.833103,2.07958265 1.070914,1.1513215 1.982045,0.5105668 3.021203,-0.2202136 1.698068,0.1844267 2.472699,2.0408044 4.050052,2.5906198 0.975522,0.8024216 2.048681,2.9771727 3.563077,1.7547751 1.051034,-1.0856834 1.754739,-0.2675419 2.469726,0.694318 1.233003,0.7338445 1.198479,2.7403014 3.096441,2.5955014 0.46526,1.334998 1.766933,2.103606 2.418358,3.334739 0.222696,0.327758 0.448736,0.653268 0.679617,0.975317"
       style="fill:#2d2929;fill-opacity:1;fill-rule:nonzero;stroke:none;stroke-width:0.0129082"
       id="path35" />
    <path
       d="m 26.867525,11.884872 c 0.316214,-0.382843 1.838996,-1.597125 1.28468,-1.623889 -0.540264,0.408465 -1.294941,0.864917 -1.284676,1.623889 z"
       style="fill:#ffffff;fill-opacity:1;fill-rule:nonzero;stroke:none;stroke-width:0.0129082"
       id="path37" />
    <path
       d="M 29.691844,7.5977925 C 29.148597,7.4283222 28.640935,6.3811402 29.417948,7.2299563 c -0.04161,0.1325359 0.327746,0.2005799 0.273896,0.3678362 z m -1.363753,-0.849232 c -0.662785,0.2123606 -1.367953,-1.5663668 -0.379056,-0.3581353 0.689858,-0.1466289 1.504743,1.8342867 0.498876,0.477153 z m -0.782884,1.0953921 c -0.39343,0.1413328 -0.479359,-0.8434748 -0.752416,-1.1429736 0.125677,0.2847795 0.751123,0.764565 1.014832,0.9237088 0.1715,0.674053 0.354096,1.4391399 -0.186459,0.3462353 z M 25.600455,6.5559699 C 25.70065,5.7356521 25.779287,5.267823 25.852035,6.3733933 26.073337,6.8904041 26.674081,8.6319674 26.008337,7.3034958 25.872114,7.0549335 25.683738,6.8311677 25.600455,6.5559699 Z M 25.05121,11.051388 c 0.04926,0.928234 -0.205625,0.914819 -0.24704,-0.0282 0.797059,-0.573201 -0.208738,-2.5154748 0.09322,-2.3659205 0.456962,1.1440826 1.246568,1.4324835 0.15382,2.3941235 z m 0.07757,-4.2008525 c -0.43766,-1.0686315 -0.05213,-0.7495869 0.198513,0.090349 -0.670312,0.5617786 0.747743,2.2708751 -0.345047,1.005034 -0.517587,-0.4350109 0.03076,-0.672626 0.146534,-1.095383 z m 5.5588,0.3481349 C 29.13905,6.7799939 28.663983,4.9397255 27.130078,4.4401831 27.302779,4.8433876 28.168982,6.193508 27.307899,5.1724581 26.86339,4.5425042 25.638805,3.6762898 26.178738,5.0378307 c 0.293171,0.5665276 0.645862,1.9314856 0.09681,0.6660645 -0.89257,-0.9866386 -0.15748,-3.0286107 -2.153095,-2.9740554 -1.448082,0.4774193 -1.972908,2.1209746 -3.397768,2.5659933 -1.309184,0.5701961 -2.102969,1.7895989 -2.69203,3.0442231 -0.724588,0.232993 -1.862427,1.7143738 -0.5034,0.8455087 0.860432,-0.052686 1.345665,-3.0608385 1.815864,-1.8533595 0.13851,0.5717084 0.266097,-1.9097467 1.234805,-1.7619786 0.618913,-0.3243208 1.535488,-0.6752126 0.65934,0.1670253 -0.552692,0.4644035 -0.989701,0.6672233 -0.04607,0.3142971 1.066604,-0.8186854 1.229952,-2.5259855 2.748544,-2.9138096 -0.08457,0.7599654 1.286037,1.5907046 0.992106,2.2660216 -0.229947,-0.6011314 -0.532096,-0.8706838 -0.768019,-0.7592699 -0.720889,-1.7326054 0.7366,2.1374104 -0.241517,0.9375985 -0.360572,0.339982 -0.778208,-1.9602162 -0.533211,-0.4446043 0.06606,1.1667727 0.843428,2.2767422 1.054067,3.5585349 -0.135836,-0.725554 -1.191795,-1.5801151 -0.969086,-0.4819608 -0.01421,0.4711818 0.273002,1.8928834 0.337107,1.8937574 -0.642193,-1.0355668 -0.955014,-2.2087873 -1.402353,-3.3157596 -0.0279,1.3798701 0.382424,2.4865734 0.344095,3.9245086 0.219269,0.460474 1.2905,2.221396 0.244524,0.890259 -0.827683,-0.09072 -1.109607,-2.4495834 -0.882148,-0.673918 0.178685,1.218342 1.020711,1.836239 1.193227,3.241363 0.15057,-1.037873 1.532763,-1.830418 0.527597,-2.845032 -0.279344,-0.490951 0.807392,0.586325 0.7516,0.863197 -0.06208,0.717435 -0.302733,1.860396 0.336908,0.475446 0.341699,-1.180905 1.135905,-0.147882 1.65354,-0.579576 -0.524467,-0.730556 0.111382,-1.724899 -0.558926,-2.3751132 0.823552,0.3241182 0.563843,2.3782862 1.427649,1.0688012 -0.552705,-0.5519 -1.149006,-2.6629418 -0.296264,-1.0333236 0.872539,1.0630526 1.255308,0.2657716 0.620785,-0.7200568 -0.05309,-0.5580851 1.006588,1.2356944 0.957154,-0.111767 0.428433,-0.7332787 1.638905,-0.9938457 1.957005,-1.7181759 z"
       style="fill:#ffffff;fill-opacity:1;fill-rule:nonzero;stroke:none;stroke-width:0.0129082"
       id="path39" />
    <path
       d="m 13.515905,10.836724 c 1.895583,-0.156899 2.551855,-2.1288349 4.302827,-2.5850009 0.02924,-0.7728052 -2.225082,0.9020552 -2.589653,1.6127534 -0.538523,0.3761565 -1.13682,0.6596985 -1.713178,0.9722475 z"
       style="fill:#ffffff;fill-opacity:1;fill-rule:nonzero;stroke:none;stroke-width:0.0129082"
       id="path41" />
    <path
       d="M 20.288462,4.2198397 C 19.747639,3.5045249 18.744,3.5245924 18.680485,2.4224982 c 0.382746,0.995945 1.281912,0.7563545 1.607977,1.7973415 z m 0.784949,-1.5368531 c 0.117326,0.8333845 0.339348,1.34108 -0.211206,0.3181258 C 20.722864,2.2027333 20.072891,1.7437622 19.545466,1.1955723 19.437433,1.8253141 20.134862,3.5850754 19.442061,2.2187036 19.614596,1.5440671 18.413006,0.26051125 19.078316,1.5742991 18.895446,0.73507505 16.892607,-0.08445405 17.954397,1.2838641 18.496338,2.6580984 17.362538,-0.05989015 16.727516,1.3851823 15.223965,1.9390571 14.852661,3.5327455 14.121234,4.7628728 13.415285,5.5758901 12.476995,7.9661233 12.340564,8.1210259 13.380708,6.8651896 12.77822,9.4827701 11.840308,9.5377398 11.16803,9.9793804 9.5107781,10.820385 11.139705,10.14038 c 1.262622,-0.2267603 2.609608,-1.7198032 1.912439,-2.8673418 0.439791,-0.7284247 0.805638,-2.3483899 1.415141,-2.4241985 0.03186,0.759065 -0.04272,1.5435014 0.222405,0.3096381 0.0031,-1.5029001 0.966157,-2.6693483 2.229348,-3.4010104 1.135022,-1.24726965 1.63514,2.6582271 0.881732,0.7974598 -0.493814,1.0737733 -1.166547,-0.8539787 -0.908549,0.386228 0.393686,0.5889764 0.718301,2.435356 0.05832,0.8283172 -0.361568,0.8599399 -0.81328,-1.2562178 -0.649598,0.086155 0.162638,0.6760022 0.602079,2.5090624 0.662246,0.8930735 1.044749,-0.5353589 1.458995,1.4095049 1.176795,1.8605005 -0.428569,-1.1137142 -1.195916,0.2290711 -0.637999,0.8644156 -0.5821,-0.2400338 -1.51726,-2.3470988 -0.973625,-0.7804593 0.120182,0.9379064 -0.344066,1.679154 0.789623,1.0170499 1.008812,-0.2431567 1.549899,-1.2141743 2.163918,-1.9686466 0.67876,-0.2509682 0.320673,-0.6906342 0.04996,-1.1791919 -0.522633,-0.8779526 0.170809,0.00395 0.460623,0.3017431 0.04235,-0.1561367 -0.189904,-0.8195633 0.319345,-0.055273 0.418554,0.569291 0.985958,-0.2068918 0.359846,-0.5896027 -0.291682,-0.468891 -0.82541,-1.2262785 -0.016,-0.3603267 0.351569,1.1494584 2.055684,-0.061758 1.528499,-0.5601905 C 21.813927,3.0934753 21.44368,2.8882311 21.073433,2.6829869"
       style="fill:#ffffff;fill-opacity:1;fill-rule:nonzero;stroke:none;stroke-width:0.0129082"
       id="path43" />
    <path
       d="M 7.3914041,11.026217 C 9.0893461,9.8525052 9.9534234,7.8806008 11.263569,6.3571044 12.02561,5.8570634 13.23766,4.820119 12.439866,6.3661544 12.103552,7.396455 12.334994,7.1556407 12.667563,6.4551684 13.052484,5.7291658 13.469805,5.0215405 13.888306,4.3145847 13.073238,4.8335655 12.058438,5.0939786 11.471508,5.9058098 10.610075,6.6464154 9.8041544,7.5220306 9.1178751,8.4410309 8.5423851,9.3027591 7.9668941,10.164487 7.3914041,11.026217 Z"
       style="fill:#ffffff;fill-opacity:1;fill-rule:nonzero;stroke:none;stroke-width:0.0129082"
       id="path45" />
    <path
       d="m 3.7636381,10.579334 c -0.692012,1.332521 -2.078886,1.954282 -2.91863001,3.164317 -0.78413697,0.493883 0.66506901,-1.337052 0.88377801,-1.632897 0.649562,-0.50957 1.35236,-1.158824 2.034859,-1.53142 z"
       style="fill:#ffffff;fill-opacity:1;fill-rule:nonzero;stroke:none;stroke-width:0.0129082"
       id="path47" />
    <path
       d="m 8.4183701,8.7915451 c -0.705752,1.4145409 -1.883583,2.4367969 -3.355823,2.9784119 -1.079662,0.563985 0.719601,-0.792908 1.006474,-1.064122 0.241753,-0.8064419 1.337758,-1.3870221 0.229286,-1.8408741 0.611778,-1.4898502 -0.556956,0.4903747 -0.89658,0.8041014 -1.079712,0.8544657 -1.334689,2.5458377 -2.608082,3.1250837 -0.136837,0.111048 0.906371,-1.113907 1.202501,-1.610707 0.503797,-1.1856624 1.262164,-2.3471123 2.170864,-3.1708415 0.939169,-0.5493485 1.720714,2.2190965 1.214097,0.5985659 -0.280122,-0.6505963 0.81268,0.1830265 1.037337,0.1803924"
       style="fill:#ffffff;fill-opacity:1;fill-rule:nonzero;stroke:none;stroke-width:0.0129082"
       id="path49" />
    <path
       d="m 5.1100821,13.661172 c 1.199707,-0.452372 2.690449,-0.780926 3.277919,-2.05494 0.415975,-0.61588 1.345503,-1.6533195 0.210055,-0.67531 -0.837152,1.198446 -1.952238,2.007179 -3.291903,2.605541 z"
       style="fill:#ffffff;fill-opacity:1;fill-rule:nonzero;stroke:none;stroke-width:0.0129082"
       id="path51" />
    <path
       d="M 11.656462,6.8811279 C 11.346704,7.4536301 9.5970691,9.4835934 10.70398,7.7821636 10.89087,7.3564164 11.178962,6.9883306 11.656462,6.8811279 Z"
       style="fill:#ffffff;fill-opacity:1;fill-rule:nonzero;stroke:none;stroke-width:0.0129082"
       id="path53" />
    <path
       d="M 15.363716,5.4836838 C 15.458156,6.742771 15.076943,7.7259173 14.143232,8.4981775 13.865626,9.355621 13.673768,9.8488542 13.918741,8.6580731 14.390317,7.5402075 15.390553,6.9104615 15.363716,5.4836838 Z"
       style="fill:#ffffff;fill-opacity:1;fill-rule:nonzero;stroke:none;stroke-width:0.0129082"
       id="path55" />
    <path
       d="M 20.915673,7.0990188 C 19.34145,7.5488435 19.646359,9.4043486 18.26362,10.143923 17.894942,10.646318 19.269591,9.3396464 19.648172,9.1362432 19.827479,8.2426877 20.149189,7.6557796 20.915673,7.0990188 Z"
       style="fill:#ffffff;fill-opacity:1;fill-rule:nonzero;stroke:none;stroke-width:0.0129082"
       id="path57" />
    <path
       d="m 39.298661,12.839564 c -0.213075,1.05183 -2.660756,-2.452633 -1.520594,-0.59636 0.794414,0.978804 -0.226703,1.129176 -0.563282,0.218149 -0.354963,-0.443017 -1.639658,-1.844323 -0.726897,-0.604266 0.28892,0.550784 0.09931,1.103853 0.937623,1.709048 0.611233,0.264442 0.904978,0.914583 0.142151,0.200239 -1.133561,-0.404126 -1.799398,-2.0299 -2.627146,-2.499515 0.105902,0.552608 1.039135,1.980039 0.111338,0.988447 -0.621129,-0.688162 -0.483787,-2.4395603 -1.036141,-2.6037309 0.36268,0.5531689 0.321385,2.3623059 -0.374556,1.2762809 -0.603163,-0.149911 -1.400931,-1.1468185 -0.563895,-0.121947 0.961513,0.50027 1.071474,1.791677 1.861498,2.488993 -0.05482,0.617545 0.86171,1.180104 -0.170673,0.592609 -0.796997,-0.532177 -1.570483,-2.185283 -1.851724,-2.432031 0.805227,1.085161 -0.817181,1.92507 -1.588992,1.4504 0.984183,0.632144 -0.799237,1.878682 -0.38682,0.418711 -0.39351,-0.675584 -0.718181,-1.687577 0.01295,-0.913953 1.270536,-0.465583 -1.305588,-0.880157 -0.701948,-1.404044 0.56049,0.479664 1.769083,1.310934 2.140705,1.376825 -0.50363,-0.68039 -1.027847,-1.300246 -0.213162,-0.815315 0.342706,-1.057539 -2.137815,-0.624785 -0.859913,-1.355631 -0.260431,-0.7314384 -0.305675,-0.8170844 0.341668,-0.144306 0.702904,0.773535 0.590663,0.510945 0.178137,-0.1368279 0.862614,-0.3274082 -0.224255,-1.4931867 0.841453,-0.537789 1.216236,1.2313009 -0.425416,-0.9100769 -0.507614,-1.5733509 -0.377773,-0.7946588 1.37267,1.7818299 0.50836,0.1619528 -0.145214,-0.6854492 0.282509,-1.6911144 -0.687303,-0.7951013 -1.0849,0.088355 -1.582477,1.8556696 -2.025367,1.9701184 0.562196,-0.5936437 0.610184,-1.4223478 -0.244854,-0.5859131 -1.080934,0.7420481 -0.69345,2.233036 -1.513185,3.187888 0.39982,-1.364576 0.396593,-3.1327731 2.034276,-3.6647862 1.152201,-0.8814669 2.92284,-2.5447559 3.62727,-0.309656 0.649325,0.6725452 0.359514,1.7081468 1.101078,2.2421582 -0.31574,-0.4849963 -0.55715,-1.8068971 -0.516332,-1.9181622 0.816071,1.1531985 1.269681,2.5708162 2.489351,3.4308452 0.674695,0.914136 -0.521248,-1.2291 -0.899023,-1.506231 1.194534,-0.7691268 1.808695,1.585917 2.844807,2.260734 0.149362,0.171061 0.284842,0.354048 0.406771,0.545515"
       style="fill:#ffffff;fill-opacity:1;fill-rule:nonzero;stroke:none;stroke-width:0.0129082"
       id="path59" />
    <path
       d="m 29.481441,10.962967 c 0.514888,0.882481 -1.311873,2.09321 -1.247316,1.808555 0.469453,-0.587678 1.337723,-0.72147 1.247318,-1.808555 z"
       style="fill:#ffffff;fill-opacity:1;fill-rule:nonzero;stroke:none;stroke-width:0.0129082"
       id="path61" />
    <path
       d="m 0.49337612,14.216872 c 13.16899188,0 26.33798288,0 39.50697588,0 C 39.323561,13.014036 38.31967,12.079695 37.517174,10.978844 36.907906,9.7474193 34.838782,10.03469 34.815698,8.2034309 33.618315,7.7656855 33.131084,5.4856521 31.7746,6.9966523 30.36129,8.1356345 29.062731,6.3836348 28.273848,5.3744997 26.589783,4.8687228 25.676618,2.6039109 23.883394,2.7546405 22.741745,4.3467847 21.084445,3.1895354 20.12593,2.0232467 19.284224,0.89468015 17.539731,-0.29619525 16.727356,1.4239944 15.49833,2.033543 15.006948,3.4271859 14.11358,4.3419227 13.054561,4.9803216 11.932094,5.5473937 10.911906,6.2294449 10.209461,7.1364283 9.5682961,8.1048142 8.8276961,8.9735661 7.6032031,9.0940836 6.7563601,6.9824516 5.7992021,8.5592441 5.1494651,10.042279 3.5858921,10.784682 2.4071241,11.789138 1.5134271,12.373535 1.1394391,13.41107 0.49337612,14.216872 Z M 40.375207,14.604118 c -13.418959,0 -26.837917,0 -40.25687588,0 -0.191724,-0.866185 1.20606198,-2.206888 1.86874398,-2.981035 1.138211,-0.947189 2.528471,-1.6752342 3.342596,-2.9459044 0.457386,-1.3574308 1.908287,-1.3341038 2.69086,-0.3345483 0.774005,0.6307947 1.047815,-0.4197105 1.488844,-0.8787724 0.5996469,-0.7047516 0.9842579,-1.6546116 1.8989839,-2.0076036 0.872728,-0.5037434 1.745456,-1.0074865 2.618184,-1.5112298 0.713109,-1.3219251 1.749167,-2.3936059 2.933044,-3.27871315 1.066643,-1.61866021 3.077146,0.62287785 3.913329,1.58910535 0.91665,1.0021164 1.998363,1.1587399 2.924562,0.1093481 1.860454,-0.3802218 2.652028,1.910061 4.265619,2.4110422 1.160125,0.5568368 1.827044,2.9402661 3.403494,1.9470716 0.908204,-0.7195357 1.845734,-1.0731997 2.430959,0.1791695 0.991243,0.69747 1.414072,1.6732336 2.064834,2.5951735 1.783518,0.052575 1.999352,1.9549744 3.251824,2.8843404 0.248141,0.670982 1.627872,1.667796 1.160986,2.222556 z"
       style="fill:#2d2929;fill-opacity:1;fill-rule:nonzero;stroke:none;stroke-width:0.0129082"
       id="path63" />
    <path
       d="m 24.756901,14.542546 c -0.528855,-0.858137 1.584358,-1.672152 1.735783,-2.72428 0.621883,-1.283826 1.987691,-1.9486743 2.376261,-3.4104823 0.77283,-0.065465 1.806019,-1.9325548 2.238038,-1.0729311 -1.238169,0.7932123 -2.345306,1.6187007 -2.836698,3.0290924 -1.381344,0.77293 -1.610254,2.450845 -2.810648,3.418678 -0.233048,0.254409 -0.467331,0.507684 -0.702724,0.759924 z"
       style="fill:#2d2929;fill-opacity:1;fill-rule:nonzero;stroke:none;stroke-width:0.0129082"
       id="path65" />
    <path
       d="m 12.492077,14.531961 c -0.656629,-0.30827 0.293433,-0.787889 0.458055,-1.183742 1.24754,-1.46134 2.323245,-3.083225 3.73278,-4.3937474 1.219207,-0.8128812 1.688837,-2.2898257 2.629449,-3.3643377 1.190141,-0.5492281 2.371284,-1.3788112 3.168657,-2.1889913 0.144316,0.9315847 -1.423936,1.7430753 -2.305104,2.1150625 -1.397901,0.7544743 -1.694827,2.5889913 -2.941663,3.5122051 -1.454043,1.1256138 -2.417037,2.7393398 -3.61903,4.1122218 -0.37438,0.463777 -0.74876,0.927553 -1.12314,1.391328 z"
       style="fill:#2d2929;fill-opacity:1;fill-rule:nonzero;stroke:none;stroke-width:0.0129082"
       id="path67" />
    <path
       d="M 6.5614971,14.536867 C 5.9152721,14.20721 6.8804551,13.758948 7.0579981,13.368659 8.5372271,11.60282 10.105735,9.9157718 11.606538,8.1708371 12.476812,6.7855213 13.106424,5.2446224 14.055081,3.8988122 14.623654,4.6837858 12.912007,5.989895 12.696616,7.0187217 11.798993,9.0670197 9.9475104,10.444213 8.5958631,12.17883 c -0.678123,0.786012 -1.356245,1.572024 -2.034366,2.358037 z"
       style="fill:#2d2929;fill-opacity:1;fill-rule:nonzero;stroke:none;stroke-width:0.0129082"
       id="path69" />
    <path
       d="m 3.5014481,14.557778 c -0.484816,-0.836792 1.553325,-1.475396 2.011703,-2.24704 1.261364,-0.9895 2.302639,-2.220233 3.082942,-3.6202634 0.743937,0.6273587 -1.036396,1.8800554 -1.38276,2.5968194 -1.190666,1.140669 -2.466302,2.190851 -3.711887,3.270484 z"
       style="fill:#2d2929;fill-opacity:1;fill-rule:nonzero;stroke:none;stroke-width:0.0129082"
       id="path71" />
  </g>
</svg>
