<?xml version="1.0" encoding="UTF-8" standalone="no"?>
<!-- Created with Inkscape (http://www.inkscape.org/) -->

<svg
   width="210mm"
   height="297mm"
   viewBox="0 0 210 297"
   version="1.1"
   id="svg531"
   sodipodi:docname="mountain2.svg"
   inkscape:version="1.1.2 (0a00cf5339, 2022-02-04)"
   xmlns:inkscape="http://www.inkscape.org/namespaces/inkscape"
   xmlns:sodipodi="http://sodipodi.sourceforge.net/DTD/sodipodi-0.dtd"
   xmlns="http://www.w3.org/2000/svg"
   xmlns:svg="http://www.w3.org/2000/svg">
  <sodipodi:namedview
     id="namedview533"
     pagecolor="#ffffff"
     bordercolor="#666666"
     borderopacity="1.0"
     inkscape:pageshadow="2"
     inkscape:pageopacity="0.0"
     inkscape:pagecheckerboard="0"
     inkscape:document-units="mm"
     showgrid="false"
     inkscape:zoom="2.9576319"
     inkscape:cx="34.487051"
     inkscape:cy="-11.833792"
     inkscape:window-width="1920"
     inkscape:window-height="1012"
     inkscape:window-x="0"
     inkscape:window-y="0"
     inkscape:window-maximized="1"
     inkscape:current-layer="layer1" />
  <defs
     id="defs528" />
  <g
     inkscape:label="Layer 1"
     inkscape:groupmode="layer"
     id="layer1">
    <path
       d="m 20.619144,7.7794016 c -13.656053,0 -27.3121036,0 -40.968156,0 1.154997,-1.3428892 2.488582,-2.5523058 3.269358,-4.1695447 1.200191,-0.9048121 2.500988,-1.8174493 3.816838,-2.61807874 1.49207,-0.7310984 2.160652,-2.63620416 4.0830915,-2.50732516 1.248834,-0.304508 1.4774661,-2.1023866 3.0503921,-2.0473689 1.4802139,-1.0083308 -0.022426,-3.576813 2.2075767,-3.542686 1.5375804,-0.656908 2.0113424,-2.444437 3.23245964,-3.4873531 0.6314447,-1.043515 2.86883406,-2.159996 2.80425706,-0.08727 0.407558,1.4735451 2.365584,1.7583601 2.427266,3.5092431 0.736691,0.9684167 2.555132,1.0392741 2.62773,2.6994687 0.393083,1.4613731 2.101054,1.8872242 2.569265,3.2951065 0.793125,1.00095306 1.857791,1.10539326 2.808909,0.23861316 1.630109,0.1522909 2.21651,2.17152604 3.048322,3.34259734 0.85784,1.554673 3.186825,1.4832689 3.924482,3.1486324 0.40657,0.721111 0.759276,1.4712203 1.098209,2.2259654 z"
       style="fill:#2d2929;fill-opacity:1;fill-rule:nonzero;stroke:none;stroke-width:0.0150568"
       id="path101" />
    <path
       d="M 9.272309,3.9112994 C 8.693446,3.2623978 6.082789,2.6176714 8.185394,2.9681766 9.026333,2.8479041 10.579491,5.288178 9.272309,3.9112994 Z M 7.399389,-0.25793954 C 6.788792,-1.1569398 6.548479,-1.4431372 6.596342,-0.28710354 6.441406,0.09042266 5.864391,-1.7107969 5.524845,-2.0937918 5.235704,-2.7391927 3.822357,-4.3594022 5.09253,-3.1232565 c 0.589607,0.47749 1.318416,2.22672436 1.085709,0.6373515 -0.14669,-1.0580848 0.177487,-0.269153 0.433527,0.2525077 0.327407,1.1436273 2.14219,2.86388626 2.235883,3.12342396 -0.486383,-0.377463 -1.022724,-0.696823 -1.44826,-1.1479662 z M 3.303778,-8.3404509 c -0.743179,-0.712666 -0.45997,-0.871395 0.189716,-0.121961 0.393513,0.757039 0.606437,1.490903 -0.189716,0.121961 z M 18.40895,6.0794844 C 17.65703,5.669196 15.589417,4.3754009 17.503884,5.255875 17.131701,4.5246231 15.600813,3.9172092 15.491711,3.7260295 c 1.403557,-0.066115 3.436895,1.7620236 3.6772,2.1506814 -0.694703,-1.3658964 -0.09655,-1.0818701 0.432214,-0.030568 0.354846,0.5406216 0.810114,1.4238979 0.270046,0.3589972 -0.509392,-1.7691203 -2.381942,-2.1614683 -3.705821,-3.110141 -1.187209,-1.2051495 -1.57482,-3.18471744 -3.170026,-4.01861494 -0.82516,-0.44544596 -2.514979,1.5709554 -1.043198,0.8911542 1.523868,-0.8080751 2.343187,1.36071374 2.61957,2.48908384 0.139383,0.7915155 0.143566,1.235903 -0.169898,0.2060904 -0.678384,-0.6259293 0.170189,2.5385306 -0.005,2.0843137 -0.62905,-0.546938 -0.551511,-2.9268356 -0.946361,-1.0673656 -0.367196,1.6223655 1.946289,2.8791612 1.943979,3.9130376 -0.32941,-0.6638679 -2.076547,-1.8722111 -1.982297,-1.6035772 0.41764,0.5883024 1.352093,1.3959257 0.200516,0.5929217 C 12.180978,5.6124651 11.731423,3.9514276 11.059552,2.4718672 10.709207,1.7252196 9.244184,-0.55479544 10.6314,1.129961 11.745192,2.5965454 10.54928,0.04608986 9.829464,-0.19112314 9.404733,-0.74662414 8.694394,-1.5868395 9.677803,-0.63040644 11.250783,0.47349486 9.073618,-1.0876676 9.242192,-1.9954971 8.054123,-3.0453775 7.07218,-4.1650373 6.606786,-5.7573101 5.431575,-6.5120386 4.154291,-6.9233279 3.977046,-8.5838679 2.911342,-9.4329419 1.907311,-10.309122 1.7651153,-11.802017 c -1.68963016,-0.370834 -2.71056366,1.697049 -3.7809228,2.7403451 -0.4372913,1.561631 -2.2765777,1.912842 -3.1992051,2.604598 0.2088293,1.7036228 -0.7310954,3.1896246 -2.4666839,3.5220299 -0.6444418,0.5236935 -1.0929471,2.08127386 -0.038434,0.7777566 1.3720936,-0.63336 3.0473146,-1.395763 3.1052443,-3.2345947 -0.4195995,-1.0431937 1.9278236,-1.5457078 1.7599277,-1.5246878 -0.07202,1.7993456 0.5086562,-1.185963 1.1525439,-1.591857 0.81292634,-0.741257 2.10255824,-2.6880241 2.7743899,-2.4667811 -0.54584506,0.919702 -1.17201836,2.8832181 -0.34249786,1.5789681 -0.4982535,1.207124 0.87635156,2.419589 -0.5936611,3.1230947 -0.2980502,0.5495551 -1.0828262,2.14034 -0.2490025,0.8012118 C 0.35135784,-6.1269208 2.097105,-6.9606409 2.041416,-7.1822699 1.853321,-6.3643566 0.59598784,-4.3263199 0.81723154,-4.370807 1.7664705,-5.3910089 2.47095,-6.6321394 2.825118,-7.9820969 2.862518,-5.9711806 1.6844029,-4.2682881 0.42580044,-2.8161341 -0.14992196,-2.0167197 -1.5488455,-0.25263484 -1.563571,0.01519016 -0.00827326,-1.3934464 1.5653337,-2.8881103 2.511936,-4.7900465 2.593226,-3.6251095 1.2010633,-1.4094142 1.3082246,-1.1137776 2.000235,-1.4997025 3.02414,-3.4478995 2.376744,-1.713463 2.073651,-1.2634125 1.3713111,1.2811196 2.118444,-0.01543094 2.958113,-1.9343257 1.5317341,1.3320675 2.724993,1.4796305 4.305439,1.3377048 5.96101,1.4713905 7.47223,2.1911776 8.70407,2.6540294 6.188621,1.993269 5.679614,2.0111279 4.931508,1.7077206 2.855705,3.1889989 3.283448,3.0936214 3.940758,3.0370031 6.08543,2.1533036 4.547774,3.0655088 2.928706,4.1591142 0.89746194,3.9816603 -0.85642956,4.7108194 -0.55152246,4.7155185 1.136643,4.5657708 0.25516274,4.7018777 -0.57152096,4.7561157 -2.8111733,5.6564903 -2.4523748,5.7664233 -0.24138176,4.9585349 2.174857,5.1016637 4.41785,4.5263708 4.837271,3.8050321 7.728941,3.5781241 5.859317,4.0401056 4.811355,5.2304782 3.292647,5.1757166 1.901321,5.6490929 0.92408244,6.1225822 1.2502632,6.2832464 2.157334,5.9199205 2.88817,5.6243214 5.260561,5.5155869 4.905292,5.7402894 3.522084,5.9799144 2.068384,6.3176617 0.99857324,7.288548 2.051658,6.8365041 4.995112,6.1323587 5.115487,6.4677906 4.212489,6.4931596 2.589513,8.0534397 4.288447,7.7794008 c 2.389586,0 4.779173,0 7.168758,0 C 10.785992,6.2718951 9.097856,5.9646859 7.888395,5.080086 6.418042,3.9018808 9.00104,5.6283069 9.665623,5.6268344 c 1.241366,0.3708984 2.189097,1.3105475 3.13149,2.1525664 -0.357889,-0.9117653 -2.113325,-2.3755702 -2.137349,-2.3674485 1.615037,0.2029571 2.499096,2.0549981 3.894541,2.3674485 1.687852,0 3.375704,0 5.063556,0 C 19.252382,7.189587 18.900318,6.5756142 18.408948,6.0794836 Z"
       style="fill:#ffffff;fill-opacity:1;fill-rule:nonzero;stroke:none;stroke-width:0.0150568"
       id="path103" />
    <path
       d="m -2.1648664,0.74183456 c -0.810719,1.30987594 -2.1371031,1.95132284 -3.420771,2.62978254 -1.9576029,0.6565836 -2.8854914,2.7710652 -4.8218216,3.4330078 0.296833,-0.3437388 2.8429976,-2.8217543 2.6835546,-3.046309 -1.134009,0.9820057 -2.4720676,1.6947995 -3.7034586,2.5320109 -0.655897,0.1350087 -2.733536,0.8404111 -2.492166,0.6579839 1.503481,-0.7908996 3.082242,-1.4359257 4.3308728,-2.6276971 0.6756005,-0.6341023 1.2883129,-1.8340903 0.1782969,-0.6795378 -1.3824287,0.204648 -0.3981223,-1.8560657 -0.3216741,-1.9395558 -0.2912096,0.5882436 -1.2205106,1.3969284 -0.4754446,0.3457668 0.2540503,-0.5255967 1.2607702,-2.47141624 0.3560949,-1.13229854 -0.5012719,-0.7651148 0.3161423,-1.6872228 0.3636469,-1.7019409 -2.0360328,0.016627 -2.6573218,2.40191844 -4.5876668,2.84294974 -1.29792,1.1693458 -2.841788,1.8940029 -3.84964,3.3547077 -0.788326,0.2700111 0.761084,-1.3094724 0.845389,-1.8008479 1.200191,-0.9048121 2.500988,-1.8174493 3.816838,-2.61807874 1.517788,-0.6653015 2.209789,-2.92899346 4.2060954,-2.28912446 1.0914746,0.99705486 0.9246673,3.3618671 2.4952569,3.9498939 -0.8230384,-0.590856 -1.2175275,-2.25384034 0.1565912,-1.1488368 0.6921027,0.4383452 -0.045896,1.771261 1.0924309,1.009561 1.1909901,-0.3169946 2.2263511,-0.9679199 3.1475752,-1.77143724 z"
       style="fill:#ffffff;fill-opacity:1;fill-rule:nonzero;stroke:none;stroke-width:0.0150568"
       id="path105" />
    <path
       d="m -19.847318,7.5535489 c 13.3724312,0 26.744862,0 40.117293,0 C 19.62885,6.2299189 19.102711,4.6230681 17.52777,4.1640556 15.907106,3.6198532 15.133002,2.153978 14.348133,0.76473756 13.777182,-0.58372594 12.443337,-1.1147911 11.370179,-0.03630284 9.54912,0.01308316 9.316205,-2.2667524 7.896905,-2.9198894 6.674852,-3.8965694 6.947726,-6.3757985 4.885047,-6.3538516 3.972881,-7.5492939 3.687272,-9.1275199 2.189421,-9.8500499 1.863648,-10.879407 1.6197035,-12.522121 0.31198384,-11.195397 c -1.2428157,0.927355 -2.12849064,2.3155541 -3.02986684,3.5890161 -0.8323196,0.9718304 -2.9964331,0.653929 -2.2699903,2.4113034 -0.064234,2.0979555 -2.5324399,1.7245835 -3.1310322,3.3390246 -1.2370217,0.99548746 -3.2993475,0.5746126 -4.0440065,2.40160206 -1.395814,0.78549874 -2.630742,1.85021604 -4.029358,2.63805314 -1.284892,0.8760657 -1.687185,2.6584795 -2.988093,3.6211127 -0.22281,0.2491727 -0.445047,0.4988575 -0.666955,0.7488339 z m 40.466462,0.4517055 c -13.656053,0 -27.3121036,0 -40.968156,0 -0.349609,-0.9531209 1.618582,-1.9907374 2.138052,-2.9530321 0.56531,-1.7174583 2.123004,-2.3327155 3.408975,-3.3640577 1.574496,-0.76988494 2.766642,-2.00985334 4.05472,-3.0952422 1.5338538,0.024127 2.4025461,-0.8000903 3.230469,-1.8889438 1.5283942,-0.1852126 2.2427569,-1.633917 2.0416743,-3.0367493 0.3789476,-1.3432792 2.8036574,-0.8207392 3.1049176,-2.5939182 1.0309645,-1.2264691 1.91468504,-2.7028551 3.5315247,-3.2138831 1.6119864,-0.04987 0.8159644,2.7289351 2.6067354,2.9525891 0.823684,1.156105 0.958486,2.7516634 2.670344,2.9533106 1.057381,1.135108 1.063309,3.0086668 2.691366,3.6584342 0.538061,1.0787021 1.815221,2.93634566 3.057528,1.5284921 1.872607,-0.5309494 2.665949,2.01414586 3.530698,3.2080855 0.840143,1.6734578 3.356031,1.556165 4.054036,3.3788243 0.127941,0.6561709 1.43713,1.9567071 0.847116,2.4660906 z"
       style="fill:#2d2929;fill-opacity:1;fill-rule:nonzero;stroke:none;stroke-width:0.0150568"
       id="path107" />
    <path
       d="m 4.93338,-6.9374549 c 0.301409,0.7176453 1.798538,2.7134472 0.50765,1.3946261 C 5.255036,-5.9323791 3.981748,-6.7782017 4.93338,-6.9374549 Z"
       style="fill:#2d2929;fill-opacity:1;fill-rule:nonzero;stroke:none;stroke-width:0.0150568"
       id="path109" />
    <path
       d="m 2.843189,-9.2626829 c -0.968453,-0.144243 -1.8360596,-2.4222141 -0.663555,-0.8665211 0.325937,0.3478241 1.05676,0.2664731 0.663555,0.8665211 z"
       style="fill:#2d2929;fill-opacity:1;fill-rule:nonzero;stroke:none;stroke-width:0.0150568"
       id="path111" />
    <path
       d="M 16.432439,3.5440631 C 15.685555,3.366692 13.691025,1.2658232 15.2897,2.4523293 c 0.301834,0.4153399 1.74995,0.386366 1.142739,1.0917338 z"
       style="fill:#2d2929;fill-opacity:1;fill-rule:nonzero;stroke:none;stroke-width:0.0150568"
       id="path113" />
    <path
       d="m 7.43417,-4.4142296 c 0.349604,1.4541158 0.624092,2.877469 1.327562,4.23428446 C 7.635967,-1.307719 7.212552,-2.6934014 7.027184,-4.2184907 7.162846,-4.2837367 7.298508,-4.3489839 7.43417,-4.4142296 Z"
       style="fill:#2d2929;fill-opacity:1;fill-rule:nonzero;stroke:none;stroke-width:0.0150568"
       id="path115" />
    <path
       d="M -7.1167599,5.80018 C -6.067774,5.1244621 -4.5416443,4.0334375 -3.9087526,3.3969577 -5.2085569,3.7739374 -6.5161696,4.5366343 -7.1167599,5.80018 Z"
       style="fill:#ffffff;fill-opacity:1;fill-rule:nonzero;stroke:none;stroke-width:0.0150568"
       id="path117" />
  </g>
</svg>
