<?xml version="1.0" encoding="UTF-8" standalone="no"?>
<!-- Created with Inkscape (http://www.inkscape.org/) -->

<svg
   version="1.1"
   id="svg2"
   xml:space="preserve"
   width="945.77332"
   height="953.69336"
   viewBox="0 0 945.77332 953.69336"
   sodipodi:docname="town1.svg"
   inkscape:version="1.1.2 (0a00cf5339, 2022-02-04)"
   xmlns:inkscape="http://www.inkscape.org/namespaces/inkscape"
   xmlns:sodipodi="http://sodipodi.sourceforge.net/DTD/sodipodi-0.dtd"
   xmlns="http://www.w3.org/2000/svg"
   xmlns:svg="http://www.w3.org/2000/svg"><defs
     id="defs6" /><sodipodi:namedview
     id="namedview4"
     pagecolor="#ffffff"
     bordercolor="#666666"
     borderopacity="1.0"
     inkscape:pageshadow="2"
     inkscape:pageopacity="0.0"
     inkscape:pagecheckerboard="0"
     showgrid="false"
     inkscape:zoom="13.924811"
     inkscape:cx="-1.938985"
     inkscape:cy="-8.2586398"
     inkscape:window-width="1920"
     inkscape:window-height="1008"
     inkscape:window-x="0"
     inkscape:window-y="0"
     inkscape:window-maximized="1"
     inkscape:current-layer="g8" /><g
     id="g8"
     inkscape:groupmode="layer"
     inkscape:label="ink_ext_XXXXXX"><path
       d="m 12.577976,-4.831997 h -2.247504 v 1.2646299 h 2.247504 V -4.831997"
       style="fill:#2b2b2b;fill-opacity:1;fill-rule:nonzero;stroke:none;stroke-width:0.0505852"
       id="path354" /><path
       d="m -7.5509184,-11.458667 h -1.940958 v 1.9222399 h 1.940958 v -1.9222399"
       style="fill:#2b2b2b;fill-opacity:1;fill-rule:nonzero;stroke:none;stroke-width:0.0505852"
       id="path356" /><path
       d="m -10.104968,-6.7542371 c 0,0.15176 0.1532726,0.30351 0.3065456,0.30351 0.613094,0 4.496019,0 5.108607,0 0.153274,0 0.306547,-0.15175 0.306547,-0.30351 0,-0.60703 0,-4.4514999 0,-5.0585299 0,-0.15175 -0.153273,-0.30351 -0.306547,-0.30351 -0.612588,0 -4.495513,0 -5.108607,0 -0.153273,0 -0.3065456,0.15176 -0.3065456,0.30351 0,0.60703 0,4.4514999 0,5.0585299 z m 6.7435226,0 c 0,0.15176 0.153273,0.30351 0.306547,0.30351 0.613093,0 4.496019,0 5.108607,0 0.153273,0 0.306547,-0.15175 0.306547,-0.30351 0,-0.60703 0,-4.4514999 0,-5.0585299 0,-0.15175 -0.153274,-0.30351 -0.306547,-0.30351 -0.612588,0 -4.495514,0 -5.108607,0 -0.153274,0 -0.306547,0.15176 -0.306547,0.30351 0,0.60703 0,4.4514999 0,5.0585299 z M -11.02461,-14.038527 c 0.919642,0.15176 1.7881896,-0.30351 2.2475036,-1.06228 0.409235,0.6576 1.124512,1.06228 1.941464,1.06228 0.817458,0 1.533239,-0.45526 1.941463,-1.06228 0.408729,0.6576 1.124005,1.06228 1.941463,1.06228 0.817458,0 1.532734,-0.45526 1.941463,-1.06228 0.40872903,0.6576 1.12400503,1.06228 1.94146303,1.06228 0.81695197,0 1.53222797,-0.45526 1.94095697,-1.06228 0.408729,0.6576 1.124005,1.06228 1.941463,1.06228 0.817458,0 1.532734,-0.45526 1.940957,-1.06228 0.409235,0.6576 1.124005,1.06228 1.9414633,1.06228 0.817964,0 1.5332401,-0.45526 1.9414631,-1.06228 0.45982,0.75877 1.328369,1.16346 2.24801,1.06228 v 8.54892 h -2.24801 v -5.96906 c 0,-0.15175 -0.152768,-0.30351 -0.306041,-0.30351 H 4.2506266 c -0.152767,0 -0.306546,0.15176 -0.306546,0.30351 v 6.01964 H -10.769153 v -8.5995 h -0.255457"
       style="fill:#2b2b2b;fill-opacity:1;fill-rule:nonzero;stroke:none;stroke-width:0.0505852"
       id="path358" /><path
       d="M 3.6375336,-4.831997 H -11.0757 v 1.2646299 H 3.6375336 V -4.831997"
       style="fill:#2b2b2b;fill-opacity:1;fill-rule:nonzero;stroke:none;stroke-width:0.0505852"
       id="path360" /><path
       d="m 2.3602556,-16.213687 c 0,0.85994 -0.71477,1.56814 -1.58382497,1.56814 -0.86855,0 -1.583826,-0.7082 -1.583826,-1.56814 v -1.26463 H 2.4118516 v 1.26463 h -0.0516"
       style="fill:#2b2b2b;fill-opacity:1;fill-rule:nonzero;stroke:none;stroke-width:0.0505852"
       id="path362" /><path
       d="m 6.1920896,-16.213687 c 0,0.85994 -0.715275,1.56814 -1.583825,1.56814 -0.868549,0 -1.583825,-0.7082 -1.583825,-1.56814 v -1.26463 h 3.218742 v 1.26463 h -0.05109"
       style="fill:#2b2b2b;fill-opacity:1;fill-rule:nonzero;stroke:none;stroke-width:0.0505852"
       id="path364" /><path
       d="m 6.2431816,-24.459087 h 2.5545563 l 1.175096,6.32316 H 6.8051836 l -0.562002,-6.32316"
       style="fill:#2b2b2b;fill-opacity:1;fill-rule:nonzero;stroke:none;stroke-width:0.0505852"
       id="path366" /><path
       d="m 10.023419,-16.213687 c 0,0.85994 -0.7152751,1.56814 -1.5833191,1.56814 -0.8685493,0 -1.5838253,-0.7082 -1.5838253,-1.56814 v -1.26463 H 10.07451 v 1.26463 h -0.05109"
       style="fill:#2b2b2b;fill-opacity:1;fill-rule:nonzero;stroke:none;stroke-width:0.0505852"
       id="path368" /><path
       d="M -0.80739537,-11.458667 H -2.7483524 v 1.9222399 h 1.94095703 v -1.9222399"
       style="fill:#2b2b2b;fill-opacity:1;fill-rule:nonzero;stroke:none;stroke-width:0.0505852"
       id="path370" /><path
       d="m 1.7471616,-11.458667 h -1.94146297 v 1.9222399 H 1.7471616 v -1.9222399"
       style="fill:#2b2b2b;fill-opacity:1;fill-rule:nonzero;stroke:none;stroke-width:0.0505852"
       id="path372" /><path
       d="m 1.7471616,-8.9294071 h -1.94146297 v 1.92224 H 1.7471616 v -1.92224"
       style="fill:#2b2b2b;fill-opacity:1;fill-rule:nonzero;stroke:none;stroke-width:0.0505852"
       id="path374" /><path
       d="m -12.301382,-16.213687 v -1.26463 h 3.2182356 v 1.26463 c 0,0.85994 -0.715276,1.56814 -1.5838246,1.56814 -0.86855,0 -1.634411,-0.7082 -1.634411,-1.56814"
       style="fill:#2b2b2b;fill-opacity:1;fill-rule:nonzero;stroke:none;stroke-width:0.0505852"
       id="path376" /><path
       d="m 14.161802,-24.459087 c -0.357639,0 -0.664185,-0.30352 -0.664185,-0.65761 0,-0.3541 0.306546,-0.65761 0.664185,-0.65761 0.357637,0 0.664184,0.30351 0.664184,0.65761 0,0.35409 -0.306547,0.65761 -0.664184,0.65761"
       style="fill:#2b2b2b;fill-opacity:1;fill-rule:nonzero;stroke:none;stroke-width:0.0505852"
       id="path378" /><path
       d="m -4.9963614,-8.9294071 h -1.941463 v 1.92224 h 1.941463 v -1.92224"
       style="fill:#2b2b2b;fill-opacity:1;fill-rule:nonzero;stroke:none;stroke-width:0.0505852"
       id="path380" /><path
       d="m -4.9963614,-11.458667 h -1.941463 v 1.9222399 h 1.941463 v -1.9222399"
       style="fill:#2b2b2b;fill-opacity:1;fill-rule:nonzero;stroke:none;stroke-width:0.0505852"
       id="path382" /><path
       d="m -7.5509184,-8.9294071 h -1.940958 v 1.92224 h 1.940958 v -1.92224"
       style="fill:#2b2b2b;fill-opacity:1;fill-rule:nonzero;stroke:none;stroke-width:0.0505852"
       id="path384" /><path
       d="m 2.3602556,-24.459087 h -3.21823597 v 6.32316 H 2.3602556 v -6.32316"
       style="fill:#2b2b2b;fill-opacity:1;fill-rule:nonzero;stroke:none;stroke-width:0.0505852"
       id="path386" /><path
       d="M -0.80739537,-8.9294071 H -2.7483524 v 1.92224 h 1.94095703 v -1.92224"
       style="fill:#2b2b2b;fill-opacity:1;fill-rule:nonzero;stroke:none;stroke-width:0.0505852"
       id="path388" /><path
       d="m 8.5422819,-7.4624371 c 0.05059,0.0506 0.152768,0.1012 0.204365,0.1012 0.306041,0 0.408729,-0.35409 0.203859,-0.55643 l -1.7876843,-1.56814 c -0.153779,-0.1012 -0.357638,-0.1012 -0.45982,0 -0.102182,0.15175 -0.102182,0.3541 0,0.45526 z M 4.3017186,-10.345787 v -0.80937 h 5.4151543 v 7.5877899 H 4.3017186 v -5.91847 l 2.656738,2.3775 c 0.153274,0.1012 0.357638,0.1012 0.459821,0 0.101676,-0.15175 0.101676,-0.3541 0,-0.45526 l -3.116559,-2.7821899"
       style="fill:#2b2b2b;fill-opacity:1;fill-rule:nonzero;stroke:none;stroke-width:0.0505852"
       id="path390" /><path
       d="m 10.636513,-18.135927 -1.1750961,-6.32316 H 11.40288 l 2.349686,6.32316 h -3.116053"
       style="fill:#2b2b2b;fill-opacity:1;fill-rule:nonzero;stroke:none;stroke-width:0.0505852"
       id="path392" /><path
       d="m 3.0244396,-24.459087 c 0.664185,0 1.941463,0 2.605648,0 l 0.562002,6.32316 h -3.16765 v -6.32316"
       style="fill:#2b2b2b;fill-opacity:1;fill-rule:nonzero;stroke:none;stroke-width:0.0505852"
       id="path394" /><path
       d="m 12.271429,-14.645547 c -0.868549,0 -1.583825,-0.7082 -1.583825,-1.56814 v -1.26463 h 3.218741 v 1.26463 c -0.05108,0.85994 -0.766366,1.56814 -1.634916,1.56814"
       style="fill:#2b2b2b;fill-opacity:1;fill-rule:nonzero;stroke:none;stroke-width:0.0505852"
       id="path396" /><path
       d="m -1.4710734,-16.213687 c 0,0.85994 -0.715276,1.56814 -1.583825,1.56814 -0.86855,0 -1.583826,-0.7082 -1.583826,-1.56814 v -1.26463 h 3.218742 v 1.26463 h -0.05109"
       style="fill:#2b2b2b;fill-opacity:1;fill-rule:nonzero;stroke:none;stroke-width:0.0505852"
       id="path398" /><path
       d="m -12.812292,-26.027237 c -0.613601,0 -1.124512,-0.50585 -1.124512,-1.11287 0,-0.60702 0.510911,-1.11288 1.124512,-1.11288 0.612587,0 1.123498,0.50586 1.123498,1.11288 0,0.60702 -0.510911,1.11287 -1.123498,1.11287"
       style="fill:#2b2b2b;fill-opacity:1;fill-rule:nonzero;stroke:none;stroke-width:0.0505852"
       id="path400" /><path
       d="m 5.5789966,-26.330747 h 5.7217004 v 1.26463 c -1.9925531,0 -3.6785614,0 -5.7727914,0 v -1.26463 h 0.05109"
       style="fill:#2b2b2b;fill-opacity:1;fill-rule:nonzero;stroke:none;stroke-width:0.0505852"
       id="path402" /><path
       d="m -9.7478374,-26.330747 h 5.722207 v 1.26463 c -0.868549,0 -4.904243,0 -5.772792,0 v -1.26463 h 0.05059"
       style="fill:#2b2b2b;fill-opacity:1;fill-rule:nonzero;stroke:none;stroke-width:0.0505852"
       id="path404" /><path
       d="m -9.0831464,-18.135927 h -3.1165586 l 2.3501916,-6.32316 h 1.941463 l -1.175096,6.32316"
       style="fill:#2b2b2b;fill-opacity:1;fill-rule:nonzero;stroke:none;stroke-width:0.0505852"
       id="path406" /><path
       d="m -6.8862274,-14.645547 c -0.86855,0 -1.583826,-0.7082 -1.583826,-1.56814 v -1.26463 h 3.218236 v 1.26463 c -0.05059,0.85994 -0.766367,1.56814 -1.63441,1.56814"
       style="fill:#2b2b2b;fill-opacity:1;fill-rule:nonzero;stroke:none;stroke-width:0.0505852"
       id="path408" /><path
       d="m -4.6898154,-24.459087 -0.562002,6.32316 h -3.167651 l 1.175603,-6.32316 h 2.55405"
       style="fill:#2b2b2b;fill-opacity:1;fill-rule:nonzero;stroke:none;stroke-width:0.0505852"
       id="path410" /><path
       d="m -3.3614454,-28.860007 h 8.276257 v 3.79389 c -0.868549,0 -7.152252,0 -8.327348,0 v -3.79389 h 0.05109"
       style="fill:#2b2b2b;fill-opacity:1;fill-rule:nonzero;stroke:none;stroke-width:0.0505852"
       id="path412" /><path
       d="m -1.4710734,-24.459087 v 6.32316 h -3.167651 l 0.562003,-6.32316 c 0.715276,0 1.941463,0 2.605648,0"
       style="fill:#2b2b2b;fill-opacity:1;fill-rule:nonzero;stroke:none;stroke-width:0.0505852"
       id="path414" /><path
       d="m -12.812292,-11.762177 c -0.254444,0 -0.459821,0.20386 -0.459821,0.45527 0,0.2514 0.205377,0.45526 0.459821,0.45526 0.253937,0 0.459313,-0.20386 0.459313,-0.45526 0,-0.25141 -0.205376,-0.45527 -0.459313,-0.45527"
       style="fill:#2b2b2b;fill-opacity:1;fill-rule:nonzero;stroke:none;stroke-width:0.0505852"
       id="path416" /><path
       d="m -13.272113,-23.447377 c -0.253938,0 -0.460326,0.20385 -0.460326,0.45527 0,0.2514 0.206388,0.45526 0.460326,0.45526 0.253939,0 0.459821,-0.20386 0.459821,-0.45526 0,-0.25142 -0.205882,-0.45527 -0.459821,-0.45527"
       style="fill:#2b2b2b;fill-opacity:1;fill-rule:nonzero;stroke:none;stroke-width:0.0505852"
       id="path418" /><path
       d="m 9.5635989,-29.163517 c -0.253938,0 -0.45982,0.20386 -0.45982,0.45527 0,0.2514 0.205882,0.45526 0.45982,0.45526 0.253938,0 0.4598201,-0.20386 0.4598201,-0.45526 0,-0.25141 -0.2058821,-0.45527 -0.4598201,-0.45527"
       style="fill:#2b2b2b;fill-opacity:1;fill-rule:nonzero;stroke:none;stroke-width:0.0505852"
       id="path420" /><path
       d="m 14.36566,-22.536847 c -0.253937,0 -0.459315,0.20385 -0.459315,0.45528 0,0.2514 0.205378,0.45526 0.459315,0.45526 0.253938,0 0.460326,-0.20386 0.460326,-0.45526 0,-0.25143 -0.206388,-0.45528 -0.460326,-0.45528"
       style="fill:#2b2b2b;fill-opacity:1;fill-rule:nonzero;stroke:none;stroke-width:0.0505852"
       id="path422" /><path
       d="m 14.008529,-8.9294071 c -0.254445,0 -0.459821,0.20386 -0.459821,0.45527 0,0.25141 0.205376,0.45527 0.459821,0.45527 0.253937,0 0.459313,-0.20386 0.459313,-0.45527 0,-0.25141 -0.205376,-0.45527 -0.459313,-0.45527"
       style="fill:#2b2b2b;fill-opacity:1;fill-rule:nonzero;stroke:none;stroke-width:0.0505852"
       id="path424" /><path
       d="m -7.0395004,-28.860007 c -0.253939,0 -0.459821,0.20386 -0.459821,0.45527 0,0.2514 0.205882,0.45526 0.459821,0.45526 0.253937,0 0.459314,-0.20386 0.459314,-0.45526 0,-0.25141 -0.205377,-0.45527 -0.459314,-0.45527"
       style="fill:#2b2b2b;fill-opacity:1;fill-rule:nonzero;stroke:none;stroke-width:0.0505852"
       id="path426" /><path
       d="m -13.936804,-1.0380971 h 1.583825 v -1.92225 c 1.379461,0 24.930955,0 26.208234,0 v 1.92225 h 1.583319 c 0.153274,0 0.307052,0.15176005 0.307052,0.30351005 0,0.15176 -0.153778,0.30351 -0.307052,0.30351 h -29.375378 c -0.153274,0 -0.306041,-0.15175 -0.306041,-0.30351 0,-0.15175 0.152767,-0.30351005 0.306041,-0.30351005"
       style="fill:#2b2b2b;fill-opacity:1;fill-rule:nonzero;stroke:none;stroke-width:0.0505852"
       id="path428" /></g></svg>
