<?xml version="1.0" encoding="UTF-8" standalone="no"?>
<!-- Created with Inkscape (http://www.inkscape.org/) -->

<svg
   width="210mm"
   height="297mm"
   viewBox="0 0 210 297"
   version="1.1"
   id="svg530"
   inkscape:version="1.1.2 (0a00cf5339, 2022-02-04)"
   sodipodi:docname="tree2.svg"
   xmlns:inkscape="http://www.inkscape.org/namespaces/inkscape"
   xmlns:sodipodi="http://sodipodi.sourceforge.net/DTD/sodipodi-0.dtd"
   xmlns="http://www.w3.org/2000/svg"
   xmlns:svg="http://www.w3.org/2000/svg">
  <sodipodi:namedview
     id="namedview532"
     pagecolor="#ffffff"
     bordercolor="#666666"
     borderopacity="1.0"
     inkscape:pageshadow="2"
     inkscape:pageopacity="0.0"
     inkscape:pagecheckerboard="0"
     inkscape:document-units="mm"
     showgrid="false"
     inkscape:zoom="2.9576318"
     inkscape:cx="85.541412"
     inkscape:cy="-73.031403"
     inkscape:window-width="1920"
     inkscape:window-height="1008"
     inkscape:window-x="0"
     inkscape:window-y="0"
     inkscape:window-maximized="1"
     inkscape:current-layer="layer1" />
  <defs
     id="defs527" />
  <g
     inkscape:label="Layer 1"
     inkscape:groupmode="layer"
     id="layer1">
    <path
       d="m -1.1004537,1.0416977 h 3.192172 c 0,0 0.04877,-1.19400003 -0.341149,-2.6073869 -0.389917,-1.4133875 -0.584763,-4.2969305 -0.414188,-6.6852001 l -1.90059301,0.1950708 c 0,0 -0.146302,2.761781 0.07304,4.4432782 0.219343,1.6812276 -0.02449,2.65608787 -0.268109,3.38692917 C -1.0028947,0.50547801 -1.1004527,1.0416977 -1.1004527,1.0416977"
       style="fill:#ffffff;fill-opacity:1;fill-rule:nonzero;stroke:#000000;stroke-width:0.9;stroke-opacity:1;stroke-miterlimit:4;stroke-dasharray:none"
       id="path48" />
    <path
       d="m -8.6134017,-9.4673854 c 0,0 -0.137651,0.7915201 0.495476,1.1189603 0.633126,0.3274409 0.880875,-0.081804 0.880875,-0.081804 0,0 0.110076,0.4912731 0.633036,0.6548809 0.523029,0.1638326 1.12858,-0.2182183 1.12858,-0.2182183 0,0 0.467923,0.5184657 0.660612,0.5184657 0.192688,0 0.357824,-0.2456365 0.357824,-0.2456365 0,0 0,0.2728295 0.165204,0.4092443 0.165136,0.1366395 0.357824,-0.1636078 0.357824,-0.1636078 0,0 0.137651,0.6276877 0.825725,0.7912955 0.688164,0.1638325 1.018527,-0.5456591 1.018527,-0.5456591 0,0 0.247726,0.3820513 0.385287,0.3546335 0.137651,-0.027193 0.550603,-0.4910482 0.550603,-0.4910482 0,0 0.22015099,0.4092443 0.90829299,0.4910482 0.688142,0.082029 0.853322,-0.3820513 0.853322,-0.3820513 0,0 0.46790101,0.2730543 0.93580101,0 0.4679,-0.2728295 0.963443,-0.9277105 0.963443,-0.9277105 0,0 0.770845,0.3274406 1.238745,0.054385 0.467901,-0.2728294 0.467901,-0.6548805 0.467901,-0.6548805 0,0 0.605664,0.3002473 1.458761,-0.1364147 0.853323,-0.4366619 1.321449,-1.7466481 1.321449,-1.7466481 0,0 0.715559,-0.136415 0.853097,-0.32744 0,0 0.427448,0.271031 0.866807,-0.07124 0.439584,-0.342274 0.518017,-0.684546 0.518017,-0.684546 0,0 1.7931677,0.499363 3.2251857,-0.807701 1.432018,-1.307289 1.20481,-2.884711 1.20481,-2.884711 0,0 0.386321,0.06764 0.477339,-0.202937 0.09079,-0.270357 -0.09102,-0.653532 -0.09102,-0.653532 0,0 0.727471,-0.270358 0.977377,-1.104353 0.250131,-0.833771 -0.0227,-1.23942 -0.0227,-1.23942 0,0 0.613754,-0.608585 0.659375,-1.216945 0.0454,-0.608585 -0.750169,-1.284591 -0.750169,-1.284591 0,0 0.159113,-0.135291 0,-0.676006 -0.159113,-0.54094 -0.591056,-0.631059 -0.591056,-0.631059 0,0 0.27283,-0.833995 0.181812,-1.239644 -0.09079,-0.405648 -0.863661,-0.901416 -0.863661,-0.901416 0,0 0.318227,-0.540939 0.227209,-0.811297 -0.09079,-0.270358 -0.545435,-0.270358 -0.545435,-0.270358 0,0 0.545435,-0.67623 -0.182036,-2.028242 -0.727246,-1.352237 -1.591131,-0.946588 -1.591131,-0.946588 0,0 0.04562,-0.585887 -0.318226,-0.856469 -0.363623,-0.270358 -0.68185,0 -0.68185,0 0,0 -0.272829,-1.848005 -1.8185627,-2.388719 -1.54551,-0.54094 -2.045772,0.04495 -2.045772,0.04495 0,0 -1.13649,-0.676006 -1.681925,-0.450821 -0.545659,0.22541 -0.363847,0.540939 -0.363847,0.540939 0,0 -0.954679,-0.585886 -2.272981,-0.405648 -1.318301,0.180238 -1.68214801,0.991535 -1.68214801,0.991535 0,0 -0.40902,-0.450595 -0.818264,-0.360476 -0.409244,0.09012 -0.363623,0.495767 -0.363623,0.495767 0,0 -1.04569699,-1.126826 -3.13697699,-1.081654 -2.091169,0.04494 -2.636783,1.667541 -2.636783,1.667541 0,0 -0.636453,-0.495767 -1.681992,-0.225185 -1.045652,0.270357 -1.363878,1.757661 -1.363878,1.757661 0,0 -0.8183543,-0.450596 -0.9546793,-0.225186 -0.136437,0.225186 -0.227388,0.946363 -0.227388,0.946363 0,0 -1.681991,-0.315529 -2.727643,1.126827 -1.045629,1.442355 -0.545591,1.938123 -0.545591,1.938123 0,0 -0.954679,0.856469 -0.818264,1.577647 0.136325,0.721178 1.22744,1.352236 1.22744,1.352236 0,0 -1.22744,0.721178 -1.22744,1.667542 0,0.946588 0.272762,2.253653 0.272762,2.253653 0,0 -0.818354,0.540939 -0.681939,0.90164 0.136415,0.360477 0.590988,0.225186 0.590988,0.225186 0,0 -0.772799,1.397409 -0.681939,2.118587 0.09095,0.721178 2.636783,0.721178 2.636783,0.721178 0,0 -1.363856,1.622593 -0.681939,2.794367 0.681939,1.171998 2.273182,1.262117 2.273182,1.262117 0,0 -0.497925,1.9468883 2.2513833,0.7930936"
       style="fill:#ffffff;fill-opacity:1;fill-rule:nonzero;stroke:#000000;stroke-width:0.9;stroke-opacity:1;stroke-miterlimit:4;stroke-dasharray:none"
       id="path58" />
  </g>
</svg>
